<?xml version="1.0" standalone="no"?>
<!DOCTYPE svg PUBLIC "-//W3C//DTD SVG 20010904//EN"
 "http://www.w3.org/TR/2001/REC-SVG-20010904/DTD/svg10.dtd">
<svg version="1.0" xmlns="http://www.w3.org/2000/svg"
 width="1012.000000pt" height="1012.000000pt" viewBox="0 0 1012.000000 1012.000000"
 preserveAspectRatio="xMidYMid meet">
<metadata>
Created by potrace 1.14, written by Peter Selinger 2001-2017
</metadata>
<g transform="translate(0.000000,1012.000000) scale(0.100000,-0.100000)"
fill="#000000" stroke="none">
<path d="M1925 10105 c-97 -20 -233 -74 -243 -97 -2 -5 -10 -8 -17 -8 -30 0
-188 -155 -237 -232 -71 -111 -117 -233 -136 -353 -9 -64 -9 -8690 0 -8730 4
-16 10 -46 14 -65 9 -53 63 -188 98 -245 38 -63 101 -135 169 -192 76 -64 215
-135 312 -159 17 -4 37 -9 45 -11 34 -10 228 -12 265 -3 22 5 54 11 71 14 72
13 184 63 262 117 143 100 229 213 291 380 19 52 23 67 37 155 3 21 7 864 8
1872 2 1948 0 1867 45 1842 9 -5 100 -93 203 -197 103 -103 475 -478 826 -832
386 -388 644 -641 651 -637 6 4 11 3 11 -2 0 -12 99 -71 160 -96 25 -10 53
-22 63 -28 11 -5 21 -7 24 -4 3 2 21 -1 41 -8 80 -27 246 -25 377 4 79 18 205
68 205 82 0 4 9 8 20 8 11 0 20 5 20 10 0 6 4 10 10 10 16 0 106 81 155 141
43 52 105 160 105 183 0 9 4 16 8 16 8 0 38 98 34 113 -1 4 3 7 10 7 6 0 9 2
6 5 -3 3 1 35 8 71 22 118 2 338 -36 389 -4 6 -10 21 -13 35 -6 25 -76 140
-103 170 -8 8 -34 38 -58 65 -24 28 -643 650 -1375 1384 -1134 1136 -1335
1342 -1358 1390 l-28 56 -2 730 c-5 2121 -2 1987 -48 2135 -16 53 -75 167 -99
193 -6 7 -27 33 -46 57 -19 25 -45 53 -57 63 -13 10 -29 24 -36 31 -38 37
-227 146 -227 130 0 -4 -6 -1 -14 5 -8 7 -22 13 -33 15 -10 2 -38 9 -63 16
-62 17 -252 20 -325 5z"/>
<path d="M7885 10104 c-38 -9 -88 -24 -112 -35 -23 -10 -44 -19 -47 -19 -7 0
-125 -70 -150 -89 -48 -37 -186 -183 -181 -192 4 -5 2 -9 -3 -9 -13 0 -88
-156 -97 -200 -4 -19 -10 -39 -13 -45 -4 -5 -8 -21 -9 -35 -6 -64 -14 -417
-13 -615 1 -121 1 -968 1 -1883 1 -1691 1 -1692 -34 -1692 -6 0 -134 126 -286
279 -152 154 -503 510 -781 792 -278 281 -513 519 -524 528 -10 9 -31 27 -46
41 -85 78 -194 139 -301 169 -105 29 -126 32 -204 31 -227 -3 -423 -81 -573
-228 -115 -112 -197 -259 -218 -391 -3 -18 -8 -43 -11 -55 -10 -38 -5 -202 7
-257 6 -30 14 -65 16 -79 3 -13 10 -30 16 -37 6 -7 8 -13 4 -13 -4 0 0 -10 8
-22 8 -13 16 -27 17 -33 7 -28 24 -65 31 -65 4 0 8 -5 8 -12 0 -41 109 -153
1721 -1766 1156 -1158 1126 -1125 1147 -1242 4 -25 7 -169 6 -320 -7 -799 -1
-1840 10 -1940 2 -14 6 -36 10 -50 3 -14 8 -34 10 -45 11 -64 75 -196 126
-259 25 -31 134 -140 163 -163 21 -17 116 -70 147 -83 14 -6 32 -13 40 -17 18
-7 13 -6 70 -22 74 -22 110 -26 225 -26 170 1 296 42 441 144 167 117 296 317
321 496 3 22 10 46 15 53 7 8 7 12 0 12 -7 0 -8 10 -1 33 11 39 7 8633 -5
8692 -21 112 -114 345 -137 345 -5 0 -9 5 -9 10 0 6 -17 29 -37 52 -21 22 -47
50 -59 63 -40 44 -218 152 -264 160 -3 1 -23 7 -45 14 -128 40 -284 50 -400
25z"/>
</g>
</svg>
