<?xml version="1.0" encoding="utf-8"?>
<svg version="1.1" focusable="false" xmlns="http://www.w3.org/2000/svg" xmlns:xlink="http://www.w3.org/1999/xlink" x="0px" y="0px" viewBox="0 0 378.4 505.8" xml:space="preserve">
	<path fill="#72C5A2" d="M81.3,285.9c25.8,26,51.7,52,77.5,78.1c9.7,9.8,20.9,14.8,34.8,13.3c15.4-1.7,26.5-9.8,32-23.8c5.5-14,4.5-28.1-5.9-40.2c-2.1-2.5-4.4-4.8-6.6-7.1c-42.7-42.8-85.3-85.6-128.1-128.3c-3.9-3.9-5.7-7.7-5.6-13.3c0.2-42.1,0.3-84.2-0.1-126.4C79,19.8,65.7,4.6,47.9,0.9C23.4-4.1,2,13.3,0.1,39.7C0,40.7,0,41.8,0,42.9c0,139.9,0,279.7,0,419.6c0,16.9,6.3,30.6,21.7,38.8c25.4,13.4,57.1-4.6,57.3-33.3c0.6-57.5,0.2-115,0.2-172.5c0-2.9,0-5.8,0-8.7C80,286.5,80.7,286.2,81.3,285.9z"/>
	<path fill="#ECB390" d="M297,241.6c-26-26.3-52-52.4-77.9-78.8c-11.6-11.9-25.5-16.3-41.3-11.6c-29.1,8.7-37.6,44.5-15.9,66.3c43.5,43.8,87.2,87.6,131,131.2c4.6,4.6,6.4,9,6.3,15.5c-0.3,34.6-0.6,69.1,0.1,103.7c0.6,30.2,34.7,48,60.1,31.8c13.8-8.8,19-22.1,19-38c0-84,0-167.9,0-251.9c0-55.4,0-110.7-0.1-166.1c0-23.9-13-39.7-35.1-43.3c-21-3.4-43,14-43.9,35.3c-0.7,15.4-0.3,30.8-0.3,46.2c0,50.8,0,101.5,0,152.3c0,2.1,0,4.2,0,6.3C298.3,240.9,297.6,241.2,297,241.6z"/>

</svg>
