<?xml version="1.0" encoding="UTF-8" standalone="no"?>
<svg
   xmlns:dc="http://purl.org/dc/elements/1.1/"
   xmlns:cc="http://creativecommons.org/ns#"
   xmlns:rdf="http://www.w3.org/1999/02/22-rdf-syntax-ns#"
   xmlns:svg="http://www.w3.org/2000/svg"
   xmlns="http://www.w3.org/2000/svg"
   width="1703.9104"
   height="1380.2681"
   id="svg2"
   version="1.1">
  <g
     transform="translate(319.35226,195.73622)">
    <path d="m 1098.0021,455.2953 c 0.85,0.46666 1.4751,1.36829 1.9902,0.51559 0.3212,-0.53171 0.3086,-1.50848 0.6331,-2.27207 0.1658,-0.39002 0.4195,-0.72444 0.8505,-0.91551 1.4655,-0.64962 4.4076,-0.46707 5.1951,-0.73363 2.9805,-1.0088 5.3175,-2.09919 7.0269,-5.7635 0.5363,-1.14953 -0.2334,-3.15983 -0.01,-4.43916 0.2943,-1.65949 3.5686,-2.28378 3.8221,-3.70036 0.2264,-1.26527 -0.3855,-2.85104 -0.3161,-3.74409 0.3525,-4.53183 0.2005,-8.08417 -2.322,-9.59765 -1.5624,-0.93743 -4.0257,-0.99083 -6.0993,-2.04205 -3.4052,-1.72625 -5.6305,-6.75828 -6.2848,-4.30478 -1.2384,4.64402 -3.3107,2.13501 -3.5604,3.87002 -0.3454,2.39987 0.4341,6.58541 -0.3693,8.21085 -1.6503,3.33876 -7.9463,0.099 -7.5255,2.16081 0.1186,0.58142 0.4099,2.48821 1.8003,4.26066 1.8524,2.36145 4.936,4.72439 5.1911,5.72029 0.2902,1.13258 -1.5239,0.8195 -1.3973,1.83935 0.1557,1.25351 2.1431,4.02109 2.2511,5.16906 0.4257,4.52212 -4.1539,-1.33317 -4.13,0.81254 0.01,0.50273 -0.1601,2.23054 1.245,3.45686 0.8427,0.73553 1.3797,1.15109 2.0093,1.49677 z m -10.6232,27.64313 c -10.3589,0.24665 -18.5528,3.29635 -27.0861,1.81789 -16.7134,-2.89571 -18.3322,-6.93481 -25.6042,-13.20693 -8.2561,-7.12084 -16.6465,-14.07299 -23.7997,-20.71682 -4.9572,-4.60426 -11.83007,-4.85855 -14.29456,-9.42048 0,0 0,0 0,0 0,0 -3.7127,-9.03961 -3.7127,-9.03961 -3.87701,-9.43969 -11.53211,-11.8075 -10.1929,-18.05715 0.53453,-2.49444 3.17668,-6.84569 3.80552,-9.51818 0.82807,-3.51923 1.61778,-6.00566 0.23255,-8.46519 -1.86313,-3.30805 -2.36468,-10.24402 -6.93132,-12.30678 -8.04034,-3.63185 -5.012,-7.62691 -5.89729,-11.99285 -0.52302,-2.57938 -1.15358,-5.68909 -1.82535,-9.00202 -0.51224,-2.52621 -4.43829,-6.1391 -4.96905,-8.7566 -0.77266,-3.81054 1.32188,-9.05425 1.22078,-12.14407 -0.18135,-5.54214 3.2089,-10.81255 0.20194,-11.76931 -1.94727,-0.61959 -4.79514,0.19981 -7.1077,-0.14226 -3.38287,-0.5004 -5.16879,-0.0742 -5.98826,-2.01423 -3.05355,-7.22909 1.41545,-6.97236 -0.28248,-9.74205 -1.1307,-1.8444 -3.71877,-3.47532 -5.10835,-5.74203 -1.22188,-1.99316 0.0967,-7.34299 -1.16892,-9.5082 -1.38831,-2.37508 -4.24199,-4.63055 -5.66562,-6.84978 -4.14924,-6.46806 -3.29969,-9.1374 -4.73499,-10.98224 -2.83803,-3.64781 -4.53569,-2.77123 -6.4272,-4.60711 -4.75437,-4.61453 -9.32099,-12.5891 -17.82764,-17.30329 -6.92664,-3.83858 -3.37676,-7.06738 -6.55966,-8.9535 -8.69188,-5.15062 -6.41283,-7.41408 -9.62457,-11.16243 -2.48521,-2.90045 -7.44652,-5.75491 -9.39408,-7.85191 -2.46974,-2.65925 -1.52507,-2.70392 -1.62844,-4.20276 -0.2064,-2.99282 -0.36639,-5.9892 -0.61921,-8.97845 -0.36973,-4.37147 -4.80335,-8.21168 -6.32728,-5.79224 -1.60612,2.54995 -3.76273,6.47457 -5.32335,4.78831 -2.11158,-2.28158 -4.4473,-4.42652 -6.40273,-5.34059 -1.75143,-0.81872 -2.70879,2.5617 -4.15704,2.52743 -3.9389,-0.0932 -6.3397,-5.60601 -8.80084,-3.60732 -2.66619,2.1652 -6.10507,5.37271 -8.50354,3.71824 -2.42542,-1.67306 -3.78335,-5.64206 -6.81008,-7.68019 -2.24623,-1.51256 -4.89802,-6.12671 -7.05549,-6.97516 -3.15462,-1.24059 -3.86139,-1.31248 -5.86476,-1.63932 -3.36747,-0.54938 -1.63062,-2.94961 -3.46878,-4.8612 -1.1293,-1.17441 -1.59713,-4.60925 -2.84413,-5.99819 -1.09769,-1.22264 -4.34658,-2.23782 -5.47576,-3.34892 -4.51527,-4.44302 -5.42707,-4.82123 -4.65631,-7.72834 2.59001,-9.76894 1.19934,-13.82271 -3.00281,-16.6824 -1.9037,-1.29552 -2.65351,-2.2529 -4.28033,-2.37163 -1.74338,-0.12724 -2.03598,3.35549 -3.71522,3.40562 -6.91443,0.2064 -14.96029,-1.00922 -21.73622,1.61213 -7.08266,2.74001 -12.73965,11.89574 -19.26216,11.19879 -4.04619,-0.43234 -6.50979,0.8114 -7.42221,-1.54526 -1.09429,-2.82641 0.009,-7.42894 -1.7935,-9.47216 -2.86826,-3.25082 -6.44107,-2.81105 -8.04803,1.1347 -1.76207,4.32664 -3.00149,14.40251 -5.2758,15.65339 -3.23571,1.77963 -7.17474,2.24822 -11.21146,3.78722 -3.68818,1.40612 -7.66361,4.51005 -10.09517,3.45087 -7.20358,-3.13785 -13.07732,-7.2842 -18.88021,-12.64052 -3.722,-3.43557 -6.80777,-9.81221 -4.63306,-13.67836 2.78641,-4.95362 15.34137,-12.47292 10.09686,-14.61265 -3.49111,-1.42435 -6.25525,-6.89875 -9.4804,-5.26597 -5.26323,2.66459 -9.68103,6.37021 -15.29322,6.00792 -4.37488,-0.28241 -11.72702,-2.40036 -12.88052,-6.62986 -1.85761,-6.81124 3.1718,-16.80759 -2.8423,-18.6961 -6.17341,-1.93852 -18.52021,-5.81557 -18.52021,-5.81557 0,0 -5.54085,4.0301 -8.66885,3.71522 -3.24708,-0.32687 -7.6087,-2.33927 -8.04964,-5.57283 -0.6192,-4.54082 5.45507,-14.36076 0.37646,-16.10477 -5.7206,-1.964464 -12.30661,3.00766 -10.70784,-0.18412 0.93904,-1.874689 1.74665,-7.475536 -2.61738,-7.135056 -4.26345,0.332632 -13.19701,0.23472 -11.99179,-4.276088 3.88367,-14.535461 -4.3923,-11.803314 -8.09804,-15.611294 -7.69919,-7.911625 -9.8427,-15.296425 -9.36045,-21.70386 0.69727,-9.264293 6.97755,-6.088439 6.71429,-9.259042 -0.20186,-2.431119 -1.5703,-7.439858 0.81214,-9.177698 1.60028,-1.167304 8.36847,0.139102 8.43278,-1.531102 0.10637,-2.762386 -1.32396,-3.683431 -2.26981,-6.997123 -0.22411,-0.785124 0.0106,-4.898186 -1.431,-6.194984 -0.99413,-0.894264 -2.23959,-1.75924 -3.60576,-2.574014 -1.2382,-0.738458 -1.83087,-6.6485006 -3.17011,-7.2889157 -1.3063,-0.6246649 -3.41001,3.1328297 -4.70485,3.1571727 -3.65693,0.06875 -3.00984,-2.9011864 -5.06437,-3.4210418 -8.88347,-2.2477753 -9.76532,3.2264338 -10.51549,6.1646148 0,0 -2.97876,11.666793 -2.97876,11.666793 -0.95454,3.738647 -8.13727,2.802296 -10.28096,0.128227 -1.24707,-1.555606 -4.83371,-5.855209 -5.97528,-9.383183 -1.7662,-5.458374 -3.47598,-10.5808362 -5.2986,-16.3751224 -1.40138,-4.4551189 -5.24989,-9.5596861 -9.90726,-9.9072515 -6.91443,-0.5160027 -13.66154,-0.3054935 -19.99861,-2.5409271 -4.00678,-1.413412 -7.49296,-5.902281 -11.90392,-8.493304 -3.07402,-1.805694 -3.434,-8.130343 -5.60359,-10.38586 -5.6977,-5.92337 -6.49027,1.577128 -9.89464,1.532424 -4.08739,-0.05367 -10.83311,3.184126 -17.50765,1.695985 -4.42314,-0.986173 -9.11036,-6.902592 -11.90766,-6.939324 -3.78115,-0.04965 -4.7565,5.529764 -7.57362,7.8153 -3.55266,2.882287 -6.93741,6.134073 -11.00906,5.311889 -13.10948,-2.647188 -12.85592,-4.75736 -18.08994,-8.994712 -5.6591,-4.581489 -11.3182,-9.162978 -16.9773,-13.744467 -2.37602,-1.923582 -4.35797,-5.676253 -7.23024,-8.001585 -2.55957,-2.072176 -7.47097,-2.931263 -8.07619,-6.43483 -2.009,-11.62994 -8.83432,-4.778329 -11.77885,-7.919038 -2.18414,-2.329662 -2.89303,-6.743592 -5.42996,-8.939936 -1.95272,-1.690561 -13.14536,-2.705205 -15.2012,-4.089575 -2.60413,-1.753585 3.96056,-5.062894 2.87411,-6.36935 -2.36598,-2.84511 -6.25588,-5.896428 -10.14304,-7.499872 -5.60454,-2.31186 -17.56045,-8.6574 -17.69126,-3.425083 0,0 -0.17552,7.020994 -0.17552,7.020994 -0.10139,4.055271 -3.89282,2.41161 -5.97254,2.072064 -5.05683,-0.825604 -9.72512,-1.138526 -11.30893,-4.934161 -2.11279,-5.063315 -3.83378,-18.859324 -7.56703,-14.838894 -4.02483,4.33442 -6.20916,12.802627 -10.67028,9.492771 -3.19921,-2.373613 -5.84385,-2.293386 -5.91162,-4.839011 -0.12026,-4.51728 -1.56629,-9.03196 -5.09995,-9.33923 -2.37361,-0.2064 -4.91018,-1.5078 -7.12084,-0.6192 -3.02754,1.21695 -5.84516,4.27096 -10.43039,4.98213 -2.41825,0.37507 -5.31142,-3.58287 -7.77355,-3.34829 -9.10112,0.86712 -16.40703,9.00759 -13.02437,14.394793 2.10691,3.355457 6.62677,6.754767 7.69436,11.363681 2.04039,8.808539 9.1674,14.918172 4.28495,15.086532 0,0 -5.09022,0.175525 -5.09022,0.175525 -6.88807,0.237519 -10.36983,0.969689 -12.98849,4.765851 -2.72875,3.955741 -0.33861,11.546923 -4.14917,14.67562 -3.85987,3.16918 -8.06234,3.537281 -10.8775,1.784445 -2.28997,-1.425825 -4.03309,-6.124854 -6.71441,-7.637095 -1.97623,-1.114574 -4.67739,-3.50087 -7.49914,-3.778299 -2.49422,-0.245229 -5.12267,1.637546 -6.84907,0.556499 -4.53674,-2.840839 -6.40927,-10.701711 -11.41384,-9.986773 -2.37714,0.339591 -7.7454,-0.828424 -10.87154,-0.381833 -4.47404,0.639149 -4.79977,1.192263 -6.46615,2.858645 -3.50882,3.508818 -9.25631,10.758078 -13.27194,7.780975 0,0 -10.61586,-7.870377 -10.61586,-7.870377 -4.10578,-3.043937 -9.81026,-0.292324 -12.20149,-2.767119 -1.78941,-1.85194 -3.2741,1.435355 -6.54694,1.325601 -2.20549,-0.07396 -8.49556,-5.538243 -10.06988,-3.419959 -1.70264,2.290943 1.04319,6.834327 1.13674,11.024905 0.10666,4.777505 -2.58172,3.92174 -3.03344,6.167941 -0.45285,2.25183 0.58505,6.429914 -1.64041,7.416122 -0.91099,0.403707 -1.40678,-3.119101 -2.50788,-3.627463 -1.70204,-0.78581 -3.4977,0.690129 -4.09803,-0.550545 -1.54801,-3.199217 -0.70156,-11.481139 -4.09492,-9.780682 -1.88735,0.945776 -2.2534,4.271163 -4.67175,5.393618 -2.35158,1.091469 -5.437172,-2.577259 -7.839447,-2.102141 -3.521254,0.696428 0.55132,4.186234 -0.320805,5.982926 -1.68493,3.471177 -6.242905,2.728481 -6.152982,5.471665 0.07969,2.431152 -0.69791,4.036605 -1.926796,5.07188 -1.377064,1.160107 -3.687825,5.081883 -5.632074,5.169758 -3.595309,0.162499 -5.153308,-6.494057 -6.823018,-4.370968 -0.991156,1.260286 1.525994,5.495645 2.258087,7.692834 1.074292,3.224211 2.060534,3.535203 0.837929,4.381629 -1.481305,1.025529 -11.066638,2.944944 -12.904681,4.217447 -2.086587,1.444574 -3.976087,5.162262 -5.657994,6.66238 -6.229428,5.556125 -7.180638,5.072405 -9.611072,8.6252541 -1.688134,2.4677424 -5.642997,4.0596546 -4.389609,7.74099063 3.325667,9.76784217 -0.195721,6.32972907 -6.432802,15.94259127 -5.552124,8.557176 -1.39961,2.444067 -12.629669,9.930773 0,0 -5.838909,3.932134 -8.785537,5.857025 -1.516078,0.990381 -3.201033,4.342526 -4.941865,3.843673 C 3.9495088,32.263332 2.3771184,29.752047 0,33.153689 c -2.7922185,3.995648 0.72298851,6.517245 0.77494589,9.79056 0.0610107,3.843672 -1.42903349,8.097428 -4.39276859,10.432825 -1.3818733,1.088904 -4.5157061,1.489356 -6.2932882,2.890075 -6.7603541,5.327099 -14.6766571,9.029463 -12.8864831,14.996711 0.619203,2.064011 1.622204,2.704167 1.125481,3.995648 -0.516003,1.341607 -0.570651,2.970809 -1.548008,4.024821 -5.263227,5.676029 -17.327304,16.179821 -15.057554,23.800271 2.059463,6.91444 0.939929,15.37792 5.629292,13.97112 2.064011,-0.6192 4.597329,-3.59539 5.09384,-1.8576 0.619203,2.16721 2.975874,4.54467 1.85761,6.50163 -0.825604,1.44481 -2.154059,2.70196 -2.476813,4.33442 -1.080627,5.46571 2.680145,11.61032 7.190944,12.55345 3.771682,0.78859 8.260435,-3.1662 11.8641412,-2.57609 7.3252013,1.19951 5.4148498,8.71356 3.8554335,12.93316 -1.7544092,4.74722 -0.5142404,12.49204 -5.2632277,14.24167 -2.058122,0.75826 -6.300588,-1.87883 -9.043061,-0.86845 -5.095938,1.87746 -7.132792,3.89215 -8.60423,7.37009 -2.270412,5.36643 -7.86686,10.36875 -6.811236,16.09928 0.722404,3.92162 3.208039,8.64773 0.336892,10.8497 -3.095288,2.37387 -10.066996,3.41871 -14.184513,6.57656 -7.151779,5.48492 -12.491442,6.42006 -14.341653,11.81651 -1.238407,3.61202 -2.993578,8.74771 -0.603675,11.93425 3.715219,4.95362 11.145658,14.86087 11.145658,14.86087 0,0 4.80342,5.09998 5.572829,8.35925 1.338127,5.6684 -0.267971,12.71431 -3.448436,17.88679 -5.910976,9.61317 -9.850488,13.99145 -16.634734,18.9558 -9.355287,6.8457 -21.092053,13.21968 -28.129941,14.85794 -3.878096,0.90273 -4.545048,1.13226 -6.798575,-2.58868 -2.09341,-3.45655 -4.64484,-7.48468 -6.7563,-10.77589 -2.36444,-3.68553 -3.97057,-3.91092 -6.55658,-4.43365 -9.62286,-1.94513 -21.59167,-2.1544 -26.51092,2.06605 -2.744,2.3542 -4.44596,13.5097 0.16939,14.11699 3.92162,0.516 6.53832,-1.16512 8.28725,0.99891 5.75963,7.12664 -3.028,11.19384 -7.43044,14.24168 -4.02482,2.78641 -7.19599,7.48274 -12.07446,7.07802 -3.85669,-0.31995 -9.60567,0.0434 -9.00762,3.43291 0.9528,5.40015 3.38268,11.80356 -0.6192,14.55315 -3.9119,2.68776 -7.3289,6.30057 -11.7357,8.06329 -2.58001,1.032 -6.51995,-0.7328 -7.19094,1.63175 -0.82961,2.92352 0.0478,7.10944 -1.0551,10.99618 -1.88444,6.64073 -3.46681,9.13911 -6.60119,12.7594 -5.05745,5.8415 -5.63478,9.59443 -10.2305,9.28805 -2.94321,-0.19622 -5.71944,-1.47626 -8.03287,-1.2232 -1.33688,0.14623 -2.15347,1.41398 -3.70282,2.12471 -1.21826,0.55885 -3.80224,0.37562 -3.71764,2.9179 0.0737,2.21374 -0.1505,4.37684 1.2973,5.45499 4.85042,3.61202 11.30008,8.47594 10.89063,13.58154 -0.32888,4.10089 -0.90874,8.48414 -3.90643,12.89636 -3.7884,5.57606 -9.799,10.97979 -5.83143,13.48988 5.05683,3.19922 9.56594,4.09152 10.96074,8.49946 3.67366,11.60975 16.97565,24.20739 11.02097,34.82924 -2.59167,4.62298 -4.23254,12.09605 -7.68781,18.25951 -1.98901,3.54795 -5.78007,12.28239 -7.81316,15.34906 -4.84235,7.30407 -8.22339,5.81057 -5.57923,9.45522 1.70201,2.34602 5.26328,5.4844 7.06501,8.03976 2.24038,3.17752 0.41187,4.52332 1.46174,6.4687 0.40538,0.75116 4.40313,-0.3082 5.7576,1.61384 2.41223,3.42305 -3.8766,2.74275 -3.99382,5.36018 -0.0905,2.02003 3.08838,2.40806 4.41917,3.71452 2.16319,2.12363 1.49194,4.47577 -0.0337,5.48085 -6.93514,4.56875 -6.63404,14.30155 -1.40402,14.80442 3.65876,0.35179 3.66455,2.42151 4.38712,4.34994 0.95188,2.54046 0.81743,5.66255 2.03939,8.31803 0.92761,2.01579 7.67193,3.6085 8.84457,5.55778 1.72949,2.87491 -2.51757,3.36573 -2.10379,4.55873 0.60541,1.74554 4.16349,2.08725 4.76631,3.53802 1.78166,4.28782 0.34259,5.95061 0.0351,8.90198 -0.21186,2.03322 0.15085,7.16369 -3.42318,11.90099 -1.81639,2.40758 -1.83557,6.81449 -2.4948,9.30887 -1.87269,7.08589 -3.98789,8.99011 -1.1464,11.67801 2.19687,2.07812 4.90513,3.94089 6.99137,6.21075 1.5399,1.67544 2.32434,3.98923 4.46389,4.62531 3.81842,1.13521 9.558,1.91198 10.72313,5.41897 3.21414,9.67439 -1.72943,5.09734 -1.61368,9.49686 0.0328,1.24485 1.1698,3.78242 2.0362,4.58907 5.98563,5.57283 13.47091,9.88035 17.9569,16.71849 4.48624,6.83852 4.02667,15.56066 3.75803,22.89499 -0.063,1.71968 -4.64265,0.19238 -4.37325,3.02209 0.16232,1.70503 1.65129,2.77875 2.38093,4.4792 0.91053,2.122 -0.5619,3.72778 0.10022,5.31047 0.61434,1.46847 4.90855,0.0956 6.69188,1.52919 3.77618,3.03568 2.37578,8.47337 1.76978,12.75199 -0.54018,3.81385 2.61505,6.00504 4.46506,8.68251 2.45918,3.55911 -2.88839,6.15792 -2.15158,7.75457 1.38922,3.01043 4.60566,5.49769 7.01266,8.2944 2.72691,3.16841 0.32688,6.34946 1.20498,7.86729 0.94831,1.63918 3.7452,1.5283 4.69996,2.95291 0.75904,1.13259 0.004,4.61162 0.66237,5.66233 0.65092,1.03958 4.04217,-0.23911 4.66435,0.56736 1.0761,1.39484 -0.67431,3.67335 -0.30883,4.83722 0.62142,1.9789 2.86503,1.20712 2.86041,2.46599 -0.0195,5.11909 1.72188,5.86262 2.5041,4.37536 0.74165,-1.41014 3.95305,1.81611 5.31826,3.83648 3.85833,5.70993 6.11289,11.90833 7.038519,18.4139 1.803031,12.67218 -0.804829,17.99464 -7.037089,21.36063 -2.0809,1.12387 -5.47078,-0.16017 -7.773,1.24165 -1.46949,0.89476 -1.82962,2.68613 -2.85463,3.89897 -1.76042,2.083 -3.58514,1.55452 -4.24689,3.34708 -1.45971,3.95408 2.9329,7.6615 2.21003,11.49619 -0.55364,2.93698 -1.05529,6.14438 -3.30822,7.89578 -1.73229,1.34667 -6.50971,-0.0837 -8.80594,1.70135 -3.67896,2.85999 -4.93691,6.31643 -7.46273,8.62843 -1.65887,1.51843 -0.79408,4.03148 -3.12331,6.74112 -0.70485,0.81997 1.1604,2.28128 0.81588,3.39197 -0.37971,1.22414 0.10035,3.34623 -1.13912,3.67241 -1.96081,0.516 -4.22569,0.37914 -5.88243,1.54801 -7.38559,5.21068 -3.40133,5.97138 -5.50084,8.67684 -1.35997,1.75248 -0.37039,3.12444 -0.60477,5.26532 -0.28717,2.62315 -4.72849,5.44613 -3.82729,7.5836 1.04341,2.47475 3.18724,3.10806 4.05047,5.09998 1.24588,2.87489 1.85994,4.38756 1.37368,9.29881 -0.14301,1.4443 -2.99696,2.76668 -3.03822,4.24426 -0.0262,0.9392 1.22919,2.04636 1.20447,2.93148 -0.0375,1.34341 -0.0725,2.59693 -0.10268,3.67684 -0.0711,2.54795 4.36172,2.10291 7.45773,1.6901 3.33612,-0.44481 4.30346,3.16249 8.1213,6.49337 3.26201,2.84594 7.33728,4.61778 9.87653,6.83315 1.56256,1.36325 3.79693,3.32579 3.59053,5.0802 -0.13094,1.11298 2.14839,0.63865 3.22259,0.95797 2.00604,0.59634 3.39523,0.34243 5.23601,3.46447 1.33312,2.26102 1.07659,4.91497 2.54049,6.71395 2.72286,3.34611 4.6376,2.65593 6.73195,5.22968 1.66506,2.04618 -1.06838,5.66809 -1.68758,7.7321 -0.64347,2.14487 4.28772,2.49533 5.91105,4.6213 1.49533,1.95834 1.71715,3.16182 -0.13644,6.18422 -0.82272,1.3415 2.01159,2.19522 3.216846,2.44517 2.767295,0.57391 5.962262,1.38898 8.302781,1.7174 1.075352,0.1509 1.939242,1.25907 1.471585,2.90634 -0.436651,1.53806 -1.652854,3.04849 -1.18438,4.55452 0.949419,3.05216 3.361014,0.0969 5.947645,6.92104 0.716535,1.8904 -1.285145,4.0345 -2.110749,5.6857 -0.777559,1.5551 1.866324,0.8706 4.050732,1.5094 1.820337,0.5324 3.041961,2.431 4.308512,3.1347 1.712604,0.9515 2.093494,-0.9552 5.787795,-1.0228 4.113588,-0.075 10.036355,0.6867 13.602297,-0.3986 1.778855,-0.5415 2.929163,1.463 5.448217,2.8334 1.348607,0.7336 3.619079,0.331 5.222571,1.0183 1.553498,0.6658 2.447252,2.4221 3.333276,3.0997 2.669033,2.041 2.51963,7.8861 3.138833,11.1885 0.463461,2.4718 3.09294,2.448 4.582833,5.9933 0.616605,1.4672 -1.619961,3.5774 -0.37836,5.0588 0.754219,0.8999 5.188624,0.8841 5.96504,1.7544 2.347513,2.6314 4.71926,4.9968 6.648254,6.305 1.747387,1.185 1.129752,-2.2749 6.080618,-1.7734 2.167374,0.2196 4.307495,1.7264 7.560085,1.921 4.1768963,0.2499 14.3026605,-2.172 18.7253682,-0.3307 2.735842,1.139 1.4214384,4.0736 2.0406416,9.1305 0.2059632,1.682 -2.3884519,3.3573 -4.0365148,5.5045 -1.9259036,2.5093 -2.8940513,5.5292 -1.6765283,7.9232 0.9084389,1.7863 1.5194073,2.1067 0.6759218,5.9739 -0.2950368,1.3527 -2.2923109,2.5411 -3.1185505,4.1914 -0.90054776,1.7987 -0.62889079,4.0489 -0.8107233,5.1853 -0.34802062,2.1751 4.4486919,-1.0242 6.8569457,2.7178 1.4204239,2.207 1.7442273,6.1576 4.2051336,6.8457 1.014819,0.2837 3.937018,-5.3975 4.83817,-5.1503 0.95618,0.2623 1.822642,0.4964 2.544803,0.6861 2.280344,0.5991 2.190429,-1.8121 5.620788,-1.1748 1.708039,0.3173 1.90572,2.9375 3.733558,2.4262 3.014388,-0.8433 2.698895,3.17 7.342919,5.8532 1.424087,0.8228 0.619733,-3.0626 3.71461,-3.2476 1.226002,-0.073 3.766277,3.0826 5.403243,2.8381 2.79961,-0.4182 4.187781,-3.2773 10.14567,-2.5035 3.169301,0.4116 4.586764,4.9515 7.88965,8.2044 2.516553,2.4785 7.942259,2.6363 10.864593,5.8177 1.837244,2.0001 2.777976,5.0549 4.52686,6.7963 1.370825,1.365 4.297502,2.2729 5.416334,3.387 1.602699,1.5959 2.250356,2.1568 5.15133,2.2818 2.479035,0.1069 3.602871,-2.4114 6.033837,-1.9366 2.152501,0.4205 1.60636,3.1711 3.532439,2.8673 2.414561,-0.3808 2.969781,-2.0112 4.487511,-4.252 0.93926,-1.3867 3.31462,-0.5223 4.92439,-0.8882 1.06667,-0.2425 1.93164,-1.7883 2.9488,-2.0771 1.37672,-0.3907 2.69693,-0.8257 3.93046,-1.3098 2.97591,-1.168 0.45581,-8.3023 2.78628,-9.2169 2.39155,-0.9387 4.13618,1.4561 7.66536,-0.8047 0.80358,-0.5148 -0.42483,-3.4649 0.26106,-4.0726 1.24304,-1.1014 2.44383,1.2869 3.57338,0.2291 1.27408,-1.1932 2.09699,-3.6082 3.16063,-4.6498 2.88864,-2.8287 -4.30015,-8.9678 2.34648,-13.5622 2.29839,-1.5887 5.57283,-0.4128 8.35924,-0.6192 2.09471,-0.1552 0.58649,3.2386 4.60387,4.3025 2.94549,0.78 8.32778,-0.2862 13.69556,-1.2493 2.1613,-0.3878 0.81023,1.6188 6.34025,1.7876 2.2917,0.07 4.08202,-1.3279 6.26463,-2.84 2.0174,-1.3977 5.90915,-2.1674 7.78129,-4.1805 0.86413,-0.9293 0.0436,-3.1077 0.77402,-3.913 1.86111,-2.052 3.94238,-0.7454 8.84544,1.3611 1.56045,0.6705 4.72147,-2.4378 6.47547,-2.1273 1.42875,0.2529 1.64904,2.3495 3.08777,2.5577 2.3743,0.3436 4.26762,-0.25 6.40597,0.044 2.0161,0.2775 0.61351,5.9558 4.76688,3.3281 0.96891,-0.613 1.44157,-3.8919 4.88499,-3.817 3.56523,0.077 4.32473,-2.1996 6.21827,0.2255 1.15997,1.4856 3.51445,-0.8904 5.60593,-1.4003 0.82344,-0.2008 2.99618,-0.6039 4.37868,-1.5866 1.24119,-0.8822 1.69384,-2.3576 2.48225,-2.5465 4.51239,-1.0809 5.60683,3.5364 8.62846,3.0877 4.58043,-0.6802 2.52664,-6.2165 5.93285,-7.0757 1.37289,-0.3464 3.34254,2.1951 4.9263,2.0094 1.45941,-0.1711 1.88664,-2.2411 3.41229,-2.4945 2.50097,-0.4154 6.6905,0.061 9.38104,-0.8889 1.76482,-0.6231 2.09093,-2.7418 3.65153,-3.0407 2.61799,-0.5014 4.61642,0.9726 6.2618,-0.148 1.438,-0.9793 2.56686,-2.7495 3.71365,-3.7424 1.41618,-1.2261 2.93819,-0.8743 3.97795,-2.0114 4.78129,-5.2287 1.57759,-11.0637 6.11163,-10.6268 1.27064,0.1224 3.95898,0.1086 4.33443,-1.3932 0.47261,-1.8905 0.33707,-5.3109 1.00229,-7.3025 0.6421,-1.9223 1.04034,-2.6606 2.09372,-2.4499 1.66406,0.3328 5.19618,0.5173 7.27039,0.2665 2.74971,-0.3324 3.20453,-1.2989 3.41087,-2.7433 0.3416,-2.3912 1.09501,-4.1706 2.06877,-5.4904 0.73537,-0.9967 2.84594,3.7147 3.42946,2.839 2.42169,-3.6339 3.05376,-5.0602 5.64742,-5.5531 3.23891,-0.6155 1.50634,1.8837 3.83885,3.1338 2.48951,1.3342 6.0742,2.6898 8.03433,5.1582 3.22009,4.0551 2.21481,-0.036 3.2973,-0.2423 2.19711,-0.4197 1.57536,4.6875 4.36609,4.1544 1.35594,-0.259 3.52733,-1.4801 4.57238,-5.0933 0.80307,-2.7765 3.4305,-3.1451 4.0648,-1.6927 1.25254,2.8681 4.2377,-2.0741 6.81379,-2.0376 1.39819,0.02 2.89171,0.8715 4.46208,0.7121 1.45964,-0.1483 3.00673,-1.3175 4.0682,-1.0804 0.66445,0.1485 0.76227,1.8103 1.24166,1.9305 1.15982,0.2906 2.29927,-0.9303 2.76437,0.011 0.70052,1.4177 0.15686,3.0615 3.56748,4.4869 1.73223,0.724 0.74147,3.4073 1.07676,5.0956 0.45293,2.2806 1.18066,4.7356 1.85739,3.5755 0.44259,-0.7587 1.3471,-1.6734 1.45233,-3.1027 0.23828,-3.2367 -0.42709,-7.1956 2.8821,-4.3277 1.47958,1.2823 1.79814,4.7082 2.98069,6.8745 1.16959,2.1425 3.28129,3.2723 3.83054,1.9491 0.59062,-1.4229 0.0953,-3.8956 0.82091,-5.6436 0.66901,-1.6117 5.01765,0.075 7.07393,1.3092 1.04342,0.6261 2.69675,0.5654 3.97032,1.3296 1.22835,0.737 3.60769,3.3977 4.91973,4.2284 0.77653,0.4916 3.55816,-1.3516 4.31233,-0.8885 1.69563,1.0411 2.54173,4.1926 3.77426,5.2956 3.21901,2.8806 3.99735,1.4906 5.46948,0.4066 0.66884,-0.4925 0.13868,-2.0977 0.87936,-2.6431 0.6194,-0.4561 2.96768,0.4673 3.63481,-0.014 0.78891,-0.5687 0.36243,-1.9327 1.19098,-2.539 1.28575,-0.9407 4.17413,-2.0661 5.54217,-3.049 1.41287,-1.0151 3.75962,-1.1121 5.15902,-2.1298 1.52623,-1.1099 1.61439,-5.3292 3.02748,-6.4342 0.43871,-0.3431 2.73309,0.7191 2.85708,-0.064 0.22079,-1.3955 0.30573,-4.1023 1.28035,-3.5165 1.44214,0.8668 2.87986,1.711 4.20768,1.3479 1.32627,-0.3627 1.61409,-2.0391 2.61597,-3.0391 1.68719,-1.6841 3.60594,0.3718 4.43528,-1.2941 0.53136,-1.0673 0.35375,-6.0069 0.98592,-7.3219 0.53563,-1.1141 2.66024,-1.5855 3.25571,-2.6372 0.89327,-1.5775 0.033,-7.6404 0.796,-9.1172 0.61685,-1.194 2.6925,-0.4665 3.36346,-1.0274 1.88189,-1.5732 -0.29578,-4.0719 1.19656,-4.5096 1.05553,-0.3096 3.44541,1.0554 4.66669,0.6972 2.16579,-0.6353 6.52451,-5.56818 8.9192,-6.37754 2.83985,-0.95981 7.4738,0.28704 10.0335,-0.32085 3.23891,-0.7692 3.92246,-2.13048 5.76057,-2.89876 2.3912,-0.99946 2.57735,-3.08019 3.90221,-2.8649 2.6283,0.4271 4.7001,1.91897 8.20272,2.48814 3.24838,0.52786 6.01647,0.11274 8.98846,0.34999 3.88976,0.31051 5.44296,-0.22096 7.57695,1.18669 0.93385,0.616 0.94778,2.09885 1.78251,2.84366 1.0629,0.94839 3.0136,-0.44284 4.72744,0.37609 3.4121,1.63041 3.98223,9.08838 4.94531,6.53268 0.57256,-1.5194 1.69526,-4.00887 3.01253,-5.23325 1.19451,-1.11029 3.55652,-1.16647 4.87135,-2.30531 0.83194,-0.72059 0.27354,-1.76213 1.10162,-2.49525 0.4889,-0.43284 2.8396,0.0642 3.33402,-0.36471 0.56424,-0.48943 0.80751,-2.994 1.34695,-3.48499 1.04502,-0.95116 4.5262,-0.90568 5.4714,-1.71526 1.22179,-1.04648 1.22309,-2.81608 1.92917,-3.7077 1.82442,-2.30388 2.35551,-4.10867 3.85589,-5.92603 0.61889,-0.74964 0.25871,-2.2451 1.0337,-3.18383 1.44699,-1.75269 2.1462,-1.77632 3.80153,-3.4361 2.7064,-2.71367 1.9846,-7.99015 5.07202,-7.77656 1.64386,0.11373 4.70068,-0.52376 6.80529,-0.37816 1.68484,0.11656 4.8035,1.0441 6.48547,1.21508 3.2839,0.33382 5.13888,-1.61883 7.12441,-1.4868 2.06739,0.13748 2.33563,2.21323 3.73376,2.9719 0.68814,0.37342 2.15357,1.09681 3.38859,1.03769 1.43804,-0.0688 2.67385,-0.9232 3.71335,-0.35914 1.12974,0.61303 1.00575,2.08196 2.07794,2.81374 1.24118,0.84713 4.04195,1.23665 5.23251,2.04753 3.88329,2.64486 2.79342,3.72427 4.1637,5.60584 0.77776,1.06797 1.52434,3.04676 2.77811,4.18894 1.12394,1.02393 2.74668,1.19315 3.65811,2.44467 1.26054,1.73089 0.98759,2.80421 1.64674,4.24506 0.6958,1.52097 0.93314,3.32967 2.2887,3.363 2.46665,0.0607 4.03016,-2.03699 5.53979,-1.96244 1.25881,0.0622 2.40424,1.7205 3.70805,1.86389 1.50353,0.16534 3.7916,-1.85047 5.25589,-1.71381 1.04792,0.0978 0.80914,1.18067 1.74621,1.36882 1.06407,0.21364 1.44538,-1.42921 2.35337,-1.22568 1.44641,0.32421 1.14249,1.83334 2.1996,1.82243 2.61882,-0.0286 2.85828,-2.86179 4.40428,-2.20077 0.9315,0.39828 -0.53028,2.2657 -0.12946,3.28597 0.23404,0.59573 1.25816,1.3872 1.52105,2.05637 0.23908,0.60857 -1.37237,1.39812 -1.12117,2.0528 0.29901,0.77929 2.32161,1.43088 2.65642,2.25401 0.37635,0.92524 -1.70046,3.33615 -0.76115,5.76095 1.67615,4.3268 5.26073,2.1211 5.35334,3.3959 0.37955,5.2247 1.87182,5.4763 4.27117,6.3069 1.29272,0.4475 3.5991,0.3728 5.91575,0.6393 1.95291,0.2246 3.91311,0.8707 5.27954,0.4752 3.74157,-1.0831 2.39766,-4.7366 4.43959,-4.3653 1.76286,0.3205 3.28698,-0.1254 5.58772,0.4802 2.144,0.5645 4.90194,3.6811 5.39535,0.6112 0.49808,-3.099 -1.89641,-7.5399 0.78179,-8.5219 0.73143,-0.2682 1.33033,1.4022 2.20394,1.0819 0.77681,-0.2848 6.08873,0.9187 6.93771,0.5602 1.10458,-0.4665 0.58005,-2.8913 1.49113,-3.504 0.83537,-0.5618 0.0797,-2.96428 0.77298,-3.55509 2.15229,-1.83425 2.85828,2.83819 4.22245,2.72169 1.51008,-0.129 1.71198,-2.96683 2.94789,-4.11591 1.30275,-1.21123 3.82369,-3.8452 3.30393,-5.12245 -0.45656,-1.12191 -2.10866,-1.51611 -3.52243,-2.27233 -2.81126,-1.50371 -1.0715,-2.94008 -0.0626,-3.04099 1.01123,-0.10115 2.79873,2.52226 4.00661,2.40145 0.9649,-0.0965 1.20528,-1.10501 2.23358,-1.26523 3.69107,-0.57512 3.06662,-1.51919 6.58462,-2.02744 5.25333,-0.75895 6.83069,0.70279 9.38115,0.40211 2.82897,-0.33351 5.01252,-2.61402 4.77605,-3.93922 -0.22236,-1.24613 -2.69066,-2.63288 -4.20729,-4.30921 -2.64218,-2.9204 -3.34098,-7.69309 -1.78143,-9.99203 1.20427,-1.77521 1.55599,-4.72762 2.97055,-6.80691 2.05991,-3.02789 4.1124,-6.13716 6.4055,-9.32 1.57253,-2.18268 1.41186,-6.76061 2.95648,-8.84287 1.06384,-1.43415 4.01292,0.30174 5.08954,-0.91842 5.54743,-6.28708 5.31488,-9.02402 8.92518,-12.74921 3.7433,-3.86242 12.09983,-0.39096 14.40426,3.84668 1.66998,3.07098 -1.21469,6.80231 0.85045,8.994 0.70124,0.74421 4.53662,2.04664 5.68083,-0.0971 1.07862,-2.02086 2.596,-2.1832 3.63642,-0.81 1.65175,2.18005 2.43005,3.7009 4.30845,3.6372 1.54563,-0.0524 2.52225,-2.33175 5.1971,-2.03513 2.89553,0.32109 7.80946,-4.06326 5.87666,-5.78003 -1.1848,-1.05237 -2.72596,-1.86664 -3.38921,-3.39884 -0.56396,-1.30285 -1.08686,-3.41699 -0.66995,-5.06987 0.40219,-1.59453 1.16977,-3.95955 2.35888,-5.93699 1.40889,-2.34293 1.99965,-3.08881 3.01381,-4.6238 0.65945,-0.99812 3.7065,-0.68331 4.44025,-1.9841 2.05391,-3.64119 3.08107,-8.56545 3.92542,-10.23043 2.82032,-5.56146 3.31095,-5.13178 5.91678,-6.14264 1.8306,-0.71013 7.50303,-1.93702 9.70895,-2.77491 1.00436,-0.38149 2.02426,-4.82139 3.05364,-5.21697 1.76046,-0.67653 8.58386,2.62559 10.36952,2.02549 2.13536,-0.71763 4.36114,-3.44842 6.22701,-4.22047 0.85051,-0.35193 2.43636,0.18373 3.2242,-0.14387 1.01603,-0.42249 1.5303,-1.93156 2.41917,-2.33382 6.51186,-2.94695 6.23189,-3.19137 9.84897,-3.48786 2.01547,-0.1652 4.34784,0.93024 7.03409,0.71005 5.70411,-0.46755 9.9204,-1.84137 12.3989,-4.99457 3.58806,-4.56479 5.02426,-10.25438 9.88848,-12.16192 2.51163,-0.98495 6.84578,-0.7036 9.9658,-1.92713 3.13695,-1.23018 8.76295,-4.93093 11.90487,-6.62483 2.80722,-1.51346 5.22193,-1.11573 7.31523,-1.97221 5.44873,-2.22936 5.41257,-5.34454 8.60383,-6.80396 1.09385,-0.50024 2.18904,0.5386 3.39069,-0.33003 1.69071,-1.22216 0.77191,-3.37955 2.02911,-3.21661 1.45312,0.18833 3.16061,0.40962 4.98889,0.64657 0.75026,0.0972 1.4388,3.81103 2.1931,3.58224 1.18974,-0.36087 0.38134,-5.70788 1.73957,-4.723 1.14259,0.82851 2.06934,1.64441 2.86244,1.25088 1.12611,-0.55877 1.78224,-2.24418 2.80529,-1.80385 1.63691,0.70455 2.19605,2.422 3.52753,2.48566 0.87409,0.0418 1.59419,-1.79748 2.12842,-1.30971 1.09513,0.99991 2.45122,1.9187 3.27964,3.2707 0.69168,1.12885 3.23494,0.0818 3.89998,0.8484 1.28802,1.48469 0.9515,4.51194 1.85116,6.06226 2.42404,4.17719 3.80584,4.95658 6.30806,4.83699 1.85107,-0.0885 2.11639,-2.96353 3.75901,-3.69004 1.14613,-0.50693 7.66642,0.51614 8.23785,1.72758 0.60137,1.2749 2.04581,4.0283 2.50125,2.76106 0.16354,-0.45504 -0.38716,-1.95024 -0.4243,-3.2792 -0.0407,-1.45605 0.44199,-2.74358 0.91249,-2.99273 0.94559,-0.50072 4.79643,-4.93941 5.90308,-5.5336 1.64998,-0.88592 2.60831,1.24904 3.76793,0.97947 2.25624,-0.52451 3.98083,-2.82101 3.98083,-2.82101 l 0.0595,-6.79916 c 0,0 1.40514,-2.69127 2.10771,-4.0369 0.95833,-1.83549 3.99479,-1.1967 6.0577,-1.37513 2.92723,-0.2532 6.75016,2.54822 8.8032,0.44633 0.8774,-0.89832 6.8861,2.82034 8.0109,1.66875 1.4176,-1.45137 -0.8117,-5.98403 -0.078,-8.10913 1.5601,-4.51816 2.2788,-6.31418 5.0703,-6.87249 3.096,-0.6192 8.9118,1.27721 9.288,-1.85761 0.3096,-2.58001 -0.5222,-5.5844 0.9288,-7.74004 0.805,-1.19595 2.441,-1.76711 4.1184,-2.99217 1.2785,-0.93376 2.5135,-2.58562 3.8212,-3.1928 0.9914,-0.46036 2.426,0.15973 3.2816,-0.10347 2.2281,-0.68536 2.6762,-0.68916 3.3301,-1.7612 0.7786,-1.27648 -0.4039,-2.27681 -0.081,-3.20846 0.2652,-0.76609 1.8542,-2.36931 2.1705,-3.17311 2.0099,-5.10717 1.7052,-6.85702 1.8695,-10.36341 0.1253,-2.67438 -1.0432,-5.7528 0.3758,-8.02315 0.9162,-1.46584 3.8532,-1.48383 5.0412,-3.38455 1.4884,-2.38146 1.5603,-4.96226 1.4737,-7.16839 -0.2064,-5.26322 -1.9666,-11.48298 -0.1349,-16.27394 1.3071,-3.41886 9.6025,-9.51383 9.2483,-13.96928 -0.3996,-5.02593 -1.6164,-7.64609 -2.0058,-11.52651 -0.5505,-5.4856 4.7213,-8.46249 2.3841,-10.96847 -1.0164,-1.08974 -0.2974,-4.25913 -1.8614,-5.39491 -2.8351,-2.05884 -8.9135,0.72199 -8.0061,-1.86339 0.9465,-2.69646 1.1633,-8.67819 3.9694,-9.21932 8.5895,-1.65646 7.7586,-2.43219 8.4966,-5.7765 1.3214,-5.98836 -4.095,-7.87827 -2.8154,-11.66965 0.4742,-1.40496 2.9661,-1.59622 3.5605,-3.3573 2.8983,-8.58762 2.382,-14.97049 4.153,-21.2494 0.7364,-2.61061 4.7534,-3.47665 7.457,-3.25744 3.8184,0.3096 7.6599,1.44973 11.4552,0.9288 5.2632,-0.7224 11.4733,-0.254 15.6283,-3.62 5.0074,-4.05656 15.5251,-16.96941 21.9634,-16.68949 3.6673,0.15945 9.642,8.21806 12.3829,9.57767 2.5811,1.28041 4.3531,-2.2152 5.4284,-0.7392 0.8308,1.14046 1.2568,2.53087 1.3625,3.90564 0.4799,6.23702 -2.3314,13.72003 1.4396,18.71104 3.5088,4.64402 4.9088,9.29487 8.2666,13.28638 3.1507,3.74528 13.4933,12.75726 18.3302,4.45613 2.1564,-3.70075 0.4476,-8.24554 2.8154,-7.21605 2.3736,1.032 4.9084,3.63214 7.1208,2.2889 1.3691,-0.83122 1.908,-2.04281 3.2391,-2.96864 0.8802,-0.61218 3.8587,-0.26949 4.7398,-0.90353 1.4391,-1.03556 3.7965,-4.05463 5.1574,-5.15151 1.4664,-1.18187 8.0255,-2.30031 9.3908,-3.34873 2.8056,-2.15454 4.8642,-3.85196 6.459,-5.35794 1.4315,-1.35179 3.3915,-1.92949 6.8193,-2.19261 4.7239,-0.3626 8.4583,4.33895 10.2194,1.38659 1.1276,-1.89036 0.618,-5.95081 0.4808,-9.13127 -0.322,-7.46581 -6.1764,-7.40881 -5.1381,-11.46637 1.3521,-5.28362 7.9732,-6.10376 10.9974,-10.03968 1.852,-2.41022 4.6419,-4.81235 6.5756,-8.51571 1.4357,-2.74953 2.9567,-8.96957 4.1908,-11.91747 3.7793,-9.0276 3.9556,-8.73421 3.4753,-13.28691 -0.7364,-6.98148 4.3402,-13.18725 1.8261,-16.58607 -2.5924,-3.50483 -6.0942,-5.33614 -9.4616,-9.56901 -3.1509,-3.96065 -4.5775,-8.10294 -7.3022,-12.46603 -4.9451,-7.9184 -8.4452,-8.52153 -11.4398,-11.92808 -4.4523,-5.06465 -4.4905,-7.12379 -7.4643,-8.96052 -1.3803,-0.85258 -2.9823,-1.85413 -4.6652,-2.91305 -1.3738,-0.86442 -0.5416,-2.7356 -1.9469,-3.62666 -1.5057,-0.95479 -6.5374,-1.98829 -8.1347,-2.75352 -4.3694,-2.09341 -6.1832,-1.22698 -8.8888,-2.74152 -2.4934,-1.39573 -6.6269,-4.10456 -10.2695,-2.15418 -4.205,2.25154 -10.6141,1.91207 -15.2088,2.60214 -9.9777,1.49857 -14.7071,2.17639 -19.173,-1.69708 -1.2219,-1.05985 -2.1087,-3.35347 -3.5579,-4.56702 -3.3305,-2.78896 -6.9896,-7.92081 -10.3771,-10.36433 -5.0921,-3.67313 -7.6782,-1.99825 -9.5286,-5.08682 -1.0857,-1.8121 -0.4476,-8.12378 -1.8947,-10.53914 -2.7454,-4.58242 -4.8952,-5.31908 -8.0258,-6.98646 -6.5598,-3.49389 -7.108,-3.52153 -10.9627,-4.18624 -4.5614,-0.78658 -7.1028,0.16142 -13.8826,0.32284 l -10e-5,0 z M 736.08621,981.24106 c -2.58002,-3.81842 -3.63318,-4.92087 -1.28186,-5.98222 1.42905,-0.64505 3.17203,0.17679 4.91645,1.37775 1.39801,0.96247 3.03189,2.05099 2.75112,3.70045 -0.34324,2.01648 -5.24053,2.59889 -6.38571,0.90402 z" />
  </g>
</svg>
