<?xml version="1.0" encoding="utf-8"?>
<!DOCTYPE svg PUBLIC "-//W3C//DTD SVG 1.1//EN" "http://www.w3.org/Graphics/SVG/1.1/DTD/svg11.dtd">
<svg version="1.1" xmlns="http://www.w3.org/2000/svg" xmlns:xlink="http://www.w3.org/1999/xlink" x="0px" y="0px" viewBox="0 0 1000 1000" enable-background="new 0 0 1000 1000" xml:space="preserve">
<metadata> Svg Vector Icons : http://www.onlinewebfonts.com/icon </metadata>
<g><g transform="translate(0.000000,511.000000) scale(0.100000,-0.100000)"><path d="M4176.8,3291.2c-8.2-6.1-14.3-38.8-14.3-69.4c0-36.7-12.3-61.3-38.8-69.4c-44.9-14.3-145,20.4-145,51c0,10.2-14.3,20.4-30.6,20.4c-16.3,0-30.6,10.2-30.6,20.4c0,12.3-12.3,20.4-28.6,20.4c-22.5,0-28.6-28.6-26.5-126.6c4.1-126.6,2-128.6-53.1-134.7c-30.6-4.1-69.4,8.2-87.8,24.5c-40.8,42.9-69.4,40.8-69.4-4.1c0-18.4-18.4-47-38.8-59.2c-22.5-14.3-42.9-47-47-71.5c-4.1-34.7-20.4-47-57.2-47c-30.6,0-51-12.3-53.1-30.6c-4.1-71.5-10.2-81.7-38.8-81.7c-16.3,0-30.6-8.2-30.6-20.4c0-10.2-10.2-20.4-22.5-20.4c-26.5,0-79.6-51-79.6-77.6c0-12.3,12.3-24.5,26.5-30.6c18.4-8.2,18.4-14.3,0-34.7c-20.4-22.5-47-22.5-122.5-6.1c-81.7,18.4-100,18.4-114.3-6.1c-10.2-16.3-24.5-24.5-36.8-18.4c-26.5,18.4-85.8-47-67.4-75.5c10.2-16.3,4.1-18.4-20.4-10.2c-20.4,8.2-44.9,14.3-55.1,14.3s-18.4,18.4-18.4,38.8c0,65.3-44.9,73.5-89.8,16.3c-34.7-40.8-55.1-49-104.1-40.8c-32.7,8.2-81.7,34.7-104.1,63.3c-44.9,49-44.9,49-67.4,8.2c-12.3-22.5-22.5-67.4-22.5-100.1v-57.2l-36.7,47c-30.6,40.8-44.9,44.9-91.9,26.5c-30.6-12.3-55.1-30.6-55.1-42.9c0-38.8-89.8-12.3-110.3,30.6c-10.2,22.5-47,59.2-79.6,81.7c-34.7,22.5-69.4,63.3-75.6,91.9c-8.2,38.8-26.5,53.1-73.5,57.2c-47,4.1-67.4,20.4-83.7,65.3c-26.5,69.4-83.7,102.1-108.2,61.3c-12.3-20.4-26.5-18.4-63.3,8.2c-26.5,18.4-63.3,32.7-83.7,32.7c-20.4,0-36.7,14.3-36.7,30.6c0,18.4-18.4,30.6-47,30.6c-32.7,0-57.2,18.4-71.5,51c-12.3,28.6-36.8,51-55.1,51c-16.3,0-30.6,8.2-30.6,18.4s-26.5,22.5-61.3,30.6c-55.1,10.2-61.3,20.4-61.3,83.7c0,100-44.9,112.3-126.6,32.7c-59.2-59.2-63.3-67.4-42.9-134.8c20.4-61.3,18.4-75.6-10.2-89.8c-67.4-32.7-198.1-38.8-238.9-10.2c-20.4,16.3-59.2,28.6-83.7,28.6c-26.5,0-49,16.3-55.1,40.8c-6.1,28.6-28.6,40.8-63.3,40.8c-28.6,0-53.1,10.2-53.1,20.4c0,12.3-18.4,20.4-40.8,20.4s-40.8-10.2-40.8-22.5c0-12.3-16.3-16.3-38.8-8.2c-57.2,16.3-104.1-8.2-104.1-59.2c0-44.9-47-96-108.2-120.5c-22.5-8.2-34.7-34.7-34.7-71.5c0-38.8-16.3-73.5-51-98c-42.9-32.7-49-49-38.8-104.1c8.2-42.9,4.1-67.4-10.2-67.4c-30.6,0-28.6-61.3,4.1-73.5c14.3-4.1,24.5-42.9,24.5-87.8c0-47,16.3-96,36.7-118.4c18.4-22.5,34.7-55.1,34.7-73.5c0-18.4,14.3-34.7,30.6-34.7c38.8,0,38.8-18.4-4.1-65.3c-26.5-30.6-28.6-47-10.2-89.8c14.3-26.5,24.5-69.4,24.5-89.8c0-53.1,36.8-51,93.9,2c44.9,42.9,51,42.9,98,12.3c85.8-57.2,196-183.8,208.3-236.9c30.6-157.2,77.6-261.4,157.2-355.3c110.3-130.7,285.8-455.3,326.7-606.4c18.4-61.3,42.9-171.5,55.1-245c14.3-73.5,30.6-140.9,36.7-153.1c32.7-49,65.3-265.4,77.6-510.5c14.3-255.2,12.3-269.5-36.8-367.5c-28.6-57.1-57.2-147-65.3-202.1c-6.1-53.1-28.6-132.7-51-173.6c-20.4-40.8-49-110.2-63.3-153.1c-32.7-104.1-75.6-147-163.3-163.3c-126.6-22.5-138.8-40.8-87.8-134.8l42.9-81.7h-69.4c-77.6,0-169.5-38.8-210.3-89.8c-16.3-18.4-59.2-32.7-96-32.7c-38.8,0-69.4-6.1-69.4-16.3c0-34.7,65.3-106.2,98-106.2c20.4,0,59.2-26.5,87.8-59.2c59.2-67.4,163.3-106.2,177.6-67.4c14.3,42.9,47,26.5,67.4-36.8c12.3-32.7,30.6-61.3,42.9-61.3c28.6,0,118.4-73.5,106.2-87.8c-6.1-6.1,28.6-16.3,77.6-24.5c49-8.2,100-24.5,116.4-36.7c14.3-12.3,36.8-24.5,51-26.6c12.3-2,38.8-10.2,59.2-18.4c18.4-8.2,34.7-6.1,34.7,6.1c0,22.5,75.6,51,122.5,47c16.3-2.1,75.5,34.7,130.7,79.6c106.2,87.8,161.3,102.1,191.9,49c16.3-30.6,26.6-30.6,83.7-6.1c42.9,18.4,63.3,42.9,63.3,73.5c0,61.3,22.5,71.5,89.8,34.7c85.8-42.9,93.9-36.7,93.9,61.3c0,83.7,32.7,140.9,73.5,132.7c40.8-6.1,44.9,6.1,26.5,67.4c-28.6,104.1,30.6,120.4,277.7,73.5c124.6-24.5,130.7-28.6,136.8-85.8c4.1-49,18.4-63.3,69.4-77.6c47-12.2,71.5-36.8,96-91.9c57.2-130.7,53.1-153.1-30.6-194c-77.6-36.8-96-63.3-57.2-87.8c12.3-6.1,20.4-44.9,20.4-83.7c0-38.8,12.3-87.8,26.5-112.3c20.4-36.7,18.4-47-30.6-89.8c-32.7-26.5-57.2-53.1-57.2-59.2c0-24.5,124.6-73.5,149-59.2c14.3,8.2,55.1,16.3,93.9,16.3c59.2,0,75.6,12.3,114.3,81.7c26.5,44.9,57.2,81.7,69.4,79.6c12.3-2,40.8-4.1,61.3-4.1c49-4.1,108.2-61.3,98-93.9c-10.2-30.6,47-71.5,104.1-73.5c26.5,0,44.9-12.2,44.9-30.6c0-16.3-18.4-30.6-40.8-30.6s-40.8-6.1-40.8-14.3c2-51,100-106.2,200.1-112.3c65.3-6.1,69.4-2,118.4,116.4c28.6,67.4,59.2,140.9,71.5,163.3c10.2,22.5,16.3,104.1,12.3,181.7c-8.2,136.8-10.2,140.9-81.7,181.7c-42.9,24.5-75.6,53.1-75.6,67.4c0,12.3-12.3,34.7-28.6,47c-22.5,18.4-22.5,38.8,0,124.5c14.3,57.2,32.7,112.3,38.8,124.6c8.2,12.3-4.1,26.5-28.6,32.7c-51,12.2-53.1,24.5-8.2,116.4c30.6,67.4,30.6,75.6,0,110.3c-49,53.1-42.9,67.4,16.3,53.1c63.3-16.3,67.4,16.3,8.2,57.2c-40.8,26.5-40.8,30.6-12.3,100c16.3,40.8,57.2,100,89.8,132.7c169.5,169.5,332.8,230.7,651.3,247.1c298.1,14.3,506.4-26.6,753.4-147c198.1-95.9,447.2-300.1,504.3-410.4c32.7-61.3,30.6-69.4-16.3-171.5c-61.3-132.7-81.7-247.1-51-302.2c18.4-34.7,34.7-38.8,106.2-30.6l85.7,12.2l-14.3-85.8c-8.2-51-4.1-102.1,10.2-128.6c16.3-30.6,16.3-44.9-2.1-57.2c-14.3-8.2-18.4-26.5-10.2-40.8c12.3-20.4,2.1-22.5-38.8-12.2c-47,12.2-53.1,8.2-53.1-40.8c0-124.5,140.9-314.4,234.8-314.4c151.1,0,214.4,102.1,218.5,349.2c2,77.6,12.2,134.8,30.6,153.1c32.7,32.7,149,38.8,149,8.2c0-32.7,55.1-24.5,69.4,10.2c32.7,83.7,359.3-81.7,359.3-183.8c0-14.3,14.3-36.7,30.6-44.9c42.9-24.5,194-232.8,194-267.5c0-16.3,22.5-61.3,51-98c28.6-36.7,51-75.5,51-85.7c0-10.2,36.7-47,83.7-85.8c87.8-69.4,163.3-81.7,326.7-51c61.3,12.2,77.6,24.5,87.8,71.5c6.1,32.7,26.5,61.3,47,65.4c20.4,4.1,36.7,24.5,36.7,46.9c0,34.7,16.3,40.8,118.4,47c73.5,4.1,130.7-4.1,149-18.4c24.5-20.4,32.7-18.4,40.8,16.3c6.2,24.5,53.1,61.3,116.4,89.8c140.9,65.3,265.4,61.3,428.8-18.4c69.4-34.7,161.3-73.5,202.1-87.8c42.9-14.3,98-47,124.5-71.5c26.5-24.5,67.4-49,89.8-57.2c22.5-8.1,57.2-30.6,77.6-53.1c49-55.1,71.5-51,71.5,8.2c0,36.8,28.6,71.5,104.1,126.6c112.3,81.7,108.2,61.3,57.2,263.4c-10.2,44.9-32.7,147-49,224.6c-16.3,79.6-42.9,189.9-61.3,245c-49,155.2-63.3,555.4-24.5,765.7c51,279.7,142.9,449.2,287.9,522.7c93.9,47,175.6,51,175.6,6.1c0-32.7,53.1-20.4,91.9,22.5c18.4,20.4,30.6,57.2,26.5,77.6c-6.1,22.5-2.1,55.1,8.2,73.5c28.6,49-59.2,171.5-126.6,179.7c-55.1,6.1-81.7,79.6-44.9,124.6c10.2,14.3,26.5,55.1,34.7,91.9c12.2,55.1,8.2,65.3-24.5,65.3c-93.9,0-173.6,126.6-98,155.2c16.3,8.2,30.6,26.5,30.6,42.9c0,22.5-14.3,26.5-51,18.4c-40.8-10.2-55.1-4.1-69.4,32.7c-10.2,26.5-42.9,77.6-71.5,116.4c-32.7,42.9-53.1,98-53.1,138.9c0,57.2,12.2,75.5,71.4,110.3c53.1,32.7,71.5,57.2,71.5,98c0,61.3,98,165.4,155.2,165.4c20.4,0,53.1,16.3,73.5,34.7c36.8,32.7,47,30.6,200.1-44.9c126.6-61.3,169.5-73.5,187.9-55.1c12.2,12.3,20.4,26.5,14.3,28.6c-4.1,4.1-96,47-202.1,98c-292,136.8-320.6,159.3-349.1,263.4c-26.6,93.9-32.7,194-18.4,247.1c8.2,22.5-10.2,32.7-69.4,36.7c-44.9,4.1-85.7-4.1-93.9-16.3c-10.2-14.3-32.7-18.4-59.2-10.2c-53.1,16.3-145,98-145,126.6c0,28.6-87.8,49-110.3,26.5c-10.2-10.2-42.9-6.1-81.7,14.3c-32.7,18.4-108.2,36.7-163.3,44.9c-55.1,6.1-104.1,24.5-110.3,38.8c-4.1,12.3,6.1,24.5,20.4,24.5c20.4,0,28.6,22.5,28.6,67.4c0,34.7,4.1,79.6,8.2,96c14.3,40.8-73.5,53.1-134.7,18.4c-65.4-34.7-112.3,8.2-149.1,132.7c-28.6,98-79.6,126.6-98,53.1c-6.1-22.5-28.6-40.8-49-40.8c-22.5,0-38.8-14.3-38.8-30.6s-14.3-30.6-30.6-30.6s-38.8-18.4-51.1-40.8c-12.2-22.5-34.7-40.8-51-40.8s-30.6-18.4-30.6-40.8c0-34.7-6.1-36.7-53.1-20.4c-75.5,30.6-145,24.5-159.3-10.2c-6.1-18.4-22.4-30.6-36.7-28.6c-55.1,6.1-75.6-4.1-87.8-44.9c-8.2-24.5-24.5-36.7-42.9-30.6c-14.3,6.1-36.8-4.1-44.9-22.5c-14.3-24.5-36.7-28.6-87.8-18.4c-91.9,18.4-222.6,77.6-222.6,100c0,10.2-20.4,14.3-47,8.2c-67.4-18.4-96,10.2-91.9,87.8c0,38.8-18.4,110.3-40.8,157.2c-24.5,47-44.9,104.1-44.9,124.5c0,22.5-14.3,53.1-32.7,67.4c-22.5,18.4-28.6,47-20.4,96c10.2,67.4,8.2,67.4-51,55.1c-51-12.3-63.3-6.1-71.5,24.5c-6.1,20.4-30.6,47-55.1,57.2c-32.7,14.3-49,47-61.3,122.5c-22.5,134.8-73.5,181.7-179.7,167.4c-65.3-8.2-85.8-2-108.2,30.6c-26.5,36.7-42.9,38.8-122.5,28.6c-79.6-12.3-95.9-22.5-106.2-69.4c-42.9-208.3-53.1-226.6-134.8-238.9c-85.7-16.3-118.4-2-118.4,47c0,18.4-24.5,44.9-53.1,59.2c-44.9,20.4-53.1,18.4-69.4-24.5c-22.4-61.3-102.1-83.7-202.1-59.2c-69.4,18.4-73.5,22.5-83.7,120.5c-10.2,96-14.3,102.1-71.5,108.2c-32.7,4.1-79.6-6.1-100-22.5c-30.6-22.5-55.1-24.5-108.2-8.2c-36.7,12.3-67.4,28.6-67.4,38.8c0,8.2-14.3,16.3-30.6,16.3c-16.3,0-30.6-14.3-30.6-30.6c0-36.7-83.7-40.8-145-10.2c-30.6,16.3-42.9,14.3-51-8.2c-20.4-51-112.3-16.3-185.8,69.4c-53.1,61.3-75.5,73.5-122.5,67.4c-55.1-8.2-63.3,0-118.4,120.5c-51,108.2-69.4,130.7-118.4,134.8c-40.8,6.1-71.5,28.6-100.1,77.6C4195.2,3311.6,4195.2,3311.6,4176.8,3291.2z M5836.8-1715.3c0-10.2-14.3-28.6-30.6-42.9c-38.8-30.6-40.8-196-4.1-210.3c14.3-6.1,10.2-12.3-10.2-12.3c-30.6-2.1-36.7,14.3-36.7,89.8c0,91.9,34.7,194,65.3,194C5828.6-1696.9,5836.8-1705.1,5836.8-1715.3z M5877.6-1839.9c0-10.2-10.2-20.4-22.4-20.4c-10.2,0-14.3,10.2-8.2,20.4c6.1,12.3,16.3,20.4,22.5,20.4C5873.5-1819.4,5877.6-1827.6,5877.6-1839.9z"/><path d="M209.5-1603c-16.3-44.9-2-57.2,53.1-49l44.9,6.1l-42.9,38.8C225.9-1572.4,221.8-1572.4,209.5-1603z"/><path d="M3958.3-1682.6c-55.1-44.9-91.9-134.8-65.3-161.3c14.3-14.3,24.5-36.8,24.5-49c0-14.3,20.4-59.2,42.9-100.1c30.6-51,51-67.4,65.3-53.1c14.3,14.3,12.3,30.6-4.1,51c-30.6,36.8-36.8,157.2-14.3,263.4C4025.7-1654,4011.4-1639.7,3958.3-1682.6z"/><path d="M4142.1-1690.8c0-10.2,8.2-30.6,20.4-47c22.5-36.7,51-14.3,34.7,30.6C4184.9-1676.5,4142.1-1664.2,4142.1-1690.8z"/><path d="M2010.4-1878.6c-8.2-14.3-10.2-30.6-4.1-36.7c18.4-18.4,38.8,8.2,28.6,36.7C2026.7-1856.2,2022.7-1856.2,2010.4-1878.6z"/><path d="M4203.3-1974.6c0-49,83.7-169.5,128.6-183.8c81.7-26.5,189.9,69.4,138.9,120.5c-16.3,16.3-22.5,16.3-22.5-2c0-40.8-83.7-28.6-96,14.3c-6.1,22.5-24.5,42.9-42.9,49c-20.4,6.1-51,16.3-69.4,24.5C4213.5-1942,4203.3-1948,4203.3-1974.6z"/><path d="M2365.7-2074.7c0-18.4,10.2-30.6,22.5-26.5c12.3,4.1,22.5,16.3,22.5,26.5c0,10.2-10.2,22.5-22.5,26.6C2375.9-2044,2365.7-2056.3,2365.7-2074.7z"/><path d="M5334.5-2483c6.1-18.4,12.2-38.8,12.2-42.9c0-4.1,14.3-8.2,32.7-8.2c44.9,0,26.5,69.4-20.4,77.6C5330.4-2450.4,5324.3-2456.5,5334.5-2483z"/><path d="M6167.5-3048.6c14.3-40.8,98-47,98-8.2c0,22.5-18.4,32.7-53.1,32.7C6179.8-3024.1,6163.5-3034.3,6167.5-3048.6z"/></g></g>
</svg>
