<?xml version="1.0" encoding="utf-8"?>
<svg version="1.1" id="Capa_1" xmlns="http://www.w3.org/2000/svg" xmlns:xlink="http://www.w3.org/1999/xlink" x="0px" y="0px"
	 viewBox="0 0 517.4 522.3" style="enable-background:new 0 0 517.4 522.3;" xml:space="preserve">
<path id="XMLID_43_" d="M137.5,481.7c-6.5-9.1-11.5-18.9-20.2-25.6c-5.9-4.5-9.2-10.4-11.6-17.2c-0.8-2.4-1-7-6-5.6
	c-0.4,0.1-0.8,0.1-1.2,0.1c0.3-0.8,0.8-1.5,0.9-2.4c0.4-3.6,0.8-7.4-4.9-6.1c-3.2,0.7-2.5-1.4-2.6-3.2c-0.3-7.5-4.5-13.2-8.6-19
	c-7.7-10.9-17-20.5-24.3-31.9c-6.8-10.8-14.8-21.2-22.4-31.6c-7.8-10.8-14.6-22.8-16.9-36.7c-1.6-9.6-3.5-19.2-14.7-23.5
	c-6.2-2.4-6.6-8.1-1.2-12.9c4.6-4.2,6.4-8.8,7-14.8c0.7-7.1,3.3-13.4,10.8-17c5.4-2.6,8.4-7.8,7.2-14.2c-1.6-9.2,1.5-18.1,1.1-27.2
	c-0.4-7.9,2.1-15.5,2.4-23.4c0.2-5.8,2-10.2,8.2-11.6c2.9-0.7,4-2.5,4.2-5.4c0.2-5.9,2.6-11,6.4-15.5c0.8-1,1.9-2.2,2-3.4
	c1.1-13,11.9-19.9,18.4-29.5c0.9-1.3,2.1-2,4-1.9c7.6,0.6,13-3,15.7-10.2c0.7-1.8,1.2-4.2,3.1-3.8c9.5,1.6,13-6.2,17.8-11.3
	c7.9-8.6,14.2-18.1,8.8-30.8c-0.7-1.6,0-3.3,0.8-4.6c2.3-3.6,2.6-7.6,2.8-11.8c0.7-12.7,9.2-20.7,21.8-19.6
	c15.8,1.3,31.3-0.7,46.9-1.7c16.7-1.1,32.9,3.8,49.7,3.2c9.1-0.4,17.1-1.3,23.7-7.7c4.9-4.7,11.2-5,15.8-1.7
	c12.8,9.1,26.2,5.3,39.4,3c10-1.8,19.4-1.2,28.5,3.4c2.2,1.1,3.6,2.8,4.8,4.7c7.9,13,19,21.8,33.7,26.1c6.6,1.9,10.6,7.1,15.2,12
	c10.7,11.4,20.7,23.8,34.6,31.6c5,2.8,8.9,6.5,11.9,11c7.9,11.7,17,23,22.7,35.7c7.6,16.7,19.8,31.3,23.7,49.6
	c3.2,15.1,6.3,29.9,14.9,43.3c2.6,4.1,4.3,10,3.6,15.7c-0.3,2.7-1,5.8,0,8.2c4.2,10.2,0.7,19.3-2.9,28.6c-0.3,0.8-0.6,1.9-1.2,2.3
	c-11.3,8.3-18.3,20.6-27.9,30.5c-6.6,6.9-13.3,12.5-21.6,17.5c-12,7.2-20.7,19.2-27.3,31.8c-7.4,14.3-18.5,24.2-33.2,29.6
	c-16.6,6.1-27.9,16.8-32.6,33.8c-2.6,9.5-6.5,17.9-14.9,23.6c-1.3,0.9-2.4,1.9-4.1,2.2c-15.8,2.7-25.1,13.6-32.5,26.5
	c-2.6,4.5-1.9,9,1.7,12.4c5.2,4.9,4.1,9.2-0.5,13.2c-3.5,3-6.4,6.3-8.8,10.3c-1.7,2.9-4.5,4.3-8.3,5.1c-13.2,2.6-26.7,4.2-39.6,8.2
	c-1.8,0.5-3.3,0.3-4.6-0.4c-10.6-5.3-20.8-10.5-26.8-22.1c-5-9.7-14.3-16-24.3-20.2c-6.5-2.7-13-4.8-18.3-9.8c-7.5-7-17-5.7-26-4.9
	c-3.3,0.3-6.8,0.2-10.1,1.1C143.5,467.9,138.5,473.1,137.5,481.7z"/>
</svg>
