<svg xmlns="http://www.w3.org/2000/svg" id="Layer_1" data-name="Layer 1" width="806.1703" height="792.0092" viewBox="0 0 806.1703 792.0092"><title>micronesia</title><path xmlns="http://www.w3.org/2000/svg" id="Micronesia" d="M700.6533,841.9818l-2.0251,2.0228h-1.0125l-1.0126-2.0228V830.8545h0V828.831l2.0251-3.0346,3.0377,1.0118v4.0463l1.0125,4.0464v3.0346l-1.0125,2.0228ZM976.8086,556.7205l1.0125,1.011h1.0126l6.0691,6.07v1.0118l5.0566,5.0574h5.0566l1.0126,1.0118h0l1.0125,1.0118h2.0251l2.019,2.0227v3.0346h-1.0126l-1.0064,1.0118h-1.0125l-1.0126,1.0118h-1.0125v1.011h-6.0692l-1.0125,1.0118h-3.0315l-1.0126-1.0118h-4.044l-1.0126-1.011h-2.0251l-1.0125,1.011H975.796l-1.0125,2.0236-2.019-2.0236h-2.0251l-1.0125-1.011H959.6137l-2.0251,2.0228-1.0126-1.0118h0l-2.0189-2.0228h-1.0125l-1.0126-1.0118h-2.0251V575.94h-3.0315l-1.0125-1.011h-2.0251l-2.019-2.0235v-1.011l1.0064-1.0118h0l1.0126-1.0118H945.45l1.0126,1.0118h1.0125l1.0126,1.0118h2.0189l1.0126,2.0227h2.0251l1.0125,1.0118h2.0189v-1.0118h1.0126l2.0251-2.0227v-1.0118l1.0126-1.0118h1.0125l2.0189-1.0118v-5.0574L964.67,562.79v-1.0118h-1.0126v-2.0228l3.0377-3.0346Zm-18.2074-9.1045h-1.0126l-2.0189-3.0345,7.0755-7.081,2.0251-1.0117,1.0125-2.0228v-2.0236l-1.0125-1.011,1.0125-2.0236,1.0126-1.011h3.0315V527.385h4.05l2.0189,1.0118v3.0346l-4.044,3.0346h-1.0126l-3.0314,4.0463v1.0118l-4.05,3.0346ZM914.092,460.6214v3.0353H913.08v3.0346h-1.0126v1.011h-1.0063v-1.011H910.048V465.68h-1.0125v-1.0118h1.0125v-3.0345h-1.0125v-1.0118l2.0251-1.011v-1.0118h0v-1.0118h1.0063V456.575H913.08v1.0118h2.0251v3.0346Zm-47.54,177.0239-2.0252,3.0353-1.0125-1.0118h-1.0126v-4.0463l-1.0125-1.0118v-3.0346l1.0125-1.0118,1.0126-1.011h2.0251l3.0315,2.0228v3.0346l-1.0126,1.0118h0l-1.0063,1.0118ZM800.7973,278.54l-6.0692,5.0574h-4.044l-1.0126,1.0118H788.659l-2.0251-3.0346-1.0126,1.0118h-1.0064l3.0315,3.0346v3.0345l3.0377,3.0346v2.0236l1.0064,1.011v5.0581l-1.0064,1.0118v1.011l-1.0126,1.0118v1.0118l-1.0125,1.011v1.0118l-4.0441,4.0463h-1.0125L782.59,310.91h-1.0125l-1.0126,1.0118h-2.0189l-1.0126,1.011h-2.0251l-1.0125,1.0118H773.483l-1.0125,1.0118h-1.0064l-1.0126,1.011h-3.0376v-1.011h-6.0692l-2.0189-2.0236-2.0251-1.011-1.0125-1.0118-2.0252-1.0118-1.0063-1.0118v-3.0345h-1.0126V304.84l-2.0251-2.0228v-1.0118l-2.0251-2.0228v-1.0118h0v-5.0573l2.0251-2.0236v-2.0228l1.0126-1.0118h1.0125l2.0189-3.0345h2.0252l4.044-3.0346h1.0125l5.0566-5.0581v-1.0118l1.0126-1.011v-4.0464h2.0251v-1.0118l1.0125-1.0117v-1.011l1.0126-1.0118v-2.0236h1.0064v-1.011l-1.0064-1.0118V252.2392l-1.0126-1.0117v-2.0228l2.019-2.0236V246.17l1.0125-1.0118h0l2.0251-3.0346V240.1l3.0377-2.0228h1.0064l2.0251-3.0346V234.031l6.0691-5.0581v-1.011l1.0126-2.0236v-1.011l2.0251-1.0118v-1.0117l1.0064-1.0118v-1.011l1.0125-1.0118v-1.0118l4.05-4.0463h2.019l1.0125-1.0111h1.0126l1.0125-1.0117h1.0126l1.0125-1.0118h1.0064l1.0125-1.011L807.879,213.8l3.0314,3.0346v1.0118h0v2.0228l-1.0063,1.0118v4.0463L807.879,226.95v1.0118l-1.0126,1.011v9.1045l1.0126,1.0118v2.0228l2.0251,2.0235v1.011l2.0189,1.0118v4.0464l-1.0126,1.0118v1.011h-2.0189l-2.0251,2.0235h0l-1.0126,1.011h-1.0125l-1.0064,1.0118h-1.0125l-2.0251,2.0236v10.1155l1.0125,1.0118v1.011l2.0251,2.0235h0L801.81,273.482v1.0118l-1.0125,2.0228ZM749.2065,137.9327l-2.0251,3.0345,1.0125,2.0228h1.0126l2.0251,1.0118h1.0125l1.0126,1.0118h1.0063l2.0252,3.0346V149.06l1.0125,1.011h0l1.0126,1.0117v3.0346l1.0125,1.0118v2.0228h-1.0125v2.0235l-1.0126,1.0118v1.011l-2.0251,2.0236h0l-4.044,5.0574H746.175l-1.0126-1.011H744.15l-1.0126-1.0118h-1.0125l-1.0126-2.0236h-3.0315l-2.0251-1.011h-1.0125V162.21h-1.0064l-1.0126-1.0118h-1.0125l-3.0377-3.0345v-1.0118h0v-1.011l-1.0064-1.0118v-2.0236l1.0064-1.011V150.071l-1.0064-1.011v-1.0118l1.0064-2.0236v-1.011l1.0126-1.0118V142.99h1.0125v-1.011l3.0377-3.0353h1.0064l1.0125-1.011h3.0377l1.0125-1.0118h2.019l1.0125,1.0118H744.15l3.0315-2.0236h1.0125l1.0126,1.0118Zm40.465-19.22,1.0126,1.0118h3.0315v1.011h1.0125l4.0441,3.0353V129.84l-3.0315,2.0228h-1.0126l-1.0125,1.0117h0l-2.0251,2.0236h-2.019l-1.0125,1.011h-1.0126v1.0118h-4.044l-1.0126,1.0118h-1.0125l-1.0126,2.0228h-1.0125l-2.019,2.0235h-1.0125l-2.0251,1.011h-3.0315l-1.0126,1.0118h-2.0251l-1.0125,1.0118h-1.0126l-1.0063-1.0118h-1.0126l-1.0126,1.0118h-2.0251l-1.0125-1.0118h-1.0064l-2.0251-1.0118h-1.0125l-2.0252-3.0345v-3.0346h0v-1.0118l1.0126-1.011v-1.0118l1.0126-1.0118v-2.0228l1.0125-1.0117h0l-1.0125-1.0118,3.0376-3.0346h1.0064l1.0125,1.0118h0l1.0126,1.011H763.37l2.0252-2.0228h1.0063l1.0126-2.0228h1.0125l1.0126-1.0118h4.044l1.0126-1.0117h2.0251l1.0125-1.0118h3.0315l1.0126-1.011h4.044l1.0126-1.0118ZM556,71.169l2.0189,1.0118h1.0125l1.0126,2.0228h1.0125l1.0126,1.0118h2.0189l2.0251,1.0117v5.0574l-1.0125,1.0118h-1.0126l-1.0063,1.0118h-3.0377V84.32h-2.0251L556,86.3426h-1.0126L552.9626,84.32l2.0251-2.0236V78.25l-1.0125-1.0117V76.2271l-1.0126-1.0117V71.169l2.0251-1.0118Zm-48.5594,53.6128,1.0126,1.0118h1.0125l3.0377,3.0346v2.0235l1.0064,1.0111v1.0117l3.0376,4.0464h4.0441l2.0251-3.0346h1.0125l3.0315-4.0463h1.0126l1.0125,1.0117h2.0251l1.0126,1.0111H532.73l1.0125,2.0235v1.0118l1.0126,1.011v1.0118h1.0125v2.0228l1.0126,1.0118v7.0809l-1.0126,1.0118V149.06l-1.0125,1.011v1.0117l-8.0943,9.1045H524.642l-1.0126,1.011h-2.0251l-1.0125-1.011h0l-1.0126-1.0118h-1.0064l-1.0125-1.0117h-5.0566l-1.0126,1.0117h-1.0125l-1.0126,1.0118h-1.0125l-1.0126,1.011H504.41l-1.0126,1.0118h-1.0126l-3.0314,3.0346,1.0125,1.0118v4.0463h1.0064l1.0125,1.011v1.0118l-1.0125,3.0346-1.0064,2.0235h-1.0125l-2.0251,1.0111h-1.0126L494.29,181.43h-2.0189l-1.0126-1.0118v-3.0346h1.0126v-1.0117l1.0125-1.0118v-2.0228l-1.0125-1.0118v-1.0118l-1.0126-1.011v-1.0118l-1.0125-1.0117v-1.011l-1.0126-1.0118v-1.0118l-1.0125-1.0118-2.019-2.0228H485.19l-1.0126-1.0118h-1.0125l-1.0126-1.011h-1.0064v-2.0235l-1.0125-1.0118v-2.0228l-1.0126-1.0118v-1.0118l1.0126-1.011v-1.0118l1.0125-1.0117h0l-1.0125-1.011v-6.07h1.0125v-4.0463l5.0566-4.0456v-1.0118l4.0441-4.0463h1.0125l1.0126-1.0118H494.29l1.0126,1.0118h1.0125l3.0377-3.0346h1.0125v-1.0118h1.0064l1.0125-1.0118ZM666.2574,82.2963v12.139l-2.0189,2.0228V97.47l-7.0817,7.0809h-1.0126l-1.0125,1.0118h-1.0126l-1.0126-1.0118h-2.0189l-1.0125-1.0117h-5.0566l-1.0126,1.0117h-2.0251l-3.0315,3.0346h-1.0125v2.0236h-1.0126v1.011l1.0126,1.0118v4.0463l-1.0126,1.0118v1.011l-1.0125,1.0118v4.0463h-1.0126v2.0228l-4.044,4.0464h-1.0126l-2.0251-2.0228h-2.0189l-2.0251-1.0118-1.0126-1.0118,1.0126-1.011V122.759l-4.0441-3.0345v-2.0236l1.0064-1.011v-1.0118l1.0126-1.0118V110.62l-1.0126-1.011,2.0251-1.0118v-3.0346l-1.0125-1.0118v-2.0235l1.0125-1.011V96.4581h1.0126V93.4236l1.0125-2.0228V89.3772h0V87.3544l1.0126-1.0118V85.3309l1.0125-1.011V83.3081h-1.0125L624.7859,84.32v1.011h-2.0251l-1.0125-1.011V81.2845l1.0125-1.011V76.2271l4.05-4.0463,3.0315-3.0346,6.0692-2.0235,8.0942-4.0464,3.0315-3.0346,3.0377-3.0345h1.0125L652.1,55.9954h3.0315l2.0251,2.0235v3.0346l1.0125,1.0118h0l1.0064,1.011v1.0118L660.1882,65.1v1.0118l2.0251,2.0227v2.0228l1.0126,2.0236v1.0118l1.0126,1.011,1.0063,1.0118v5.0581Zm-86.9931,12.139,1.0125,1.0111h1.0126l1.0125,1.0117h3.0315v5.0582l-1.0125,1.011v2.0235l1.0125,2.0228v1.0118l5.0566,4.0464v1.0117l1.0126,1.0111-5.0566,4.0463h-1.0126l-1.0125,2.0236h-1.0126l-1.0064,1.011h-1.0125l-1.0126-1.011h-1.0125l-6.0692-5.0582h-1.0125l-1.0126-1.0117h-1.0125L567.126,110.62v-1.011l2.0251-1.0118v-3.0346l1.0064-1.0118V96.4581l1.0125-1.0117h2.0251l1.0126,1.0117,2.0251-2.0228ZM337.4988,763.08l1.0125,1.011,1.0126-1.011h3.0314l2.0252,1.011v1.0118l-2.0252,1.0118h-2.0189V776.23l1.0126,1.0118v6.0692l-1.0126,1.0118h0l-2.0251,2.0227-1.0125,1.0118h-1.0126l-4.044-3.0345H331.43l-1.0125-1.0118v-2.0228l1.0125-1.0118v-1.0118l1.0126-2.0228h0l1.0125-1.0118v-1.0117l1.0126-1.011v-4.0464H335.48V769.149l-1.0125-4.0463-1.0126-2.0228,1.0126-2.0236,2.0189,1.0118Zm-4.0441-79.9137-2.0251,3.0345h-1.0125l-2.019-2.0235h-1.0125l-2.0251-1.011V679.12l-1.0126-1.0118,2.0251-2.0228h1.0126l1.0125-1.0118h2.019l5.0627,5.0582v1.011l-2.0251,2.0236Zm34.39,14.1618v-1.0118h1.0125v-1.0118l1.0126-1.011v-1.0118l1.0125-1.0117v-2.0228l-1.0125-1.0118v-4.0464l-4.0441-3.0345H364.813L363.8,681.1426h0l-3.0314-3.0346v-1.0118l-3.0377-3.0345h-1.0126l-3.0314-3.0346-5.0566-6.0692-2.0251-2.0235h-2.0251l-6.0692-5.0574v-1.0118l-2.0251-2.0227v-1.0118l-2.0189-2.0236v-1.011l-1.0126-1.0118h0l-1.0125-1.0118v-5.0573L331.43,638.657l-1.0125-3.0345h0l-1.0064-1.0118v-1.0118l-1.0126-1.011v-1.0118l-1.0125-1.0118v-1.011l-2.0251-1.0118h0l-5.0566-5.0581v-1.011h-1.0126v-1.0118l1.0126-1.0118v-2.0227l1.0125-1.0118v-1.0118l2.0251-1.011V614.38l1.0064-1.0118v-1.0118l1.0126-1.011v-2.0235h0V606.287l1.0125-1.0118v-3.0346h1.0126v-1.0117l1.0125-1.011v-1.0118l2.019-2.0228H331.43v-1.0118h1.0126l1.0125-1.0118H335.48l2.019-1.0118v-4.0455l1.0125-1.0118v-1.0118l-1.0125-2.0228v-1.0118l1.0125-2.0235V582.01l6.0692-6.07v-1.011h-1.0126v-1.0118l-3.0315-3.0345v-2.0236h-2.0251l-1.0125,1.0118H335.48l-1.0125-1.0118h-2.0251v-1.011l-1.0126-2.0236v-1.011l-1.0125-1.0118V562.79l-1.0064-1.0118h0l-1.0126-1.011v-2.0236l-1.0125-1.0118v-1.011l1.0125-1.0118-1.0125-1.0117v-1.011l-2.0251-2.0236v-3.0346h-1.0126v-3.0346l-4.044-4.0463h-2.0251l-1.0126,2.0228-1.0064-1.011-1.0125,1.011h-1.0126l-1.0125,1.0118h-3.0315l-1.0126-1.0118H307.153l-1.0125-1.011h0l-2.0189-1.0118H303.109l-2.0251-2.0228h-2.0251v-1.0118l-1.0064-2.0235v-1.011L297.04,534.466V530.42l-1.0126-1.0118v-1.011l2.0251-1.0118v-2.0235l1.0064-2.0228h1.0125l2.0252-2.0228h1.0125l2.0189-1.0118h4.05l1.0126,1.0118h7.0755l8.0943,8.0919h0l1.0125,1.0118h3.0377l1.0064-1.0118h3.0376l4.0441-4.0463h1.0125l4.044-4.0456h0l1.0126-1.0118v-1.0118l1.0126-1.0117V511.2l-1.0126-1.011h-1.0126l-2.0189-2.0235h-1.0125l-2.0251-1.0118h0l-1.0126-1.011H331.43l-1.0125,1.011h-3.0315l-1.0126-1.011h-1.0125l-5.0566-5.0582h0l-1.0126-1.0117v-3.0346l2.0251-2.0228-1.0125-1.0118v-1.0118l1.0125-1.011v-1.0118l1.0126-1.0117-1.0126-1.011,1.0126-1.0118v-1.0118l-1.0126-1.0118V484.9l-2.0251-2.0236v-2.0228h-1.0125l1.0125-1.0117v-2.0228l1.0126-1.0118-1.0126-1.0118,2.0251-2.0228V472.76l1.0126-1.0117h1.0125l2.019-2.0228v-3.0346l-1.0126-1.0118v-1.0118l-3.0315-3.0345v-1.0118h-1.0125v-9.1037l-1.0126-1.0118V446.46h1.0126V443.425h-2.0251l2.0251-2.0228V440.39l-2.0251-3.0346h-1.0126L316.26,436.344h-1.0125l-1.0126-1.0117h-9.1068l-1.0063,1.0117H303.109l-1.0125-1.0117h-3.0377v1.0117h-1.0064l-3.0376,3.0346H292.99V440.39h-1.0126l-1.0064,1.0118h-1.0125l-2.0251,2.0228H285.908l-7.0756,7.0809h-3.0376l-1.0126,1.0118V452.53l-2.0189,1.011v2.0235l1.0064,1.011v1.0118l1.0125,1.0118v10.1155l-2.0189,3.0346h-1.0126l-1.0125,1.0117h-1.0126l-1.0125,1.0118h-3.0315l-1.0126,1.011h-2.0251l-1.0125-1.011h-6.0692l-2.0189-3.0345V465.68l1.0064-1.0118h2.0251l3.0377-3.0345v-1.0118L258.6,459.61v-5.0582l1.0126-1.0117V452.53l1.0063-2.0236v-2.0228l-1.0063-1.0118h-2.0252l-2.0251-2.0228H254.55l-1.0064-1.0118h-1.0125l-3.0377-3.0345V440.39l1.0125-1.0118v-1.011l1.0126-1.0118V436.344l8.0943-8.0927V427.24h0v-2.0235l5.0565-4.0464,3.0315-3.0346-2.0189-2.0227-2.0251,1.011-2.0251,1.0117-2.0189,1.0118-3.0377-4.0463h-1.0126L254.55,414.09h-1.0064v1.0118l-1.0125,1.0118h-1.0126l-2.0251-2.0236h-3.0315l-1.0125,1.0118,3.0314,4.0463v3.0346l-1.0063,1.0118v2.0228h-1.0126l-2.0251,2.0235H243.424l-3.0315,2.0228h0l-2.0251,2.0228h-1.0126l-1.0125,1.0118h-3.0315l-1.0126,1.0118h-2.0251l-2.0189,1.0118h-1.0126v1.011h-1.0125l-2.0251,2.0235h-2.019l-1.0125,2.0228H220.16l-1.0125-1.011-1.0126,1.011h-1.0125l-3.0315-3.0346V419.1476l2.0189-1.0118,1.0126-3.0345,2.0251-1.0118v-1.011l-1.0126-1.0118v-3.0346l-1.0125,1.011-2.019,1.0118h-2.0251l-1.0125-1.0118h-3.0315l-1.0126,1.0118h-1.0125l-1.0126,1.0118h-2.0251l-1.0063-1.0118h-1.0126l-1.0125-1.0118v-4.0463l5.0565-6.0692v-3.0345l-1.0125-1.0118v-2.0228l3.0376-3.0346h7.0817l1.0064-1.0118v-2.0227l-1.0064-1.0118-1.0125-1.0118-6.0692-6.0692v-3.0345l-1.0125-1.0118v-1.0118l-1.0126-1.0118v-1.011l-1.0125-1.0118v-2.0227l-1.0126-1.0118v-2.0236l-2.0189-1.011v-2.0236l1.0126-1.011v-2.0235l-1.0126-3.0346v-2.0236l-1.0125-1.011v-5.0581l1.0125-1.0118v-2.0228h1.0126l-1.0126-1.0118v-4.0463l-1.0125-1.011v-1.0118h0v-5.0581l-2.0252-2.0228v-1.0118l1.0126-1.0118v-1.011l1.0126-1.0118v-5.0581l1.0125-1.011v-2.0236l3.0315-2.0228v-3.0345l-1.0126-1.0118V311.922l-2.0189-2.0236v-1.0118l1.0126-1.011h1.0063l1.0126-1.0118h1.0125l1.0126-1.0117h4.044l3.0377-3.0346h0l1.0125-1.0118h3.0315l1.0126,1.0118v1.0118l2.0251,2.0228h1.0125l3.0315-3.0346h1.0126l2.0251-3.0346h1.0064l4.05-3.0346H235.33l1.0126,1.0111h1.0125l2.0251-2.0228v-1.0118l2.0189-3.0346h3.0377l1.0126-1.0118h1.0125l5.0566-5.0573h1.0126l4.044-5.0582h1.0125l2.0252-2.0228h0l2.0189-1.0117h3.0376l1.0126-1.0118h1.0064v-1.011h1.0125l1.0126-1.0118h1.0125l3.0377-3.0346h0l8.0881-7.0809h1.0125l1.0126-1.0118h1.0125l2.019-1.0118,5.0627-1.011h3.0315l3.0377,1.011h1.0125l2.0189,3.0346h0l5.0566,5.0581v1.0118l1.0126,1.011h1.0125l2.0251-1.011v-2.0235l2.019-2.0228H312.21v-1.0118h1.0126l3.0376-2.0228v-1.0118l-2.0251-2.0228H312.21v-1.0118h-1.0125l-1.0064,1.0118-4.05-3.0353h0l-1.0126-1.011h-1.0063l-2.0251-2.0236h-2.0252l-1.0125-2.0228h-1.0064l-6.0753-6.07V246.17l-1.0064-1.0118h0l1.0064-1.0118v-1.011l7.0817-7.0809h0l1.0125-1.0118h2.0252l1.0125-1.0118,3.0315-1.0117h3.0376l2.019,1.0117H312.21l1.0126-1.0117h2.0251l3.0315,3.0353v2.0228L315.2473,240.1v2.0235l1.0125,1.0118,1.0064-1.0118h1.0126V241.112h7.0817L326.373,240.1l1.0126-1.011,2.0251-1.0118,1.0064-1.0118H331.43l1.0126-2.0228h1.0125l1.0126-1.0118h2.0189l1.0126-2.0227h2.0251l1.0125-1.0118h5.0566l2.0251,1.0118v2.0227l-1.0125,1.0118v3.0346L349.637,240.1H350.65l1.0125,2.0235v3.0346l1.0126,1.0118v1.011l1.0126,1.0118v1.0118l1.0125,1.0118v1.011h1.0064v2.0235l1.0125,1.011v1.0118l1.0126,1.0118v2.0228l2.0251,3.0353h1.0126l2.0189,2.0228v2.0228H363.8v3.0354l6.0692,5.0573h1.0125l2.0251,2.0236H373.92l2.0189,2.0228h1.0126V278.54h9.1068l5.0566,6.0692h2.0189l2.0251-2.0228,3.0377-1.0118h2.0189l3.0377,2.0228v1.0118l1.0125-1.0118h2.0189v-2.0228l1.0126-3.0346,2.0251-1.0117,1.0125-1.0118,1.0126-1.011-2.0251-2.0236h0l-1.0126-2.0228,1.0126-1.0118v-3.0345l1.0125-3.0346v-2.0236l1.0126-2.0228v-4.0463l3.0315-3.0346-2.0251-2.0235h-2.019l-1.0125,1.0117h0l-2.0251,2.0228-1.0126-1.011h-1.0063l-2.0251-2.0235v1.0117h-2.0252l-1.0125-1.0117h1.0125v-2.0228l1.0126-1.0118v-1.0118l2.0251-2.0228h1.0126l2.0189-2.0228H408.31l1.0126-1.0118h0l1.0125-1.0117h5.0566l3.0315-3.0346v-3.0346l-1.0064-1.0118v-1.0117l1.0064-1.011v-1.0118l1.0126-1.0118,1.0125-1.0118v-1.011l2.0251-3.0346,3.0315-2.0235v-4.0464l-2.0189-1.011h-1.0126l-1.0125-1.0118h-1.0126l-1.0125-1.0118h-1.0126l-2.0189-3.0345v-2.0228l-3.0377-3.0354h-1.0125l-4.0441-4.0463H407.297l-4.044-4.0456v-6.07l-4.0441-3.0346v-3.0346l-1.0125-1.0117v-2.0228l-1.0126-1.0118v-6.0692l2.0251-2.0235v-1.011l3.0315-3.0354v-1.011l1.0126-1.0118v-2.0227l1.0125-1.0118V151.0827h1.0126l1.0063-1.0117V149.06l1.0126-1.0118v-3.0346l1.0125-1.0118V142.99h1.0126v-3.0345l2.0251-2.0228h1.0064l1.0125-1.0118h2.0251l1.0126,1.0118h3.0315l4.05,5.0573h1.0125l5.0566,5.0582V149.06l6.0692,5.0573h1.0125l2.019-2.0228h1.0125l1.0126-1.0118h4.044l1.0126-1.0117h3.0376l3.0315,2.0235h1.0125l1.0126,1.011h1.0126l4.044,4.0464h0l3.0377,4.0463h1.0063l1.0126,1.0118v1.0118h1.0125v1.011l1.0126,1.0118v1.0118l7.0817,7.0809v1.0118l1.0125,1.011v2.0235h-1.0125v1.0111l-1.0126,1.0117v1.0118l1.0126,1.0118,1.0125,1.011v5.0581l-1.0125,1.0118v2.0228h1.0125v2.0236l-1.0125,1.011v10.1155l-1.0126,1.0118v8.0927L471.0261,213.8v7.081l-2.0251,2.0228v1.0117l-1.0064,1.0118h0l3.0315,3.0346h1.0125v1.011l2.0251-2.0228v-2.0228h3.0315l3.0377-2.0235h1.0125l1.0064,1.0117,2.0251,2.0228H485.19l2.0251-1.011v-1.0118l1.0064-1.0117h0l2.0251,2.0235,1.0125-1.0118V220.881l-1.0125-1.0118v-1.0118l-1.0126-1.011H488.221V207.73l-1.0064-1.011v-2.0235l1.0064-1.0118v-4.0456l-1.0064-1.0118v-1.0118h1.0064v-5.0573l1.0125-1.0118v-1.0118l2.0251-2.0228v-1.0118l1.0126-1.0117h5.0566l3.0376-3.0346h2.0189l1.0126-1.0118H504.41l2.0251-2.0228h1.0063l1.0126-2.0235h1.0125l1.0126,1.0117h1.0125l2.019,3.0346v1.0118l7.0817,6.0691v1.0118l5.0627,5.0581v1.0111l1.0064,1.0117v1.0118l2.0251,2.0228v1.0118l2.0251,2.0228,4.0441,4.0463v3.0354l1.0125,1.011v1.0118L536.78,213.8v1.0111l1.0125,1.0117v2.0236h1.0064v2.0228l1.0126,1.0118v2.0228l1.0125,2.0235h3.0377l1.0063,1.011h1.0126l1.0126,1.0118h0l1.0125,1.0118h1.0126l11.1257,10.1155h2.0251l2.0189-2.0228-1.0063-1.0118v-2.0235l-1.0126-1.011,1.0126-1.0118-6.0692-6.0692h0L556,223.9155V221.892l-3.0377-4.0456h-6.0691l-5.0566-5.0581v-2.0228h-1.0126v-1.0118l-1.0125-1.0118v-5.0581h-1.0126l2.0251-3.0346v-2.0228h1.0126l5.0566-5.0581h1.0125l4.044-3.0346v-6.0691l-1.0063-1.0118h0l-1.0126-1.0118V181.43l1.0126-1.0118v-3.0346h-1.0126v-4.0463l-1.0125-1.0118v-2.0228H547.906v-1.0118l3.0377-3.0345H551.95l1.0126-2.0236v-1.011l7.0817-6.07h2.0251l1.0126-1.011h2.0189l1.0125,1.011-1.0125,2.0235h-1.0126l-7.0755,7.081v2.0228l3.0315,3.0345v1.0118L571.17,183.4528v1.0118l1.0126,2.0228h1.0125l3.0377,3.0345h1.0064l2.0251,1.0118h1.0125l1.0126,1.0118h1.0125l3.0315,3.0346v1.0117l2.0251,2.0228h1.0126l7.0755,7.081v1.0117l3.0377,4.0464v1.0118h1.0125v1.011l1.0126,1.0118v2.0228l1.0125,1.0117v1.0118l1.0064,1.0118h0l1.0125,1.011v1.0118l1.0126,1.0118v3.0345l1.0126,1.0118h0l-1.0126,1.011v3.0346l-1.0126,1.0118v1.0118l1.0126,2.0228h1.0126l1.0125-1.011h1.0126l4.044-3.0354h0l1.0125-1.011H613.66l1.0064-1.0118h1.0125l1.0126,1.0118h7.0817l1.0125,1.011h2.0251l1.0064-1.011H628.83l2.0251-2.0236v-6.0691l1.0125-1.0118v-3.0346l1.0126-1.0117v-3.0346l1.0064-1.011v-2.0236l1.0125-1.0118-1.0125-1.011v-2.0235l-1.0064-1.0118v-4.0456l-1.0126-1.0118,3.0315-2.0235h2.0251l1.0126-2.0228h1.0125l5.0566-5.0582h2.0189l2.0252-2.0228h1.0125l1.0126-1.0117H652.1l2.0189,2.0235,1.0126-1.0118v-2.0227l-1.0126-1.0118,3.0377-2.0236h0l1.0125-1.011h1.0064l4.05-4.0464h2.0189l3.0377,2.0228v1.0118l1.0125,1.0118v2.0228H686.49l2.0251,2.0236h1.0126l2.0189,3.0345v1.011l1.0126,1.0118-3.0315,2.0236v3.0345l-3.0377,2.0228h-1.0125l-3.0315,4.0464h-1.0126l-3.0376,2.0228v1.0118l-1.0064,1.0117v1.0118l3.0315,3.0346h1.0125l1.0126,1.0118h3.0315l1.0125,1.011h1.0126l1.0125,1.0118h1.0126L690.534,213.8h3.0376l1.0126,1.0111h8.0942l1.0064-1.0111h6.0691l1.0126-1.0117h7.0817l1.0125,1.0117h3.0315v1.0111h2.0251l3.0377,3.0353h0l2.0189,2.0228v3.0346l1.0126,1.0117v2.0228l1.0125,1.0118-2.0251,2.0228,1.0126,1.0118-1.0126,1.0118h0l-1.0064,2.0228v1.0117l-1.0125,1.0118v7.0809l-1.0126,1.0118v2.0228H724.93V246.17l-1.0126,1.011v1.0118l-1.0125,1.0118v2.0228l-1.0126,1.0117v3.0346l1.0126,1.0118v2.0228h1.0125V259.32l1.0126,1.0117v1.0118l2.0251,2.0228v1.0118l2.0189,2.0228v1.0118l2.0251,2.0228v1.0117l1.0126,1.0118h0l1.0125,1.011v3.0354l2.019,2.0228v2.0228l1.0125,2.0235v2.0228l1.0126,1.0118v1.0118l-1.0126,1.0118v1.011l-1.0125,1.0117V291.69h0l-1.0064,1.0118v1.0118l-2.0251,2.0228v1.0117l-1.0126,1.0111v1.0117l-1.0125,1.0118,1.0125,1.0118v2.0228l1.0126,1.0118v1.011l3.0315,2.0235v1.0118l4.05,4.0464v7.0809l-1.0126,1.011,1.0126,1.0118V324.06l2.0189,2.0235h1.0126l1.0125,1.011H744.15l1.0125,1.0118h3.0315l1.0126-1.0118h2.0251l2.0251-1.011h5.0566l1.0125-1.0118h7.0755l1.0126,1.0118h2.0251l1.0125,1.011h4.0441v1.0118h3.0376l1.0126-1.0118h3.0315l1.0125,1.0118,3.0315,2.0228,2.0251,3.0354,3.0377,4.0463,1.0064,2.0228,1.0125,1.0118v2.0228l-2.0189,2.0235v1.011l-2.0251,1.0118v1.0118l-1.0126,1.011v3.0354l5.0566,4.0455h2.0251l1.0126-1.011h1.0125l1.0064-1.0118h2.0251l1.0126-1.0117h2.0251l2.0189-2.0228h1.0125l3.0377-4.0464h4.044l2.0252-2.0228V343.28l1.0125-1.0117v-2.0228l1.0064-1.0118v-1.0118l1.0125-1.011v-1.0118l1.0126-1.0118v-1.0117l1.0125-1.011V317.9911l1.0126-1.0118-1.0126-1.0117,1.0126-1.011v-1.0118l2.0189-2.0228h1.0126l2.0251-2.0236h2.0251l1.0125-1.0118h2.019l1.0125-1.011h6.0692l1.0125-1.0118h2.0251l1.0064-1.0117h4.05V304.84h1.0126l3.0315-3.0346h1.0125l1.0126-1.011h2.0251l1.0063-1.0118h1.0126l1.0126,1.0118h3.0376l4.044,4.0456v3.0353l-1.0125,1.011V310.91l-8.0943,8.0927h0l-1.0063,1.011v6.07l-1.0126,1.011v3.0346l3.0315,2.0236h1.0126l5.0565,6.0691h1.0126l2.0251,1.0118h0l3.0315,3.0346h1.0125l1.0126,1.0117h1.0125v1.0118H874.64l3.0377,2.0228v2.0228l1.0125,1.0118v10.1155h-1.0125v1.0118l-1.0126,1.0117V362.5l-1.0125,1.011v1.0118l-1.0126,1.0118v5.0574l-1.0125,1.0117v1.0118l-1.0064,1.011,1.0064,1.0118v2.0236l1.0125,1.011v2.0235h1.0126v1.0111l1.0125,1.0117v2.0236l2.0251,2.0228v1.0118l3.0315,3.0345v3.0346h1.0126V394.87l1.0125,1.011v2.0235l1.0126,1.0111v1.0117l1.0125,1.0118v2.0228l-1.0125,2.0236v1.011l-1.0126,1.0118-1.0125,1.0117-3.0315,2.0228-1.0126,1.0118-1.0125,2.0236v2.0228l1.0125,1.0118h1.0126l1.0064-1.0118,2.0251-1.0118h2.0251l1.0125,2.0236v3.0345l1.0064,1.0118v1.011l1.0126,1.0118v2.0228l1.0125,1.0118V427.24l2.0251,1.011v1.0118l1.0126,1.0118V433.31l2.0189,1.0118v1.011l1.0126,1.0117v1.0118l1.0125,1.0118v1.011l1.0126,1.0118v1.0118l1.0125,1.011v1.0118l-1.0125,1.0117v5.0574l-1.0126,1.0118v1.0118l-1.0125,1.0118,1.0125,1.011h-1.0125v1.0117l-3.0315,4.0464v2.0228H890.828l1.0126,1.0118V465.68l1.0064,1.0118v1.011H893.86v1.0118l1.0126,1.0118V472.76l3.0376,3.0346v2.0236l1.0064,1.011v1.0118h1.0126l3.0376-3.0346h5.0566l1.0126,1.0118h1.0125l1.0126,1.011v2.0235h1.0063v1.0111l1.0126,1.0117L914.092,484.9l1.0126,2.0228L917.13,491.98V498.05l-2.0251,2.0228-3.0377,2.0235v2.0228l-1.0063,1.0118h-3.0377l-2.0251,2.0228h-1.0064l-3.0376,3.0353h-1.0126l-2.0251,2.0228H897.91l-2.0251,2.0236h-1.0125l-1.0126,1.011H892.847l-1.0064,1.0118h0L890.828,517.27h-1.0125l-1.0126,1.011H887.79l-3.0315,3.0353h0l-5.0566,6.0691H878.69v1.0118H873.627l-2.019,3.0346v1.011l-1.0125,1.0118h-1.0126L868.57,534.466l-3.0315-3.0346v-3.0346h-1.0126V527.385l-1.0125-1.0117v-1.0118l-1.0126-1.011v-6.07l-1.0125-1.011V515.246l-1.0064-1.011h0l-1.0125-2.0236v-2.0228l-1.0126-1.0118v-2.0235l-1.0125-1.011v-2.0236l-1.0126-1.011V498.05l-3.0315-3.0346h-1.0125v-1.0118h-1.0126l-1.0125,1.0118H849.35l-1.0125,1.0118h-1.0064l-2.0251,3.0346h-4.0441l-1.0125,1.011h-1.0126v1.0117h-1.0125L836.2,502.0959h-1.0064l-1.0126,1.0118-2.0251,1.011h-4.044l-1.0126-1.011h-1.0125v-1.0118h-1.0126l-1.0125-1.0118h0l-1.0126-1.0117v-1.011l-1.0064-1.0118v-4.0464l-3.0376-3.0346-2.0251,2.0228v1.0118h-1.0064v1.0118l-5.0628,6.0691H807.879l-1.0126,1.0118h-1.0126l-1.0125,1.0118h-2.0189l-1.0126,1.011h-1.0125l-4.0441,4.0464v2.0235l-1.0125,1.011v1.0118l-1.0126,1.0118v2.0228l-1.0125,1.0118v6.0691l-2.0251,2.0236h-2.019l-1.0125-1.0118h-1.0126l-5.0566-5.0581h-1.0125l-3.0315-4.0456h-7.0817l-2.0251,1.011v5.0581l1.0125,1.0118v1.011l3.0315,3.0346h1.0126v1.0118h1.0125l1.0126,1.0117v1.0118h1.0125V530.42l1.0126,1.0118v3.0346h-1.0126v4.0463l-1.0125,1.0118v6.0691l10.1132,9.1038v1.0117l1.0125,2.0228v1.0118l4.0441,3.0346V562.79l3.0376,4.0463h1.0126l1.0125,1.0118h2.019l1.0125,1.011h6.0691l7.0817-7.0809h0l3.0377,2.0235v1.0118l-1.0125,1.011-4.05,4.0464v1.0118l3.0377,3.0345,1.0126-1.0117v-1.011l1.0125-1.0118H816.98l1.0125-1.0118,2.0251,2.0236v1.011l1.0126,1.0117-1.0126,1.0118h0v2.0228l-2.0251,2.0236,1.0126,1.011V582.01l1.0125,1.011v1.0117l2.0251,2.0236h1.0064l1.0126,1.011h1.0125l1.0126,1.0118h2.0251l2.0189-2.0228h1.0126l1.0125-1.0118h1.0126l2.0251-2.0235H836.2l4.05-4.0456v-1.0118l1.0125-1.0118v-5.0573l1.0064-1.0118v-1.0118l4.05-3.0346h1.0126l8.088-8.0927v-1.0118l1.0126-1.011v-1.0118l3.0377-3.0345v-1.0118l1.0125-1.0118h2.0189l1.0126-1.011h1.0125l1.0126,2.0228v2.0236l4.044,3.0345h2.0251l1.0126,1.011H878.69v1.0118l1.0126-1.0118h1.0064l1.0125-1.011h2.0251l1.0126-1.0118h2.0189l2.0251-1.0117h2.0251l1.0126,2.0235h3.0315l1.0125,1.011,3.0315,3.0354,1.0126,1.011,1.0125,2.0235v3.0346l-1.0125,1.0118v1.011l1.0125,1.0118v1.0118l2.0251,2.0228h1.0126l1.0125,2.0235h0l1.0064,1.011v2.0236l3.0377,3.0346h1.0125l1.0126,1.0118v1.011l1.0063,1.0117v3.0346h-1.0063l-1.0126,1.0118h1.0126l1.0063,1.0118h0l1.0126,1.0118v1.011h-1.0126l-2.0189,3.0345h-1.0125L907.01,595.16h-1.0125l-2.0189,2.0236h-1.0126l-5.0566,5.0573h-2.0251l-1.0125,1.0118H893.86l-3.0315,4.0464h-1.0125l-1.0126,1.011H887.79l-1.0126,1.0118h-2.0189l-1.0126-1.0118h-1.0125l-7.0817-7.0809v-1.011l-3.0315-3.0346H871.608l-1.0125,1.011h-4.044l-2.0252-1.011-3.0376-2.0236-2.0189,1.0118v4.0464l-1.0126,1.011h-1.0125l-1.0126,1.0117H855.42l-3.0314,2.0236h0l-2.0251,2.0228v3.0346H849.35v3.0345l1.0126,1.0118V614.38l1.0125,1.0118h0l1.0126,1.011v4.0463l1.0125,1.0118v1.0118h1.0126v1.011l-2.0251,3.0346V627.53l-1.0126,1.0117v3.0346l1.0126,1.0118v3.0346h-1.0126v2.0228l-1.0125,1.0117v2.0236l-2.0251,2.0228h0l-1.0064,1.0118v6.0691l-2.0251,2.0228v1.0118l-1.0126,1.0118v4.0463l-1.0125,1.011v2.0236l-1.0126,1.0118v1.011h-1.0064v2.0235L840.25,665.97v1.011l-1.0126,1.0118v2.0228l1.0126,1.0118v3.0346h-1.0126V679.12l-1.0125,1.0118v2.0228l-1.0126,1.0118h-2.0189l-3.0377,3.0345H830.13l-2.0189,2.0228h-2.0251v1.0118h-2.0251l-1.0126,1.0118h-3.0315l-1.0125,2.0228h-1.0126l-1.0125,1.0117h-1.0064l-2.0251,2.0228h-1.0126l-1.0125,1.0118h-2.0189l-1.0126,1.0118H807.879l-2.0252,3.0346h-1.0125l-7.0817,7.0809-1.0064-1.0118-2.0251,2.0236h-1.0125l-4.0441,4.0463,1.0126,1.011v1.0118l5.0566,5.0582-1.0126,1.011,2.0251,2.0235v1.0118l2.019,1.011v2.0236l1.0125,1.011L797.76,729.698h0l-1.0064,1.0118v2.0228l4.0441,4.0464h0l5.0565,4.0463h1.0126l1.0126,1.0118h1.0125l1.0126,1.011h2.0189l1.0125,1.0118v3.0346l-7.0817,8.0927h-1.0125l-2.0189,2.0228H801.81l-2.0251,2.0235h-1.0125l-5.0566,5.0574h0l-6.0692,5.0581v1.0118h0l-4.044,3.0346H782.59l-1.0125,1.0118h-1.0126v1.011h-1.0125l-1.0064,1.0117h-1.0126l-1.0125,1.0118h-6.0692l-1.0125,1.011h-1.0126l-1.0125-1.011h-3.0315L763.37,776.23h-1.0125l-2.0251-3.0345v-1.0118l-1.0064-1.0118v-1.011l-5.0628-4.0463h0l-1.0063-1.0118h-5.0628l-3.0315-2.0228H744.15l-1.0126-1.0118h-1.0125l-1.0126,1.0118h-1.0064l-1.0125,1.011-2.0251-2.0228h-1.0126l-6.0691-6.0691v-1.0118l-1.0126-1.0118v-3.0346l-1.0064-1.0118h0l-6.0753-6.0691h-2.0189l-1.0126-1.0118h-3.0376v-1.011h-1.0064l-1.0125-1.0118h-1.0126l-2.0251-2.0235h-2.0189l-1.0126-1.011-1.0125,1.011H705.71v2.0235l-1.0126,1.0118V743.86h-1.0125v2.0228l-1.0064,2.0235v1.0118l-2.0251,1.011v2.0236l-1.0125,1.011v1.0118l-1.0126,1.0118v1.0118l-2.0251,2.0227h-2.0189l-4.05-3.0345v-1.0118l-1.0064-1.0118v-5.0574l1.0064-1.0117V743.86l-1.0064-1.0118,2.0189-2.0228V736.779l-1.0125-2.0236-2.019-2.0228-1.0125-1.0118-1.0126-3.0345-3.0315-3.0346v-2.0228h-1.0125v-1.0118l-1.0126-1.0118v-1.0117l-3.0376-3.0346h-1.0064l-1.0126-1.011h-3.0376l-1.0126-1.0118h-2.0189v-1.0118h-7.0817l-1.0126-1.0118h-1.0125l-1.0126-1.011h-3.0314l-1.0126,1.011h-1.0125l-1.0126,1.0118v1.0118l-1.0126,1.0118v5.0573l1.0126,1.0118-1.0126,1.0118h0L652.1,724.64v5.0581l1.0063,1.0118h1.0126l1.0126,1.011h1.0125l1.0126,1.0118h6.0691l2.0189,2.0228v1.0118l2.0251,1.0118v1.0118l3.0377,4.0463v1.011l1.0064,1.0118v1.0118l-2.019,3.0345v4.0464l-1.0125,1.011H667.27l-2.0251,2.0236h-1.0063l-1.0126,1.0118h-1.0126l-1.0125,1.011h-8.0943L652.1,758.0217h-1.0126l-1.0125,1.0118H648.05l-1.0126,1.011h-2.0189v1.0118h-1.0126l-5.0566,4.0464h-1.0125v1.0118h-3.0377l-1.0125-1.0118h-2.019l-1.0125-1.0118h0l-1.0126,1.0118H626.811l-1.0125,1.0118h-4.05l-1.0126,1.0117h-2.0189v-1.0117h-4.05l-1.0064-1.0118h-1.0126l-4.05-4.0464h-1.0063l-4.05-4.0463h-1.0125l-2.0189-2.0228v-1.0118l-2.0251-3.0346-6.0692,6.0692h1.0126v3.0345l1.0125,1.0118v1.0118l1.0064,1.0118v2.0228l-2.0189,2.0235v1.011l-1.0126,1.0118h-1.0125v-1.0118h-2.0251l-1.0064-1.011h-1.0126l-2.0251-2.0235v-1.0118h0V763.08l-1.0125-1.0118v-1.0118l-1.0126-1.0118v-2.0228l-1.0064-1.0117h1.0064v-1.011l1.0126-1.0118v-1.0118l1.0125-1.0118v-1.011l1.0126-2.0236h0l1.0125-1.011,1.0126-1.0118v-1.0117l2.0189-2.0228-3.0315-2.0236v-1.011l-3.0376-4.0463-3.0315,3.0345v1.0118l-1.0126,1.011V743.86l-4.044,5.0581v1.011H575.22v2.0236l-1.0125,1.011v3.0354l3.0315,2.0227v3.0346l1.0125,1.0118V763.08l1.0126,1.011v5.0581l-1.0126,1.0118v1.011l-3.0315,3.0354h-1.0125l-1.0126,1.011h-3.0376l-1.0064-1.011H567.126l-1.0126-1.0118h-8.0942l-4.044-3.0346h-1.0126l-2.0189,2.0228h-1.0126l-1.0125,1.0118H547.906l-3.0377,4.0463h-2.0189l-1.0125-1.0118h-1.0126l-1.0125-1.0117h0l-1.0126-1.011H536.78l-1.0126-1.0118H532.73l-1.0064,1.0118h-6.0692l-1.0125-1.0118h-5.0628l-1.0064,1.0118h-4.05l-1.0125-1.0118h0l-7.0755-7.0809H505.422l-1.0125-1.0118h-1.0126l-3.0315-3.0346v-1.0118l-1.0125-1.0118,1.0125-1.011V749.929h-1.0125v-2.0228l1.0125-1.0117v-4.0464l-2.0251-2.0228v-1.0118l-1.0125-1.0117V736.779l-1.0126-1.0118,1.0126-1.0118-1.0126-1.011v-2.0236l-1.0125-1.011V729.698H494.29v-7.0809l1.0126-1.0118v-6.0691l-1.0126-1.0118v-2.0228l-2.0189-3.0353-3.0377,3.0353H488.221l-4.0441,4.0464v1.011l1.0126,1.0118v1.0118l3.0315,3.0345v6.0692L485.19,730.71h-1.0126l-3.0315,4.0456v3.0354l1.0064,2.0227-1.0064,1.0118V743.86H479.12l-3.0376-3.0346h-1.0064l-1.0126-2.0235h-1.0125l-2.0251-2.0228h-6.0692l-3.0314-3.0346v-2.0236l-1.0126-2.0228H459.9l-1.0125,1.0118v2.0228l-1.0126,1.0118v2.0228l-3.0314,2.0236h0l-1.0126,1.011h-1.0126l-1.0125,1.0117h-1.0126l-2.0189-2.0227h0l-5.0628-4.0464v-1.0118l-2.0189-2.0228h0L440.68,729.698h-5.0566l-1.0126-2.0235V724.64l1.0126-1.011h0l-1.0126-2.0236h-3.0376l-1.0064,1.0118-1.0126,2.0228h-1.0125l-2.0251,4.0464h-4.0441v-1.0118H421.46l-1.0126-1.011h-2.0251l-1.0064-1.0118h-1.0125l-1.0126,1.0118h-4.044l-1.0126-1.0118H407.297l-1.0126-1.0118h-5.0566l-1.0125-1.011h-2.0189l-1.0126-1.0118h-2.0251l-1.0125-1.0118h-1.0126l-1.0064-1.0117h-1.0125l-1.0126-1.011h0l-1.0125-1.0118H388.077l-2.0189-2.0228h0l-2.0251-2.0236v-5.0581h0v-6.0692l-3.0377-4.0463h-3.0315l-1.0125,1.0118h0l-4.0441,3.0345v2.0236l-1.0125,1.011v2.0236l-2.0251,2.0228v2.0235H368.857l-3.0315,3.0346H364.813L363.8,716.548v-1.0118h-1.0125l-4.0441-4.0464v-1.0117l-1.0125-1.0118h0l4.044-4.0456v-1.0118l5.0628-5.0581V698.34Z" transform="translate(-196.9148 -53.9954)" fill-opacity="1" fill="#000" /></svg>
