<?xml version="1.0" encoding="utf-8"?>
<svg version="1.1" xmlns="http://www.w3.org/2000/svg" xmlns:xlink="http://www.w3.org/1999/xlink" x="0px" y="0px" width="1366.559px" height="1117.794px" viewBox="0 0 1366.559 1117.794" enable-background="new 0 0 1366.559 1117.794" xml:space="preserve">
  <path fill="#000000" d="M1209.513,906.851l-2.275-14.084
    l-3.758-11.528l-3.637-14.075l-4.43-11.346l-4.89-9.225l-3.553-4.237l-6.239-2.615l-8.297-5.547l-9.398-4.197l-12.218-4.355
    l-12.055-5.449l-9.057-5.283l-6.886-2.251l-12.465-1.563l-9.805-1.412l-11.625-1.069l-10.884-0.599l-6.159-3.695l-9.313-2.999
    l-9.432-1.403l-10.14-3.615l-5.578-0.9l-6.521-2.715l-6.141-3.581l-3.983-2.467l-7.173-4.61l-4.244-4.517l-4.93-5.555
    l-4.024-4.706l-5.128-1.62l-7.366-1.34l-11.808-2.475l-11.053-3.184l-4.42-0.527l-7.283-5.4l-8.994-9.543l-10.156-5.051
    l-8.448-1.771l-12.728-1.212l-8.099-2.251l-7.46-5.051l-9.622-8.69l-10.023-4.451l-11.617-1.548l-9.32-1.292l-7.442-6.519
    l-5.689-2.346l-3.231-3.711l-4.077-4.659l-4.237-2.952l-3.629-7.844l-4.069-4.332l-5.985-2.274L812,677.32l-7.683-3.408
    l-6.551-4.524l-7.564-5.968l-4.636-8.785l-7.387-7.611l-7.797-8.897l-8.754-10.021l-5.823-8.712l-2.921-9.623l-1.204-9.439
    l-0.742-11.667l1.355-7.331l6.184-11.435l4.549-8.712l3.217-6.057l-0.035-6.599l-3.748-10.66l-4.101-9.718l-4.614-11.697
    l-1.204-8.649l2.721-7.7l1.11-8.473l0.766-9.854l4.9-10.324l5.041-7.668l2.131-8.554l1.461-9.406l3.678-8.107l11.385-17.762
    l16.988-15.35l11.728-9.354l14.14-8.24l14.954-7.246l13.203-11.51l8.099-11.805l2.904-13.302l-0.47-15.529l-5.937-11.801
    l-8.594-14.618l-10.531-14.038l-7.581-7.585l-12.821-2.295l-19.357-2.241l-24.345-2.896l-18.886-2.095l-18.766-1.875
    l-17.324-0.646l-16.77-7.428l-21.041-5.275l-9.646-5.05l-14.729-6.439l-11.562-9.319l-8.785-7.05l-8.699-4.104l-11.177-5.502
    l-10.659-6.351l-10.732-6.783l-10.382-7.803l-6.807-5.897l-1.969-7.635l-6.084-10.521l-8.793-13.006l-6.353-9.411l-8.081-6.591
    l-16.833-4.771l-12.237-2.511l-10.093-0.869l-9.071-3.334l-8.266-4.957l-11.634-1.993l-10.614-1.298l-7.319,3.951l-7.743,2.161
    l-23.283-0.94l-18.782,0.059l-8.968,0.887l-10.329,2.338l-7.33,5.876l-5.385,6.487l-3.801,5.896l0.012,11.881l-0.453,9.699
    l3.67,8.646l6.423,12.531l6.575,10.479l5.924,14.228l6.394,16.548l5.216,13.393l3.451,7.28l1.61,9.843l3.528,10.814l0.414,9.097
    l1.649,4.979l1.695-0.885l0.694-2.111l2.166,0.974l0.399,2.259l3.808,0.639l2.106,3.283l1.485,2.928l4.895,1.125l1.787-1.843
    l-2.95-3.368l-0.208-3.577l0.027-3.032l-2.046-1.349l0.339-3.264l2.15-4.844l-3.777,3.371l-2.832,5.179l-2.314,2.521
    l-1.104-0.854l1.269-6.048l-1.074-1.827l-3.973-2.582l-2.14-4.021l0.404-4.971l-2.499-4.248l-0.561-6.309l1.272-5.924
    l-4.635-11.202l-4.825-14.351l-5.344-11.668l-1.63-7.41l3.712-9.67l9.02-5.729l1.843-3.017l7.878,1.417l1.103-2.426l4.244,0.168
    l-0.084-3.77l3.264,0.163l8.159-4.178l4.907-6.613l1.695,0.984l-1.252,4.222l4.266-1.78l1.219-2.289l10.183,0.702l6.162,1.643
    l3.24,3.54l0.68,4.854l-1.756,6.399l-6.299,0.918l-3.886,1.176l-3.857-4.16l-6.033-1.879l-0.039,3.765l2.525,2.442l-1.604,4.959
    l4.918,5.621l5.801,0.052l1.563,2.075l10.928-2.084l6.188-0.912l5.661,3.199l15.049,12.007l14.195,10.685l3.383,1.36
    l2.385,2.696l14.194-0.726l2.295,0.871l4.097,2.577l7.276,0.07l5.02,6.706l3.489,3.316l4.102,1.6l3.779,10.225l4.406,9.604
    l8.839,0.698l2.912-0.464l1.221-1.068l3.088-0.163l0.167,3.912l4.254,3.715l0.822,3.69l-3.199,3.834l-0.593,8.144l0.815,4.97
    l3.797,5.007l-0.431,10.276l-2.95,5.29l-0.663,6.071l4.658,4.334l6.008,0.913l2.904-0.064l2.21,2.08l-0.486,6.846l2.56,1.475
    l4.987-2.181l3.16,1.407l2.075,5.158l3.262,1.577l2.498-1.86l1.964,0.615l0.375,5.318l-2.45,6.057l1.076,4.384l1.589,2.924
    l0.239,3.263l-1.571,2.729l1.02,2.316l3.328,0.2l4.07-5.019l1.995-2.641l5.673,0.055l6.988-6.621l4.747-2.692l4.453-0.388
    l7.892,0.151l5.497-2.772l0.727-4.201l-2.961-3.878l1.859-5.892l5.244-3.472l5.225,2.357l7.221,7.015l5.243,6.905l4.923,4.927
    l8.775,6.683l8.338,4.867l6.863,0.146l6.534-3.626l0.839-6.063l3.318-7.349l5.475-6.631l8.945-3.602l7.332,1.356l5.871,5.879
    l4.143,6.891l2.346,6.104l5.186,2.704l2.912,0.707l-0.479,5.737l-7.619-0.073l-4.326,3.551l-19.963-0.77l-10.875-0.959
    l-1.044,3.424l2.447,2.841l-1.188,9.239l0.19,5.394l6.111,7.365l3.559,4.739l0.982,5.147l-0.351,9.431l-1.062,4.269
    l-4.236,5.361l-3.512,7.677l-4.482,2.873l-5.795-3.631l-5.832,1.476l-3.957,1.508l-4.756-4.826l-6.718,1.467l-6.304-1.938
    l-4.468,0.981l-1.995,3.766l-0.967,1.867l-4.602-3.048l-2.713-0.208l-0.958,0.256l-0.398,0.495l1.106,3.966l2.189,5.775
    l-0.504,6.256l1.355,2.226l0.463,5.578l-2.48,0.215l-3.599,0.328l-1.228-6.87l0.111-12.6l-3.432-8.082l-7.062-6.407
    l-4.053-5.434l1.356-8.553l2.21-6.918l6.015-2.259l5.898-7.588l2.528-4.508l-0.04-13.356l0.654-15.95l-2.355-5.665l-4.955-2.114
    l-4.194,0.144l-4.924,2.438l-5.292,6.554l-6.422,1.046l-5.743,0.55l-2.123,7.6l1.211,8.159l-1.523,6.158l-3.328-1.235
    l-2.001-5.338l-5.402-0.814l-4.331-3.893l-5.562-0.128l-1.086,5.122l0.902,5.138l5.107,3.065l5.417-0.384l4.621-0.391
    l4.171,3.039l1.318,6.089l-1.947,6.511l-0.832,8.122l-1.076,4.364l-7.804,8.665l-1.933,5.729l1.502,5.585l2.37,2.33l2.186,5.497
    l4.754,4.085l4.75-2.186l2.655-2.202l5.569,0.574l5.364,4.396l3.462,6.047l-1.804,8.722l-3.136,6.646l-7.172,5.753
    l-12.776,0.153l-12.853-0.289l-9.615,3.671l-4.899,10.42l-2.657,10.262l1.325,14.065l10.939,11.675l9.949,9.351l6.096,6.896
    l2.02,5.768l7.436,1.524l8.234-1.996l5.25-1.738l6.592,0.326l3.477,4.143l-1.93,4.101l-13.74,5.426l-14.768,1.932l-15.083-0.576
    l-11.783-3.35l-4.14,1.675l-0.839,8.13l3.813,4.748l-0.302,5.14l-2.332,1.946l-7.668-5.299l-12.485-13.133l-15.092-10.709
    l-8.14,2.362l-5.269,6.983l-4.198,6.741l-7.081,5.649l-6.678,2.353l-3.922,5.044l1.915,4.141l6.409-0.071l14.712-5.435
    l11.172-2.074l11.131,1.915l8.792,5.775l8.536,8.555l3.47,6.463l-1.905,7.356l-7.325,5.409l-11.811,5.817l-9.937,0.279
    l-8.805-3.702l-9.61-9.313l-7.199-8.426l-9.175-4.332l-9.719,3.431l0.404,7.276l0.087,4.246l-6.95,4.667l-10.412-0.47
    l-11.11-5.187l-5.284-5.251l0.679-7.516l7.577-6.83l4.135-1.293l-0.58-3.414l-5.942,0.686l-6.188,0.662l-2.573,1.557
    l-3.243-1.117l-1.668-3.901l-6.063-0.05l-6.432,1.388l-3.543,2.635l-2.928,2.409l-6.866-4.795l-5.342,0.671l-7.685-7.085
    l-8.836-1.063l-6.047-0.678l-14.287-15.742l-10.422-11.976l-6.754-4.55l-5.352,1.277l-10.014-3.352l-5.342,0.797l-2.095,3.009
    l-3.646,0.567l-0.171,4.859l-2.561,2.77l3.013,2.433l-0.515,2.672l-4.464-2.584l-1.928-0.751l-3.654,3.24l-10.879-2.649
    l-14.168-2.418l-20.856-0.191l-13.7,1.556l-9.46,0.903L293,550.352l-6.333,4.436l-4.188,6.622l-0.167,4.365l8.686,4.069
    l1.662,4.859l-2.106,3.383l-3.894,3.478l1.637,5.825l-2.447,2.896l-10.776-1.427l-9.592,0.102l-7.558,0.281l-7.286-8.123
    l-3.347-8.267l4.309-3.902l9.272-0.773l7.037-1.477l3.664-7.332l-1.983-8.242l0.094-10.469l6.846-17.577l7.859-15.877
    l2.81-6.991l9.308-5.402l7.257-6.278l5.552-7.652l6.57-6.974l17.94-12l14.512-13.589l7.387-1.979l6.755-7.827l12.567-7.076
    l12.557-3.328l6.87-2.337l0.636-12.496l-2.039-3.016l-3.535,3.303l-3.118,3.487l-6.787,2.082l-5.451,5.522l-4.563,2.177
    l-12.292,4.517l-5.96,4.668l-7.424,6.358l-16.717,11.067l-18.799,10.619l-16.531,9.473l-6.435,9.694l-2.449,5.983l-1.754,4.779
    l-7.267,7.302l-5.912,9.198l-12.118,12.417l-9.678,8.647l-12.671,8.618l-9.738,7.101l-7.066,3.207l-3.649,6.121l5.526,14.291
    l10.986,17.241l6.26,8.099l6.264,9.319l12.422,10.573l12.763,7.635l20.913,0.04l14.466-7.589l15.331-8.425l19.747-3.599
    l20.4-0.67l5.844-1.652l4.181-7.858l4.674-4.923l6.599,0.965l18.335,8.162l8.454,4.205l12.526,7.382l11.791,10.771l1.661,4.132
    l-11.15-0.343l-7.799-7.7l-10.487-5.904l-8.485-1.181l-5.432-3.312l-0.788-5.465l-8.938-2.522l-1.854,4.484l-3.045,0.576
    l0.089,3.158l8.237,1.029l11.327,7.508l6.858,4.421l7.736,2.985l5.426,2.226l4.212,4.644l3.275,11.426l5.793,17.481L434,678.284
    l9.155,18.982l9.781,16.453l14.007,19.636l15.63,13.845l15.547,8.024l22.438,11.716l22.596,7.595l8.927,4.316l7.617,0.687
    l8.704,3.719l7.383,1.875l5.317,1.747l19.232,3.438l14.635,3.653l19.914,8.905l10.637,3.862l12.35-0.255l5.475-1.765
    l15.104-0.494l8.736-0.263l11.146-0.239l10.795,0.781l12.639,3.887l16.063,5.96l6.471,4.532l6.822,4.341l3.934,0.718
    l5.809,2.112l15.535,7.344l8.025,2.807l9.671,0.432l5.579,0.398l10.077,3.527l11.449,3.351l9.223,3.168l13.748,5.96l9.542,5.825
    l8.49,8.457l9.591,9.886l7.66,7.429l9.605,6.598l12.974,7.079l4.7,0.877l5.379,2.37l8.488,8.657l5.595,7.325l9.471,6.238
    l12.414,7.995l16.173,6.456l13.532,6.175l10.819,7.619l10.222,9.775l5.923,5.815l7.418,10.947l9.702,9.773l6.718,4.78
    l9.919,4.109l13.332,3.04l18.401,3.335l13.866,1.851l11.219,0.679l7.343,2.4l18.5-0.254l7.117-0.375l15.216-5.266l1.98-1.348
    l18.001-0.688l13.395-0.559l13.972-1.931l6.28-2.689l6.798-6.287l3.071-4.212l3.504-8.315l0.358-5.4l1.109-8.896l-0.271-9.527
    l0.351-13.612l0.167-10.03l-0.31-10.786L1209.513,906.851z M816,319.998c1.322-2.376,4.602-3.63,5.24-6.71
    c2.074-0.733,3.334,1.388,4.03,2.965c2.201,2.238,3.495,5.913,1.674,8.753c-1.139,2.552-1.412,6.854-5.296,5.863
    c-2.283-0.993-7.342,1.489-7.047-2.478C815.328,325.636,815.623,322.819,816,319.998z M615.599,649.664
    c-0.573-1.987,1.18-3.789,2.491-5.066c0.853-0.583,1.833-0.933,2.734-1.443c0.114,3.135,0.28,6.271,0.488,9.431
    C618.999,652.968,616.605,651.812,615.599,649.664z M630.065,681.836c-0.191,0.878-0.566,1.731-1.205,2.369
    c-0.996,1.069-2.689,1.708-4.077,1.037c-0.502-0.312-1.141-0.382-1.572-0.853c-0.918-0.854-0.925-2.259-0.631-3.416
    c0.232-0.598-0.024-1.276,0.191-1.883c0.513-2.059,2.21-3.446,3.233-5.242c0.892,0.463,1.954,0.526,2.879,0.895
    c0.885,0.311,1.531,1.028,1.756,1.923C631.167,678.389,630.554,680.185,630.065,681.836z M714.107,614.175
    c1.277-0.671,3.303,0.438,4.197-1.316c0.416-1.971,2.402-1.804,3.942-1.604c1.866,0.176,2.593,2.697,2.36,4.285
    c-0.15,0.669-0.39,1.325-0.486,1.994c-1.492,0.998-2.672,2.992-4.754,2.585c-1.885-0.318-4.58,0.863-5.428-1.443
    C713.039,617.349,713.318,615.459,714.107,614.175z M715.609,624.045c4.435-1.213,9.039-0.607,13.563-0.63l0.485,0.286
    c2.194,0.749,2.027,4.062,0.791,5.602c-0.975,3.206-4.285,3.103-7.021,3.041c-3.225,0.398-6.416-0.975-9.599-0.344
    c-2.442,0.934-5.026,1.586-7.54,0.405c-4.428,0.559-2.299-3.949,0.105-5.186C709.001,624.962,712.344,624.644,715.609,624.045z
      M696.632,623.573c1.094-1.731,2.155-3.55,3.848-4.788c1.617-1.531,3.373-2.935,5.264-4.149c1.867-0.461,2.85,1.892,3.721,3.178
    c0.215,0.398,0.43,0.805,0.662,1.172c-1.812,2.155-3.598,4.333-5.402,6.503c-2.026,0.009-4.149,0.646-6.152,0.216
    C697.257,625.632,694.832,625.122,696.632,623.573z M676.431,625.465c2.297,0.231,4.796,0.503,6.687-1.142
    c2.026-2.131,4.979-0.462,7.429-0.472c0.152,0.305,0.302,0.614,0.455,0.927c1.658,1.963,0.718,4.276-0.726,5.999
    c-1.772,2.107-4.351,4.311-6.745,5.522c-2.824-0.255-5.711-0.511-8.52-0.686c-1.365-1.302-2.338-3.543-2.282-5.427
    C673.726,628.521,673.909,625.249,676.431,625.465z M667.781,649.753l7.957-7.206l8.001-1.38l5.833-2.602l3.449-3.486
    l2.199-3.255l2.675,0.51l1.538,2.913l-3.199,4.819l-2.609,7.133l-3.213,6.16l-5.115,4.309l-7.428,2.242l-9.098,0.511
    l-3.352-5.363L667.781,649.753z M672.313,691.395c-2.551,0.375-5.458,2.321-8.249,0.264c-0.991-1.006-1.731-2.258-3.081-2.777
    c-3.303-1.643-3.695,4.421-5.465,6.414c-2.626,2.309-6.024,1.246-8.834-0.117c-3.334-0.758-5.073-3.998-7.419-6.226
    c-2.067-3.35-2.092-9.008,0.046-12.311c1.772-3.813,6.304-4.189,9.896-5.139c5.41-1.412,11.537-0.239,16.388-3.455
    c2.106-3.151,6.176-3.742,9.463-2.194c3.879,4.31,7.143-2.761,10.381-3.813c3.869,1.084,4.667-1.694,5.076-4.948
    c3.404-1.627,5.521-4.156,5.354-8.13c1.707-5.514,6.757-8.85,10.851-12.519c4.675-1.757,9.806-0.337,14.649-0.272
    c2.904,2.059,9.279,2.194,9.23,6.24c-1.379,3.439,2.275,5.314,1.397,8.401c-2.983,2.585-7.421,3.799-10.61,6.503
    c-2.922,0.671-6.218,5.873-1.23,5.769c2.768-2.354,5.418-4.924,8.475-6.869c4.355-2.874,5.719,2.904,3.925,5.991
    c-0.909,3.376-2.331,7.557-5.864,8.849c-2.29-3.734-4.357,0.479-7.341,1.43c-2.769,0.844-3.63,7.539-6.526,5.177
    c-3.312-2.298-3.359,3.487-2.315,5.57c-3.376-1.07-5.034,2.281-7.97,3.063c-3.766,1.229-7.963-2.737-9.359-6.206
    c-3.535-0.114-2.307,5.553-3.248,7.89c-1.307,3.79-6.158,2.625-9.302,2.625C677.029,688.498,675.314,695.743,672.313,691.395z
      M740.213,690.245c-5.448-3.455-5.688,4.923-10.229,5.075c-5.22-0.566-8.935,5.003-11.018,9.016
    c0.08,5.043-5.44-1.157-6.2,3.727c1.676,2.697,0.527,4.571-1.363,6.758c-2.491,3.975-6.545,6.446-6.936,11.467
    c-2.416,3.463-3.805,1.587-5.855-0.782c-5.332,1.436-5.762-5.952-10.828-4.628c-4.636,1.365-3.615-3.295-5.825-5.753
    c-4.362-2.792-5.099-10.261,0.343-12.081c3.488-2.153,8.459-0.063,10.447-4.747c6.479,1.795,7.196-6.145,11.991-8.594
    c3.646-2.488,9.047-2.241,11.06-6.733c-0.735-4.436,3.854-3.981,5.76-6.949c4.572-2.402,10.18-4.805,15.287-3.598
    c5.371,0.987,8.521,6.286,9.91,11.177C748.816,688.299,745.123,692.2,740.213,690.245z M802.148,799.118
    c-2.57,2.904-5.922,6.023-5.936,10.149c0.787,5.233-5.188,0.406-7.383,3.502c-2.926,1.189-2.368,4.572-3.184,6.823
    c-2.727,3.533-5.321,0.111-7.236-2.202c-2.059-1.829-2.257-5.243-5.091-6.352c-3.748-0.901-2.385-5.482-5.209-7.341
    c-1.509-2.465-6.526-2.664-5.953-6.191c0.145-2.848,0.647-5.713,2.37-8.06c1.244-2.042,1.898-5.696,4.844-3.343
    c2.608,1.852,4.857-0.063,6.692-1.843c1.846-2.394,4.237-0.606,6.159,0.702c2.53,3.598,5.045-1.612,7.63-2.736
    c2.481-2.107,6.312-1.094,8.929,0.471c2.338,1.269,3.847,3.638,4.995,5.952C803.958,792.272,805.817,796.749,802.148,799.118z
      M884.642,856.895c-3.78-0.01-7.955,2.161-11.418,0.063c-5.09-2.354-9-6.448-13.445-9.783
    c-9.185-6.55-18.9-12.327-28.564-18.152c-3.087-2.194-6.463-4.108-10.245-4.803c-2.887-0.478-6.183,0.535-8.561-1.659
    c-3.424-1.54-5.776-4.667-6.218-8.362c1.988-3.413,0.473-6.606-0.773-9.814c0.607-3.43,3.369-5.464,5.913-7.523
    c2.546-2.649,6.759-0.639,10.079-1.125c4.077,0.829,8.02,2.465,11.981,3.79c3.137,0.957,6.241,2.114,8.363,4.764
    c3,2.186,4.381,5.641,6.224,8.712c2.044,3.104,6.926,1.286,10.181,1.5c4.851,3.567,8.682,8.307,12.887,12.584
    c2.77,2.472,4.781,7.165,9.111,5.306c3.584-1.284,6.072,0.017,7.707,3.318c3.271,3.072,1.43,8.003,2.116,11.985
    C890.473,851.501,886.365,853.814,884.642,856.895z M1078.268,947.559c-6.64,0.016-13.549-1.947-19.972-0.464
    c-7.772,4.917-14.899-6.558-23.035-7.586c-6.424-3.456-13.82,2.105-20.146-2.681c-6.017-2.563-13.397,0-18.297-5.003
    c-5.849-3.32-11.386-8.044-9.7-15.448c-3.728-8.282-13.248-4.708-20.021-7.148c-6.238-2.722-12.942-1.652-19.483-1.309
    c-7.175-1.149-14.946-3.814-19.582-9.719c-6.215-11.051-14.251-21.328-24.456-28.972c-6.901-4.149-3.55-11.736,1.006-16.03
    c5.92,1.39,9.862-5.337,16.021-3.479c8.681-1.3,12.727,7.996,17.338,13.548c3.063,8.729,11.322,5.37,18.202,7.022
    c8.147,4.508,13.467,12.773,20.473,18.807c2.602,5.799,16.533,0.166,11.97,8.042c-5.402,5.785,3.247,2.849,6.149,1.181
    c5.755-1.907,17.261-1.707,14.188,7.158c1.964,8.425,10.892-1.141,14.33,2.576c0.246,3.91-0.277,15.966,6.048,11.992
    c5.905-6.04,4.597,3.942,4.508,7.628c3.872,9.774,10.309-1.778,15.718-3.279c7.502-5.642,12.689,3.398,20.548,1.683
    C1076.583,929.423,1083.238,941.846,1078.268,947.559z"/>
  <path fill="#000000" d="M492.847,252.648
    c1.908,0.315,3.702,0.838,4.329,2.876c0.955,1.019,3.382,1.2,3.886-0.431c0.348-0.95,0.22-2.044-0.283-2.908
    c-2.984-1.795-5.815-3.918-8.916-5.494c-1.724-0.383-4.168-1.752-5.453-1.512c-0.135,1.668-1.504,4.236,0.854,4.972
    C488.97,251.295,490.772,252.329,492.847,252.648z"/>
  <path fill="#000000" d="M409.472,368.582
    c5.943-0.944,7.38-7.436,9.997-11.824c0.606-6.324,0.466-12.672,0.762-18.989c1.325-3.424,0.798-9.896-4.322-6.774
    c-3.189,2.473-3.525,7.088-5.528,10.473c-1.915,5.182,7.859,3.637,6.007,8.779c0.706,3.399-5.473,11.574-7.167,5.98
    c1.313-6.634-6.184-1.443-5.071,2.438C403.734,362.511,404.875,368.067,409.472,368.582z"/>
</svg>
