<svg xmlns:svg="http://www.w3.org/2000/svg" xmlns="http://www.w3.org/2000/svg" version="1.0" width="566.92065" height="786.14722" viewBox="0 0 566.92065 786.14722" id="svg2" xml:space="preserve">
	
		<g id="Northern_Mariana_Islands">
			 
			<path d="M 272.68872,45.12573 L 273.74976,44.91821 L 274.25562,45.2102 C 274.26783,45.54638 274.05494,46.07495 273.79712,46.29663 L 273.10669,46.29663 C 273.03979,45.90894 272.88843,45.46606 272.68872,45.12573 z " style="fill:#000000;fill-rule:evenodd;stroke:#000000;stroke-width:1.98430002;stroke-linejoin:round;stroke-miterlimit:3.8636899" id="path9"/>
			<path d="M 303.43726,95.50122 C 303.47974,95.76172 303.36206,96.47974 303.57447,96.6311 C 303.51148,96.70849 303.44605,96.79004 303.36939,96.85498 C 303.08032,96.37915 303.12866,95.92847 303.43726,95.50122 z " style="fill:#000000;fill-rule:evenodd;stroke:#000000;stroke-width:1.98430002;stroke-linejoin:round;stroke-miterlimit:3.8636899" id="path11"/>
			<path d="M 305.02173,97.05981 C 305.00073,96.67163 305.09644,96.28955 305.06958,95.90795 L 305.4602,95.7495 C 305.62084,96.01928 305.60229,96.46703 305.4602,96.74315 C 305.30542,96.83301 305.15747,96.94336 305.02173,97.05981 z " style="fill:#000000;fill-rule:evenodd;stroke:#000000;stroke-width:1.98430002;stroke-linejoin:round;stroke-miterlimit:3.8636899" id="path13"/>
			<path d="M 320.57153,128.07959 L 320.2976,128.03027 C 320.40893,127.71313 320.49291,127.28808 320.45776,126.94946 C 320.70434,126.56714 320.8601,126.32788 321.18872,126.03759 C 322.04565,125.7849 322.79663,126.64037 322.9519,127.40527 C 322.85815,127.75195 322.71801,128.03735 322.54223,128.34448 C 322.02075,128.74414 320.98169,128.55103 320.57153,128.07959 z " style="fill:#000000;fill-rule:evenodd;stroke:#000000;stroke-width:1.98430002;stroke-linejoin:round;stroke-miterlimit:3.8636899" id="path15"/>
			<path d="M 346.69214,216.06665 L 346.8523,216.67798 C 347.2107,216.92603 347.6775,217.05493 348.01148,217.28931 C 348.66285,217.74683 348.6565,219.8938 348.7107,220.63062 C 348.34693,220.76001 348.34644,221.68384 348.40797,221.98462 C 348.22633,222.54321 347.60768,222.62866 347.0857,222.70239 C 346.85084,223.00219 346.77174,223.40307 346.5105,223.67407 C 343.71216,224.406 342.32495,217.9895 344.27124,216.48999 L 344.61597,216.40259 C 344.70386,216.13111 344.77613,215.97046 344.75415,215.67896 L 346.69214,216.06665 z " style="fill:#000000;fill-rule:evenodd;stroke:#000000;stroke-width:1.98430002;stroke-linejoin:round;stroke-miterlimit:3.8636899" id="path17"/>
			<path d="M 351.50464,290.32104 C 351.24976,290.25512 350.97583,290.18383 350.71021,290.18481 C 350.85376,289.62475 351.7273,287.2434 351.97046,286.87085 C 352.01734,286.79907 352.53638,286.5061 352.60474,286.46704 C 354.2312,286.99634 355.46509,283.74683 355.34839,282.50903 C 355.28003,281.77807 355.07153,281.21167 354.9436,280.49438 C 355.13256,279.80102 355.50415,279.24731 355.90503,278.66821 C 357.70239,278.13012 361.02857,279.79858 359.9148,281.93042 C 359.57886,282.57251 359.2771,283.36304 358.79419,283.91187 L 358.69946,284.85914 L 358.56372,284.88111 L 358.13257,284.2942 C 357.67896,284.11158 356.72486,284.12965 356.40552,284.55885 C 355.91089,285.22194 355.17163,285.9861 354.78638,286.69899 C 353.91577,288.31032 354.82202,288.53444 352.39283,289.80495 C 352.09058,289.96313 351.80005,290.14966 351.50464,290.32104 z " style="fill:#000000;fill-rule:evenodd;stroke:#000000;stroke-width:1.98430002;stroke-linejoin:round;stroke-miterlimit:3.8636899" id="path19"/>
			<path d="M 361.85962,332.33569 C 361.99732,332.46704 363.36401,333.28637 363.5105,333.35669 L 363.71216,333.89722 C 363.61743,335.094 362.30298,335.6316 361.28296,335.69605 C 361.08228,335.23902 360.88452,334.7815 360.70044,334.31763 C 360.98218,333.42163 361.10181,332.98267 361.85962,332.33569 z " style="fill:#000000;fill-rule:evenodd;stroke:#000000;stroke-width:1.98430002;stroke-linejoin:round;stroke-miterlimit:3.8636899" id="path21"/>
			<path d="M 362.58472,363.25708 C 362.35279,362.7229 362.6897,362.04028 363.14576,361.73657 C 363.24342,361.76147 363.42945,362.0227 363.43385,362.12427 C 363.62135,362.06128 363.8484,362.01197 364.00367,362.16529 C 363.9773,362.82691 363.75806,363.09547 363.27955,363.46705 C 362.99341,363.42114 362.81567,363.41675 362.58472,363.25708 z " style="fill:#000000;fill-rule:evenodd;stroke:#000000;stroke-width:1.98430002;stroke-linejoin:round;stroke-miterlimit:3.8636899" id="path23"/>
			<path d="M 363.84644,404.0354 L 363.91285,404.6438 C 363.78785,404.8606 363.39283,405.08521 363.16724,405.15991 L 362.87622,405.09155 L 362.76196,404.77514 C 362.80395,404.53784 362.99682,404.13891 363.21655,404.01098 L 363.84644,404.0354 z " style="fill:#000000;fill-rule:evenodd;stroke:#000000;stroke-width:1.98430002;stroke-linejoin:round;stroke-miterlimit:3.8636899" id="path25"/>
			<path d="M 357.01978,422.49829 C 356.80152,422.06518 356.43384,421.67554 356.25855,421.23462 L 356.57691,420.64771 C 356.89771,420.57105 357.08668,420.28736 357.38746,420.22193 C 357.57203,421.07496 357.76978,421.72828 357.92066,422.63502 L 357.71754,422.72535 C 357.56958,422.54712 357.23169,422.54614 357.01978,422.49829 z " style="fill:#000000;fill-rule:evenodd;stroke:#000000;stroke-width:1.98430002;stroke-linejoin:round;stroke-miterlimit:3.8636899" id="path27"/>
			<path d="M 350.39038,455.43188 L 350.54468,455.88208 C 350.54419,456.38208 349.84302,457.31177 349.44019,457.63745 C 348.60718,457.82104 346.57544,457.22681 346.00171,457.8772 L 345.97974,457.67554 C 345.66578,457.5979 345.08765,457.69947 344.85376,457.94312 C 344.36353,458.00171 342.57495,457.23072 342.3396,456.76636 C 342.36206,456.14868 342.33228,455.40698 342.61646,454.85034 C 343.18873,454.14282 346.43824,454.80591 346.61841,454.76831 C 348.19702,454.4397 347.82544,454.47876 349.13306,454.93188 C 349.57349,455.08472 349.99927,455.14966 350.39038,455.43188 z " style="fill:#000000;fill-rule:evenodd;stroke:#000000;stroke-width:1.98430002;stroke-linejoin:round;stroke-miterlimit:3.8636899" id="path29"/>
			<path d="M 384.36548,489.24097 L 385.52905,488.98999 C 385.59057,489.12573 385.61792,489.29468 385.61548,489.44311 C 385.12818,489.90698 384.63208,489.92797 384.39771,490.65258 L 383.99634,490.82983 C 383.95728,490.98657 383.76294,491.1853 383.61011,491.23364 L 383.54517,491.09741 C 384.03589,490.27808 384.1604,490.24341 384.36548,489.24097 z " style="fill:#000000;fill-rule:evenodd;stroke:#000000;stroke-width:1.98430002;stroke-linejoin:round;stroke-miterlimit:3.8636899" id="path31"/>
			<path d="M 354.37671,580.12183 C 353.64575,578.29224 351.50903,579.38013 350.94409,579.12525 C 350.72485,578.61158 349.62329,577.85328 349.17212,577.5857 C 349.16577,577.54273 349.1228,577.31129 349.13013,577.29127 C 349.37232,576.61793 349.68579,575.90846 349.87574,575.22193 C 350.01002,574.73511 349.96754,574.08423 350.14381,573.62232 C 350.23902,573.37232 350.77076,572.82105 350.89625,572.54712 C 351.24098,571.79517 351.46168,570.69849 351.60572,569.86939 C 351.24879,568.93628 351.33961,569.30884 351.4026,568.26148 L 351.69948,567.90406 L 351.90114,567.97486 L 352.39723,567.66382 L 352.48512,567.86841 C 352.85377,567.57886 354.4109,565.75366 354.86549,565.77759 L 355.07154,565.41968 C 358.5608,564.45728 357.91968,561.79907 360.46509,560.97339 C 360.95874,561.17505 361.59937,561.76636 361.8147,562.25903 L 362.3064,562.4226 C 362.37232,562.74242 362.30005,563.93725 361.99048,564.09057 C 361.80347,563.906 360.90503,563.99194 360.67017,564.02758 L 360.3816,565.31078 L 360.55494,565.76635 L 360.43971,566.01196 C 359.6609,566.17114 359.44264,567.10913 358.44996,567.36352 C 358.19215,567.93383 357.88404,568.552 357.7317,569.16235 L 357.90211,569.84204 L 357.511,570.44507 L 357.52418,571.2146 L 358.07496,571.76343 L 358.15406,572.57984 L 358.28541,572.76246 L 358.99928,573.04371 L 359.0569,573.6526 C 358.51735,574.15065 358.56081,574.28102 358.39088,574.9109 L 357.09303,574.68971 C 356.90016,574.3777 356.66969,574.0569 356.50367,573.7317 C 355.96168,573.47389 355.06471,573.9944 354.65797,574.29371 L 354.13307,575.36939 C 354.21901,576.35035 354.35573,576.96705 355.39772,577.44361 C 355.33278,578.34302 354.8401,579.13306 354.82497,579.969 L 354.64479,580.19263 C 354.60278,580.18091 354.40894,580.11304 354.37671,580.12183 z " style="fill:#000000;fill-rule:evenodd;stroke:#000000;stroke-width:1.98430002;stroke-linejoin:round;stroke-miterlimit:3.8636899" id="path33"/>
			<path d="M 346.44556,593.7561 C 346.70142,593.9934 346.70826,594.19165 346.74976,594.50415 C 346.40064,594.69507 346.20093,594.64331 345.78638,594.6272 C 345.35962,596.07544 345.28931,595.91529 344.18482,597.13843 L 343.62818,596.90357 C 343.30787,596.72974 343.57398,593.74732 342.85425,592.84742 C 342.60523,592.69996 342.1687,592.51539 341.9646,592.31763 C 341.48462,591.85376 341.87817,590.52271 340.85132,590.28931 L 340.1565,590.53003 L 339.97779,590.45874 C 339.70386,590.07593 339.40162,589.67407 339.18775,589.2522 L 339.39527,588.82349 C 339.47681,588.50513 339.09839,587.93726 338.89332,587.73462 C 339.04078,586.30005 340.62379,585.11353 340.28492,584.15894 C 340.44703,583.72681 340.90992,583.45093 341.12672,583.06177 C 341.96119,581.56519 343.51588,580.85181 344.40113,579.37622 C 344.42945,579.32934 344.51832,579.27856 344.56129,579.24292 C 346.79469,579.46216 345.71998,582.35718 346.20045,583.55835 C 346.20484,583.90747 345.53834,584.52026 345.29225,584.69946 C 345.0359,586.13159 345.5901,587.54175 347.17506,587.88745 C 347.45582,588.39966 347.66676,589.2688 347.48219,589.85815 C 347.07056,591.17407 346.70532,592.40796 346.44556,593.7561 z " style="fill:#000000;fill-rule:evenodd;stroke:#000000;stroke-width:1.98430002;stroke-linejoin:round;stroke-miterlimit:3.8636899" id="path35"/>
			<path d="M 337.89136,602.70679 C 338.13306,602.73413 338.49976,602.92017 338.64429,603.12183 L 338.5979,603.46021 L 337.05688,604.95582 C 336.31323,604.91627 335.1975,605.36793 334.9934,605.33521 L 334.63891,605.05982 L 334.55834,604.42652 L 334.90111,603.79859 C 335.63501,603.42212 337.448,603.1355 337.89136,602.70679 z " style="fill:#000000;fill-rule:evenodd;stroke:#000000;stroke-width:1.98430002;stroke-linejoin:round;stroke-miterlimit:3.8636899" id="path37"/>
			<path d="M 307.26685,668.0105 C 308.49781,668.63745 310.19996,668.3689 311.24585,669.21167 C 311.28589,669.34741 310.96509,671.59497 310.94605,671.85425 L 310.26685,672.79566 C 309.62671,673.05347 308.88111,672.65943 308.30054,672.81763 L 306.62378,673.2732 L 305.80786,674.48267 L 305.8855,675.25513 C 305.73023,675.47242 305.29224,675.62329 305.03638,675.60474 C 304.89576,675.9065 304.4065,676.68726 304.03882,676.77027 C 303.50708,676.44556 302.61841,677.10132 301.89624,676.74537 C 301.46899,676.99195 300.49194,677.4026 299.9729,677.3108 L 299.73071,677.01295 C 299.79907,676.62623 299.8938,675.72047 299.72925,675.33961 C 299.39575,675.11012 298.24829,674.39967 297.82007,674.45826 C 296.86109,674.82642 296.48023,676.5774 295.47437,676.69361 C 295.40064,676.40455 295.43531,675.83863 295.62134,675.58814 C 295.92456,675.1814 296.46216,674.88209 296.74927,674.469 C 297.50708,673.37671 298.12378,672.21607 298.95191,671.14722 C 300.20582,670.70533 300.6775,671.37036 302.86207,670.51392 C 303.92018,670.09888 304.52223,669.4441 305.38209,668.80249 C 305.65309,668.60034 306.12623,668.44067 306.43775,668.24829 C 306.50122,668.20874 307.15015,668.04419 307.26685,668.0105 z " style="fill:#000000;fill-rule:evenodd;stroke:#000000;stroke-width:1.98430002;stroke-linejoin:round;stroke-miterlimit:3.8636899" id="path39"/>
			
			
		</g>
	</svg>
