<?xml version="1.0" encoding="utf-8"?>
<svg version="1.1" id="Capa_1" xmlns="http://www.w3.org/2000/svg" xmlns:xlink="http://www.w3.org/1999/xlink" x="0px" y="0px"
	 viewBox="0 0 517.4 522.3" style="enable-background:new 0 0 517.4 522.3;" xml:space="preserve">
<g id="XMLID_80_">
	<g id="XMLID_43_">
		<path id="XMLID_101_" d="M459.5,307.1c-2.2-16.5-4.4-32.1-6.2-47.8c-0.5-4.2,0.5-8.6,1-12.9c0.6-4.8,1.8-9.5,1.9-14.3
			c0.1-2.5-0.9-5.7-2.6-7.5c-8.5-9.1-5.6-18.6-1.9-28.4c1.3-3.3,2.7-6.9,2.6-10.3c-0.1-14.5,3.4-28.3,7.6-41.9
			c2.9-9.6,3.2-18.7-1.3-27.8c-2.6-5.3-3-10.5-0.8-16.2c2.1-5.7,3-11.7,0.8-17.8c-1.1-3.1-2.9-5-6.3-5.8c-9.3-2-18.6-4.3-27.9-6.4
			c-7.8-1.8-9.6-4-9.4-11.9c0-2.3,0.2-4.5,0.5-6.8c1.2-11.5-3.6-17.8-15.2-18.5c-5.8-0.4-11.8,0.4-17.6,1.3
			c-6.9,1.1-12.4-0.6-17.2-5.8c-9-9.7-11.3-9.7-20.9-0.6c-1.5,1.5-3.1,2.9-4.3,4.7c-3.9,5.6-9,9.3-15.5,11.3
			c-7.1,2.1-11.9,6.8-15.6,13.1c-6.2,10.4-11.5,21.1-9.8,33.8c0.4,3.1-0.9,5.2-3.7,7.1c-2.1,1.5-3.8,4.3-4.5,6.8
			c-1.9,7.1-1.6,14.1,3.3,20.3c2,2.5,2,5.2-0.2,7.4c-4.4,4.6-8.7,9.3-13.5,13.4c-5.3,4.6-7.2,9.8-4.8,16.6
			c4,11.6,7.7,23.3,11.9,34.8c2.5,6.9,3.2,13.7,0,20.3c-6.2,12.5-4.7,24.2,2.2,35.9c4.1,6.9,7.6,14.1,11.6,21.1
			c2.8,5,7.1,7.6,12.9,8.1c2.6,0.2,5.8,0.8,7.6,2.4c6.5,5.7,14.4,6.5,22.4,7.5c3.7,0.5,7.5,1.3,10.9,2.8c4.8,2,5.9,6.6,3.9,13.4
			c-1.6,5.5-4,7.1-9.6,6.7c-3.3-0.2-6.7-0.3-10-0.4c-5.2-0.1-9.6,1.9-13.6,5.3c-11.4,9.7-22.6,19.5-35.6,27.4
			c-9.7,5.9-15.8,15.8-20.5,26.1c-1.5,3.2-1.4,7.6-0.7,11.1c3.4,16.2-2.7,29.3-12.2,41.7c-2.5,3.2-4.6,7.2-5.4,11.2
			c-2.4,12.1,8.5,22.3,20.1,18.5c14.8-4.9,29.7-4.8,44.9-3.6c6.4,0.5,13.1-1.4,19.6-2.4c3.7-0.5,7.4-1.7,11.1-1.9
			c5.4-0.3,9.8-2.4,14-5.6c6.2-4.7,13-8.8,19.3-13.5c3.2-2.4,6.2-5.3,8.7-8.5c3.3-4.4,6.8-8.1,12.1-9.8c4.4-1.5,6.5-4.8,6.9-9.3
			c0.7-7.8,0.6-15.7,5.1-22.8c0.9-1.4,0.2-4.2-0.5-6.1c-1.7-4.5-1.4-8.6,1-12.7c2.8-5,5.8-9.8,8.4-14.9c0.8-1.5,0.8-3.5,0.6-5.3
			c-0.6-6.2,1.4-10.8,6.9-14.2c2.1-1.3,4-3.8,4.9-6.2c3.6-9,5.9-10.9,15.8-11.4C454.7,307.7,456.6,307.4,459.5,307.1z"/>
		<path id="XMLID_100_" d="M133.7,369c-2.2,2.9-4.2,5.3-6,7.9c-21.8,30.3-47.1,57.3-74.9,82.1c-2.3,2-2.8,3.7-1.8,6.6
			c3.8,10.5,7.4,21.1,11,31.7c1.6,4.7,4.4,5.4,7.2,1.2c2.7-4,6.4-5.5,10.4-7.4c3-1.4,5.4-4.4,7.7-7c2.1-2.3,3.3-5.5,5.5-7.7
			c3.8-3.7,4.6-8,3.7-12.9c-0.4-2.4-0.7-4.8-1-7.2c-1-6.6,1-12.2,5.8-16.9c10.8-10.6,21.4-21.4,32.3-32c2.7-2.6,5.9-4.7,8.9-7
			c2.4-1.8,5.1-3.3,7.4-5.2c4.9-4.1,4.8-8.7,0-12.7C144.6,378.2,139.3,373.7,133.7,369z"/>
	</g>
</g>
</svg>
