<svg xmlns="http://www.w3.org/2000/svg" xmlns:xlink="http://www.w3.org/1999/xlink" version="1.1" id="Layer_1" x="0px" y="0px" viewBox="0 0 1240.352 1643.394" enable-background="new 0 0 1240.352 1643.394" xml:space="preserve">
<g>
	<g>
		<path fill="#000000" d="M1223.844,703.207c-1.149-1.212-2.811-1.964-3.604-3.427c-0.575-2.591-0.24-5.276-0.282-7.888    c0.366-0.073,1.118-0.219,1.484-0.282c-0.198-0.376-0.606-1.118-0.815-1.484c-6.549-1.373-2.861,11.7-34.007-74.764    c-8.391-24.678-5.492,0.812-29.578-95.806c-24.946-89.291,11.758-68.756-24.782-148.807    c-8.934-17.396-21.593-19.449-31.479-68.746c-2.712-13.262-28.047-69.009-54.328-113.765    c-15.854-26.77-24.294-26.516-36.766-45.866c-12.661-18.923-10.374-68.002-88.283-87.249    c-72.241-17.113-88.345-18.358-103.882-17.145c-10.656,0.423-56.927,8.52-85.64,0c-26.606-5.805-51.319-27.539-122.207-9.267    c-28.143,8.259-23.986,18.663-41.258,23.737c-11.604,3.486-31.031,6.739-26.579,20.875c3.322,7.063,11.879,9.967,19.245,9.288    c33.616-6.616,39.215,14.233,51.998,14.167c101.721,3.868,7.851-31.245,199.677-31.688c21.303-0.076,56.799,8.964,62.801,10.667    c18.063,5.093,22.911,16.755,31.761,20.791c9.552,5.595,25.207,1.101,29.933,24.364c2.421,11.457-4.352,17.24,8.505,24.845    c3.918,2.529,8.776,1.484,13.164,1.588c19.035-0.989,34.518,13.042,39.91,28.982c1.455,4.174,3,16.133,16.194,27.655    c4.43,4.242,9.936,7.648,12.84,13.248c28.157,53.486,17.857,49.956,38.333,89.098c32.362,69.131,36.331,74.221,40.046,86.444    c14.098,42.922,13.904,134.303,40.83,182.731c9.873,17.719,13.101,38.385,12.14,58.466c0.449,7.523-9.432,36.224-15.64,40.38    c-23.682,12.258-35.755-24.515-53.231,78.65c-6.208,31.719-5.406,11.784-166.004,130.597    c-7.878,6.185-15.724,12.454-24.427,17.458c-7.355,5.119-15.755,8.839-22.149,15.233c-26.104,25.378-20.717,19.806-35.888,25.848    c-11.284,4.284-24.374,0.637-35.063,6.854c-1.682,0.94-3.667,1.807-4.43,3.719c-12.86,28.692-22.065,29.788-54.485,54.255    c-11.347,8.22-15.607,8.882-62.759,27.018c-2.967,5.276-5.391,11.733-2.455,17.594c3.834,2.915,8.828,0.47,12.924-0.585    c13.467-4.451,28.157-2.81,41.425-7.982c23.024-8.566,17.276-13.532,34.3-31.458c9.109-9.3,36.452-14.833,40.088-16.184    c17.399-4.525,24.006-12.104,47.422-35.188c6.373-6.446,14.46-10.667,21.742-15.912c11.097-8.138,19.846-4.288,45.333-23.601    c11.887-9.035,12.18-2.068,56.261-42.961c26.48-24.89,56.521-16.226,82.255-27.551c17.431-7.145,104.399-86.306,134.525-106.682    c7.721-5.36,15.034-11.67,20.227-19.589c3.563-5.401,2.904-12.109,1.776-18.137    C1221.901,704.889,1222.852,704.032,1223.844,703.207z M1204.882,723.402c-2.403,0.564-5.12,3.751-7.303,1.107    c-0.439-1.849,0.449-3.657,0.919-5.401c2.706,0.522,5.475,0.512,8.222,0.146c-1.055-1.222-2.037-2.403-3.061-3.594    c2.351-3.218,4.252-6.77,6.885-9.779c0.491-0.167,1.463-0.512,1.943-0.679C1212.621,725.467,1209.18,721.191,1204.882,723.402z"/>
		<path fill="#000000" d="M342.412,163.717c6.195-1.107,10.343-6.237,14.846-10.155c3.636-3.448,7.951-6.039,11.858-9.142    c5.224-4.148,7.658-11.054,13.551-14.449c10.709-5.982,14.445-5.721,43.546-9.09c13.579-1.444,9.999-6.858,37.925-6.394    c5.151-0.888,9.737-3.824,14.439-5.997c3.636-5.36,5.527-12.537,2.978-18.722c-8.958-10.603-41.19,2.047-53.67,7.063    c-20.016,9.248-11.636,0.801-41.08,4.827c-43.516,6.054-24.267,13.805-35.773,19.558c-18.571,11.183-10.088,13.366-15.275,23.236    c-3.009,3.719-7.742,5.496-10.834,9.131c-1.828,2.319-1.807,5.443-2.361,8.212C328.777,164.501,335.788,164.752,342.412,163.717z"/>
		<path fill="#000000" d="M284.124,267.254c1.755,6.275,14.964,13.119,24.97,30.424c2.904,4.963,2.351,11.336,6.049,15.901    c14.277,18.249,18.27,17.569,21.209,24.772c3.124,6.948,8.463,14.052,16.497,15.222c5.644-3.226,0.443-11.147,3.803-17.73    c2.393-4.534,7.115-7,11.116-9.894c13.473-9.059,33.156-36.35,30.413-53.471c-14.205-31.142-34.411-12.732-59.458-20.989    c-6.133-1.64-8.578-8.567-14.522-10.5c-20.368-7.31-15.824-18.789-24.792-21.595c-3.26-1.128-7.909-2.727-10.281,0.784    c-4.315,6.081-6.384,13.843-5.496,21.261C285.338,258.106,282.25,260.286,284.124,267.254z"/>
		<path fill="#000000" d="M298.531,336.565c-3.667,0.397-6.739,2.706-9.946,4.336c-0.316,8.345-1.077,7.748,13.519,18.169    c2.748,2.319,6.54,0.94,9.257-0.711c2.539-2.507,1.348-6.415,1.013-9.528C311.355,344.625,312.786,340.346,298.531,336.565z"/>
		<path fill="#000000" d="M392.404,363.039c7.06-2.566,5.367-18.583-7.345-10.49c-3.803,2.643-8.703,4.691-10.239,9.455    C380.556,363.217,386.585,364.387,392.404,363.039z"/>
		<path fill="#000000" d="M419.014,367.876c-4.963,2.393-6.801,10.479-1.807,13.833c14.574,6.693,12.215-7.003,15.201-11.921    c1.379-2.204,1.212-4.837,1.024-7.313C422.669,363.349,429.072,362.092,419.014,367.876z"/>
		<path fill="#000000" d="M365.501,389.754c6.007,2.967,12.109,5.819,17.73,9.497c0.428-5.569-0.491-11.398,1.766-16.675    c2.069,2.121,4.44,4.116,5.746,6.843c1.86,4.879,0.679,10.667,3.678,15.16c2.351,1.567,5.234,0.815,7.763,0.188    c3.784-9.683,2.117-23.908-6.812-29.139c-9.695-4.691-20.969-2.758-31.218-1.254c2.403,3.375,4.942,6.645,7.752,9.706    C369.001,385.042,366.337,386.609,365.501,389.754z"/>
		<path fill="#000000" d="M132.642,797.915c7.157,0.146,13.321-4.492,17.719-9.737c0.725-1.812-1.589-43.893-1.787-45.834    c-3.558-17.727-13.798-27.57-34.269-51.392c-14.984-17.428-25.5-63.125-7.961-92.421c10.906-18.215,19.459-36.632,29.275-46.033    c42.533-45.154,124.261,0.789,130.419-37.57c0.02-14.495-8.014-15.861,0.46-54.286c5.331-15.609,16.869-7.077,27.519-15.128    c4.963-3.02,7.919-8.452,9.173-13.979c-1.726-19.264-11.246-14.727-17.228-24.897c-1.578-7,0.397-14.376-1.734-21.334    c-40.97,7.926-22.906,30.222-33.537,43.995c-14.301,17.259-45.701,23.075-44.643,49.063c0.334,3.249-1.766,7.24-5.391,7.073    c-5.61-1.108-10.072-5.287-15.755-6.227c-29.438-4.924-62.857,31.846-93.173,57.567c-5.36,4.419-2.821,12.673-7.627,17.458    c-6.822,8.118-19.976,6.613-25.9,15.786c-3.385,6.394-5.119,13.78-10.134,19.255c-5.746,6.551-17.333,2.497-21.961,10.542    c-6.279,10.49,2.424,23.131-2.487,33.976c-2.737,5.412-7.815,10.385-7.031,16.925c6.166,18.252,40.382,32.003,52.197,43.964    c13.989,13.299,8.31,10.403,14.669,18.775c4.751,6.284,17.361,16.589,21.136,36.515c1.598,8.4,5.381,16.152,9.821,23.392    C123.384,787.818,119.134,797.096,132.642,797.915z"/>
		<path fill="#000000" d="M125.862,895.424c4.963,1.693,10.698,2.602,14.209,6.896c5.838,6.948,7.082,4.775,28.992,0.46    c6.948-1.222,12.433-6.039,18.91-8.494c7.501-3.5,15.839-4.21,23.612-6.822c5.548-1.787,11.43-1.202,17.155-1.254    c12.404-0.56,14.271,15.729,28.784,6.488c2.275-1.451,20.637-8.806-3.312-24.166c-9.78-8.622-27.784-6.069-34.216-7.24    c-30.467-5.645-21.709-8.523-34.154-11.618c-30.582-5.985-6.985-0.052-41.477-22.672c-6.76-4.609-19.357-4.845-20.049,3.375    c-4.64,34.564,2.257,35.469,1.222,52.28C125.318,886.909,125.391,891.182,125.862,895.424z"/>
		<path fill="#000000" d="M520.786,1211.206c-3.009-0.271-5.966,0.721-8.766,1.682c-7.93,8.306-13.195,18.545-18.586,28.554    c-0.938,1.957-14.201,18.981-14.439,29.943c0.031,4.587-4.043,7.564-5.339,11.701c-0.449,3.385,0.104,6.822-0.24,10.239    c-0.188,3.427-1.421,6.979-0.24,10.375c2.925,9.058,4.388,18.764,3.333,28.261c-2.482,6.881-13.257,8.63-11.733,13.509    c0.637,3.981,2.382,7.763,2.581,11.837c-4.508,16.933-13.564,8.254-16.748,53.994c-0.46,6.018,1.557,12.569-0.888,18.221    c-4.597,2.236-9.215,4.492-13.133,7.846c-3.51,3.312-8.651,1.525-12.84,3.093c-4.743,1.651-10.312,2.027-14.898-0.219    c-3.897-5.005-3.093-12.704-8.013-17.166c-4.263-2.393-10.113-1.327-13.666-5.13c-4.587-4.931-4.44-12.046-5.861-18.21    c-1.536-3.051-4.722-0.031-6.822,0.69c-9.029,5.685-14.717-9.784-16.831-12.475c-7.98-7.459-14.447-5.581-16.643-21.167    c-0.46-4.513-4.67-7.063-7.313-10.291c-4.179-4.273-5.182-10.521-8.891-15.086c-5.14-5.882-14.042-5.537-19.475-10.981    c-13.615-12.966,3.946-24.075,0.199-35.533c-1.807-0.449-3.615-0.888-5.422-1.285c-2.288-4.597,1.473-8.996,1.348-13.572    c-3.031-3.99-19.455-16.411-24.333-32.848c-0.965-23.896,8.886-25.374,7.031-42.742c-2.907-29.621-5.929-23.394-13.875-40.621    c-2.11-4.409-4.91-9.194-3.343-14.251c1.912-5.987,3.343-12.475,7.627-17.291c11.614-13.413,12.484-14.738,22.578-17.417    c0.512-1.745,1.369-3.636,0.293-5.339c-8.691-17.833-25.846-20.43-31.437-21.846c-64.582-16.231-70.106-34.073-92.159-60.356    c-14.893-17.88-37.977-61.721,0.105-74.273c25.763-8.255,29.019-2.762,47.61-9.549c4.952-1.954,10.625-2.643,14.878-6.007    c6.129-10.709-2.013-18.684-12.924-24.761c-9.671-6.627-11.554-18.675-42.177-2.079c-5.349,2.884-11.472,3.584-17.082,5.746    c-26.532,9.881-16.354-2.8-42.282,21.501c-21.993,21.298-6.548,36.359-4.367,46.451c3.458,11.618,3.897,25.054,12.725,34.269    c9.257,9.957,16.278,21.972,26.872,30.664c5.285,4.594,36.196,42.424,43.379,55.76c13.494,24.64,16.204,22.368,19.098,31.124    c2.351,6.812,6.582,12.819,8.463,19.809c1.525,5.433,3.542,10.73,6.175,15.734c4.545,8.519,2.498,12.027,9.09,31.437    c2.152,6.436,1.087,13.446,3.187,19.903c5.519,17.025,15.924,68.232,21.084,78.285c2.946,6.739,8.358,11.879,12.203,18.064    c11.755,18.356,5.245,23.275,9.152,31.552c12.786,27.567,10.704,39.969,18.325,57.797c3.96,8.64,4.158,18.367,7.522,27.206    c9.54,25.536-0.745,41.488-12.579,60.451c-4.754,7.972-5.506,17.416-7.418,26.297c-3.166,12.161-8.097,23.748-12.287,35.554    c-7.954,28.322,6.233,44.72,12.798,48.582c22.558,13.193,23.809,5.404,34.457,10.479c18.15,7.898,14.7,4.289,37.946-7.261    c9.372-4.566,17.26-11.493,26.192-16.79c8.484-5.757,17.97-10.155,25.388-17.375c19.205-18.367,36.896-25.037,47.965-29.337    c21.246-8.09,37.189-3.527,46.022-11.388c12.886-9.388,3.475-36.446-7.334-50.118c-6.37-8.121-22.574-36.312-23.257-37.319    c-7.668-11.525-16.797-19.25-15.536-51.016c0.873-22.936,18.982-31.84,30.413-50.818c8.752-14.457-9.273-40.258-3.584-59.907    C504.468,1247.255,539.639,1215.188,520.786,1211.206z M326.75,1549.326c-7.456-18.017,9.146-25.596,14.491-35.951    c3.009-7.219,1.348-16.298,6.864-22.431c4.022-4.189,10.291-0.94,13.185,2.925c22.056,38.031,21.44-2.791,23.382-10.312    c1.013-4.963,4.639-8.88,5.611-13.833c1.212-5.412,2.173-11.085,5.297-15.786c2.424-1.473,5.663-0.752,7.481,1.369    c1.849,1.651,1.504,4.336,1.86,6.582c0.836,0.585,1.672,1.181,2.528,1.807c2.267-1.943,4.482-3.939,6.582-6.049    c33.198,6.689,11.616-12.653,35.021-8.41c-1.884,6.343,0.535,3.787-9.152,10.082c0.846,3.834,4.054,6.101,7.052,8.243    c-0.261,2.601-1.076,5.307-0.366,7.919c2.528,2.215,6.3,2.215,9.403,3.27c0.073,1.661,0.157,3.333,0.251,5.025    c-1.766,0.46-3.646,0.679-5.245,1.599c-0.449,1.212-0.543,2.528-0.731,3.824c9.018,4.751,11.822,1.446,4.127,19.297    c-2.716,6.363-9.194,9.748-13.101,15.264c-4.085,5.934-11.503,7.313-17.416,10.688c-62.932,35.573-48.507,49.559-75.098,47.558    C342.175,1581.575,330.778,1559.389,326.75,1549.326z"/>
		<path fill="#000000" d="M611.9,1105.413c-3.506,0.551-12.589,17.179-25.273,30.758c-4.513,5.548-9.988,10.155-15.013,15.181    c-3.366,8.6-7.215,21.89,1.807,24.04c8.463,2.127,27.612-5.798,35.407-9.831c10.588-5.257,10.524-26.594,15.233-36.933    c2.131-4.743,4.116-9.79,3.521-15.097C627.659,1104.699,618.645,1105.055,611.9,1105.413z"/>
	</g>
	
</g>
</svg>
