<?xml version="1.0" standalone="no"?>
<!DOCTYPE svg PUBLIC "-//W3C//DTD SVG 20010904//EN"
 "http://www.w3.org/TR/2001/REC-SVG-20010904/DTD/svg10.dtd">
<svg version="1.0" xmlns="http://www.w3.org/2000/svg"
 width="1024.000000pt" height="1024.000000pt" viewBox="0 0 1024.000000 1024.000000"
 preserveAspectRatio="xMidYMid meet">
<metadata>
Created by potrace 1.14, written by Peter Selinger 2001-2017
</metadata>
<g transform="translate(0.000000,1024.000000) scale(0.100000,-0.100000)"
fill="#000000" stroke="none">
<path d="M2412 9580 c-66 -17 -179 -69 -208 -95 -7 -5 -24 -19 -40 -30 -15
-11 -32 -26 -38 -33 -6 -7 -29 -30 -51 -52 -22 -21 -150 -150 -285 -285 -289
-291 -281 -283 -407 -407 -55 -54 -109 -108 -120 -120 -11 -13 -90 -92 -175
-176 -85 -84 -152 -155 -149 -157 2 -3 0 -5 -5 -5 -6 0 -95 -86 -199 -191
-105 -105 -198 -199 -208 -208 -10 -9 -96 -95 -192 -191 -153 -154 -188 -191
-222 -235 -28 -36 -77 -146 -93 -212 -23 -86 -22 -210 1 -298 63 -243 315
-463 551 -479 25 -2 51 -7 57 -10 6 -4 11 -4 11 1 0 4 21 8 48 9 26 1 58 4 72
7 58 12 86 20 95 27 6 4 26 13 45 20 77 30 173 116 580 524 234 234 429 426
434 426 4 0 6 -7 2 -15 -3 -8 0 -15 6 -15 7 0 7 -4 0 -13 -7 -8 -7 -18 -2 -27
5 -8 6 -18 3 -24 -9 -13 -9 -66 -1 -66 4 0 3 -13 -2 -30 -5 -18 -5 -30 0 -30
6 0 6 -10 0 -25 -6 -15 -6 -27 0 -30 6 -3 6 -15 0 -30 -6 -16 -6 -25 0 -25 6
0 6 -9 1 -22 -5 -13 -5 -33 0 -45 5 -14 5 -23 -1 -23 -6 0 -6 -9 0 -25 6 -15
6 -27 0 -30 -6 -3 -6 -15 0 -30 6 -15 6 -25 0 -25 -5 0 -5 -12 0 -30 5 -16 6
-30 2 -30 -4 0 -7 -13 -7 -30 0 -16 3 -30 7 -30 4 0 3 -11 -2 -25 -6 -16 -6
-25 0 -25 6 0 6 -9 0 -25 -6 -15 -6 -27 0 -30 6 -3 6 -15 0 -30 -6 -15 -6 -27
1 -30 6 -4 6 -13 0 -23 -5 -9 -5 -26 0 -39 5 -14 5 -23 -1 -23 -6 0 -6 -9 -1
-23 5 -13 5 -30 1 -37 -5 -8 -4 -22 1 -31 5 -11 5 -27 -1 -43 -6 -16 -6 -26 0
-26 6 0 6 -9 0 -25 -6 -15 -6 -26 0 -30 7 -4 6 -13 0 -25 -6 -12 -7 -21 0 -25
6 -4 6 -15 0 -30 -6 -16 -6 -25 0 -25 6 0 6 -9 0 -25 -6 -15 -6 -26 0 -30 7
-4 6 -13 0 -25 -6 -12 -7 -21 0 -25 6 -4 6 -15 0 -30 -6 -16 -6 -25 0 -25 6 0
6 -9 0 -25 -6 -15 -6 -26 0 -30 7 -4 6 -13 0 -25 -6 -12 -7 -21 0 -25 6 -4 6
-15 0 -30 -6 -16 -6 -25 0 -25 6 0 6 -9 0 -25 -6 -15 -6 -26 0 -30 6 -4 7 -13
1 -23 -8 -17 -7 -49 3 -59 3 -3 1 -14 -4 -24 -7 -12 -7 -20 0 -24 7 -4 7 -12
0 -25 -7 -13 -7 -21 0 -25 6 -4 7 -12 1 -23 -5 -9 -5 -26 0 -39 5 -14 5 -23
-1 -23 -6 0 -6 -9 0 -25 6 -15 6 -25 0 -25 -5 0 -5 -12 0 -30 5 -16 6 -30 2
-30 -4 0 -7 -27 -7 -60 0 -33 3 -60 7 -60 4 0 3 -11 -2 -25 -6 -15 -6 -25 0
-25 5 0 5 -12 0 -30 -5 -18 -5 -30 0 -30 6 0 6 -10 0 -25 -6 -15 -6 -26 1 -30
6 -4 6 -13 0 -23 -5 -9 -5 -26 0 -39 5 -14 5 -23 -1 -23 -6 0 -6 -9 0 -25 6
-15 6 -25 0 -25 -5 0 -5 -12 0 -30 5 -16 6 -30 2 -30 -4 0 -7 -27 -7 -60 0
-33 3 -60 7 -60 4 0 3 -11 -2 -25 -6 -15 -6 -25 0 -25 5 0 5 -12 0 -30 -5 -18
-5 -30 0 -30 6 0 6 -10 0 -25 -5 -14 -5 -27 0 -30 5 -3 5 -18 0 -35 -5 -18 -5
-32 1 -35 5 -4 5 -14 -1 -25 -7 -13 -7 -21 0 -25 6 -4 7 -13 1 -23 -6 -11 -6
-24 0 -34 6 -10 5 -26 -1 -42 -6 -16 -6 -26 0 -26 6 0 6 -9 0 -25 -6 -15 -6
-26 0 -30 7 -4 6 -13 0 -25 -6 -12 -7 -21 0 -25 6 -4 6 -15 0 -30 -6 -16 -6
-25 0 -25 6 0 6 -9 0 -25 -6 -15 -6 -26 0 -30 7 -4 6 -13 0 -25 -6 -12 -7 -21
0 -25 6 -4 6 -15 0 -30 -6 -16 -6 -25 0 -25 6 0 6 -9 0 -25 -6 -15 -6 -26 0
-30 7 -4 6 -13 0 -25 -6 -12 -7 -21 0 -25 6 -4 6 -15 0 -30 -6 -16 -6 -25 0
-25 6 0 6 -9 0 -25 -6 -15 -6 -26 0 -30 6 -4 6 -14 -2 -28 -6 -12 -10 -24 -9
-27 2 -3 7 -13 12 -22 6 -10 5 -19 -1 -23 -6 -4 -7 -13 -1 -24 6 -10 6 -23 1
-31 -5 -8 -5 -19 0 -25 5 -6 5 -17 0 -25 -4 -7 -4 -24 0 -36 6 -14 5 -26 0
-29 -7 -4 -6 -13 0 -25 6 -12 7 -21 0 -25 -6 -4 -6 -15 0 -30 5 -14 6 -25 2
-25 -8 0 -8 -108 1 -116 3 -3 2 -17 -3 -30 -6 -15 -6 -24 0 -24 6 0 6 -9 0
-25 -6 -15 -6 -27 0 -30 6 -3 6 -15 0 -30 -6 -15 -6 -27 1 -30 6 -4 6 -13 0
-23 -5 -9 -5 -26 0 -39 5 -14 5 -23 -1 -23 -6 0 -6 -9 0 -25 6 -15 6 -27 0
-30 -6 -3 -6 -15 0 -30 6 -15 6 -25 0 -25 -5 0 -5 -12 0 -30 5 -16 6 -30 2
-30 -4 0 -7 -13 -7 -30 0 -16 3 -30 7 -30 4 0 3 -11 -2 -25 -6 -16 -6 -25 0
-25 6 0 6 -9 0 -25 -6 -15 -6 -27 0 -30 6 -3 6 -15 0 -30 -6 -15 -6 -27 1 -30
6 -4 6 -13 0 -23 -5 -9 -5 -26 0 -39 5 -14 5 -23 -1 -23 -6 0 -6 -9 -1 -23 5
-13 5 -30 1 -37 -5 -8 -4 -22 1 -32 6 -12 6 -18 0 -18 -7 0 -7 -8 -1 -24 5
-13 6 -27 3 -30 -9 -9 -9 -66 -1 -66 4 0 3 -11 -2 -25 -6 -16 -6 -25 0 -25 6
0 6 -9 0 -25 -6 -15 -6 -26 0 -30 6 -4 7 -13 1 -23 -5 -10 -6 -24 -1 -33 5 -8
5 -21 0 -29 -4 -7 -4 -24 1 -37 5 -14 5 -23 -1 -23 -6 0 -6 -9 0 -25 6 -15 6
-27 0 -30 -6 -3 -6 -15 0 -30 6 -15 6 -25 0 -25 -5 0 -5 -12 0 -30 5 -16 6
-30 2 -30 -4 0 -7 -13 -7 -30 0 -16 3 -30 7 -30 4 0 3 -11 -2 -25 -6 -16 -6
-25 0 -25 6 0 6 -9 0 -25 -6 -16 -6 -25 0 -25 6 0 6 -9 0 -25 -6 -15 -6 -27 0
-30 6 -3 6 -15 0 -30 -6 -16 -6 -25 0 -25 6 0 6 -9 0 -25 -6 -15 -6 -27 0 -30
6 -3 6 -15 0 -30 -6 -15 -6 -27 1 -30 6 -4 6 -13 0 -23 -5 -9 -5 -26 0 -39 5
-13 4 -25 -1 -28 -7 -4 -6 -13 0 -25 6 -12 7 -21 0 -25 -5 -3 -6 -15 -1 -28 5
-12 5 -34 0 -49 -4 -16 -4 -28 1 -28 5 0 5 -13 0 -30 -5 -16 -5 -32 0 -35 5
-3 5 -18 0 -34 -4 -16 -6 -32 -3 -35 5 -4 7 -25 17 -133 1 -12 5 -25 9 -29 4
-4 7 -13 7 -20 0 -7 5 -25 11 -41 6 -15 11 -30 11 -33 1 -31 100 -165 154
-210 52 -43 179 -116 206 -118 7 0 42 -7 78 -15 83 -19 263 -15 345 7 201 56
355 202 412 393 22 76 22 77 27 151 3 35 7 66 10 69 2 3 1 15 -4 28 -5 13 -6
26 -3 29 9 9 9 66 1 66 -4 0 -3 11 2 25 6 16 6 25 0 25 -6 0 -6 9 0 25 6 15 6
26 0 30 -6 4 -7 13 -1 23 5 10 6 24 1 33 -5 8 -5 21 0 29 4 7 4 24 -1 37 -5
14 -5 23 1 23 6 0 6 9 0 25 -6 15 -6 27 0 30 6 3 6 15 0 30 -6 15 -6 25 0 25
5 0 5 12 0 30 -5 17 -6 30 -2 30 4 0 7 14 7 30 0 17 -3 30 -7 30 -4 0 -3 11 2
25 6 16 6 25 0 25 -6 0 -6 9 0 25 6 16 6 25 0 25 -6 0 -6 9 0 25 6 15 6 27 0
30 -6 3 -6 15 0 30 6 16 6 25 0 25 -6 0 -6 9 0 25 6 15 6 27 0 30 -6 3 -6 15
0 30 6 15 6 27 -1 30 -6 4 -6 13 0 23 5 9 5 26 0 39 -5 13 -4 25 1 28 7 4 6
13 0 25 -6 12 -7 21 0 25 5 3 6 15 1 28 -5 12 -5 34 0 49 4 16 4 28 -1 28 -5
0 -5 13 0 30 5 17 5 32 0 35 -5 3 -6 15 -1 28 5 13 5 30 0 39 -6 11 -5 19 1
23 6 4 7 13 1 24 -6 10 -6 23 -1 31 5 8 5 19 0 25 -5 6 -5 17 0 25 4 7 4 24 0
36 -6 14 -5 26 0 29 7 4 6 13 0 25 -6 12 -7 21 0 25 6 4 6 15 0 30 -5 14 -6
25 -2 25 8 0 8 108 -1 116 -3 3 -2 17 3 30 6 15 6 24 0 24 -6 0 -6 9 0 25 6
15 6 27 0 30 -6 3 -6 15 0 30 6 15 6 27 -1 30 -6 4 -6 13 0 23 5 9 5 26 0 39
-5 14 -5 23 1 23 6 0 6 9 0 25 -6 15 -6 27 0 30 6 3 6 15 0 30 -6 15 -6 25 0
25 5 0 5 12 0 30 -5 17 -6 30 -2 30 4 0 7 14 7 30 0 17 -3 30 -7 30 -4 0 -3
11 2 25 6 16 6 25 0 25 -6 0 -6 9 0 25 6 15 6 27 0 30 -6 3 -6 15 0 30 6 15 6
27 -1 30 -6 4 -6 13 0 23 5 9 5 26 0 39 -5 14 -5 23 1 23 6 0 6 9 1 23 -5 13
-5 30 -1 37 5 8 4 22 -1 31 -5 11 -5 27 1 43 6 16 6 26 0 26 -6 0 -6 9 0 25 6
15 6 26 0 30 -7 4 -6 13 0 25 6 12 7 21 0 25 -6 4 -6 15 0 30 6 16 6 25 0 25
-6 0 -6 9 0 25 6 15 6 26 0 30 -7 4 -6 13 0 25 6 12 7 21 0 25 -6 4 -6 15 0
30 6 16 6 25 0 25 -6 0 -6 9 0 25 6 15 6 26 0 30 -7 4 -6 13 0 25 6 12 7 21 0
25 -6 4 -6 15 0 30 6 16 6 25 0 25 -6 0 -6 9 0 25 6 15 6 26 0 30 -6 4 -7 13
-1 23 8 17 7 49 -3 59 -3 3 -1 14 4 24 7 12 7 20 0 24 -7 4 -7 12 0 25 7 13 7
21 0 25 -6 4 -7 12 -1 23 5 9 5 26 0 39 -5 14 -5 23 1 23 6 0 6 9 0 25 -6 15
-6 25 0 25 5 0 5 12 0 30 -5 17 -6 30 -2 30 4 0 7 27 7 60 0 33 -3 60 -7 60
-4 0 -3 11 2 25 6 15 6 25 0 25 -5 0 -5 12 0 30 5 18 5 30 0 30 -6 0 -6 10 0
25 6 15 6 26 -1 30 -6 4 -6 13 0 23 5 9 5 26 0 39 -5 14 -5 23 1 23 6 0 6 9 0
25 -6 15 -6 25 0 25 5 0 5 12 0 30 -5 17 -6 30 -2 30 4 0 7 27 7 60 0 33 -3
60 -7 60 -4 0 -3 11 2 25 6 15 6 25 0 25 -5 0 -5 12 0 30 5 18 5 30 0 30 -6 0
-6 10 0 25 5 14 5 27 0 30 -5 3 -5 18 0 35 5 18 5 32 -1 35 -5 4 -5 14 1 25 7
13 7 21 0 25 -6 4 -7 13 -1 23 6 11 6 24 0 34 -6 10 -5 26 1 42 6 16 6 26 0
26 -6 0 -6 9 0 25 6 15 6 26 0 30 -7 4 -6 13 0 25 6 12 7 21 0 25 -6 4 -6 15
0 30 6 16 6 25 0 25 -6 0 -6 9 0 25 6 15 6 26 0 30 -7 4 -6 13 0 25 6 12 7 21
0 25 -6 4 -6 15 0 30 6 16 6 25 0 25 -6 0 -6 9 0 25 6 15 6 26 0 30 -7 4 -6
13 0 25 6 12 7 21 0 25 -6 4 -6 15 0 30 6 16 6 25 0 25 -6 0 -6 9 0 25 6 15 6
26 0 30 -6 4 -6 14 2 28 6 12 11 22 11 22 0 0 -5 10 -11 22 -8 14 -9 24 -2 28
6 4 7 13 1 24 -6 10 -6 23 -1 31 5 8 5 19 0 25 -5 6 -5 17 0 25 4 7 4 24 0 36
-6 14 -5 26 0 29 7 4 6 13 0 25 -6 12 -7 21 0 25 5 3 6 15 1 28 -5 12 -5 32 0
44 5 13 4 25 -2 28 -6 4 -6 13 0 23 5 9 5 26 0 39 -5 13 -4 25 1 28 7 4 6 13
0 25 -6 12 -7 21 0 25 6 3 6 15 0 30 -6 15 -6 27 0 30 6 3 6 15 0 30 -5 14 -6
25 -2 25 4 0 7 14 7 30 0 17 -2 30 -5 30 -3 0 -5 14 -5 30 0 17 2 30 5 30 3 0
5 25 5 55 0 30 -3 55 -7 55 -4 0 -4 10 1 23 5 13 5 30 0 39 -6 11 -5 19 1 23
7 4 7 13 0 26 -6 11 -7 19 -1 19 5 0 7 10 4 23 -4 13 81 -64 213 -195 120
-120 222 -218 226 -218 4 0 8 -4 8 -8 0 -10 275 -285 290 -290 5 -2 10 -9 11
-15 1 -19 160 -156 222 -193 68 -40 196 -80 254 -79 24 0 43 -4 43 -8 0 -5 4
-6 10 -2 5 3 31 7 57 9 79 6 207 46 225 71 4 5 8 6 8 2 0 -10 78 43 124 85 20
18 42 38 48 44 7 6 22 23 33 38 11 16 25 33 30 40 27 30 77 143 95 211 22 86
22 213 -1 300 -15 58 -86 205 -100 205 -5 0 -9 6 -9 13 0 16 -2034 2051 -2055
2055 -8 2 -15 7 -15 12 0 15 -156 87 -221 102 -91 21 -201 20 -287 -2z"/>
<path d="M7570 9593 c-100 -17 -232 -66 -268 -100 -7 -7 -16 -13 -20 -13 -11
0 -102 -89 -102 -100 0 -6 -3 -10 -8 -10 -13 0 -70 -103 -92 -170 -25 -74 -33
-110 -34 -162 -1 -21 -5 -38 -9 -38 -4 0 -3 -9 3 -19 7 -13 7 -28 0 -45 -6
-16 -6 -26 0 -26 6 0 6 -9 0 -25 -6 -15 -6 -26 0 -30 7 -4 6 -13 0 -25 -6 -12
-7 -21 0 -25 6 -4 6 -15 0 -30 -6 -16 -6 -25 0 -25 6 0 6 -9 0 -25 -6 -15 -6
-26 0 -30 7 -4 6 -13 0 -25 -6 -12 -7 -21 0 -25 6 -4 6 -15 0 -30 -6 -16 -6
-25 0 -25 6 0 6 -9 0 -25 -6 -15 -6 -26 0 -30 7 -4 6 -13 0 -25 -6 -12 -7 -21
0 -25 6 -4 6 -15 0 -30 -6 -16 -6 -25 0 -25 6 0 6 -9 0 -25 -6 -15 -6 -26 0
-30 6 -4 7 -13 1 -23 -8 -17 -7 -49 3 -59 3 -3 1 -14 -4 -24 -7 -12 -7 -20 0
-24 7 -4 7 -12 0 -25 -7 -13 -7 -21 0 -25 6 -4 7 -12 1 -23 -5 -9 -5 -26 0
-39 5 -14 5 -23 -1 -23 -6 0 -6 -9 0 -25 6 -15 6 -25 0 -25 -5 0 -5 -12 0 -30
5 -16 6 -30 2 -30 -4 0 -7 -27 -7 -60 0 -33 3 -60 7 -60 4 0 3 -11 -2 -25 -6
-15 -6 -25 0 -25 5 0 5 -12 0 -30 -5 -18 -5 -30 0 -30 6 0 6 -10 0 -25 -6 -15
-6 -26 1 -30 6 -4 6 -13 0 -23 -5 -9 -5 -26 0 -39 5 -14 5 -23 -1 -23 -6 0 -6
-9 0 -25 6 -15 6 -25 0 -25 -5 0 -5 -12 0 -30 5 -16 6 -30 2 -30 -4 0 -7 -27
-7 -60 0 -33 3 -60 7 -60 4 0 3 -11 -2 -25 -6 -15 -6 -25 0 -25 5 0 5 -12 0
-30 -5 -18 -5 -30 0 -30 6 0 6 -10 0 -25 -5 -14 -5 -27 0 -30 5 -3 5 -18 0
-35 -5 -18 -5 -32 1 -35 5 -4 5 -14 -1 -25 -7 -13 -7 -21 0 -25 6 -4 7 -13 1
-23 -6 -11 -6 -24 0 -34 6 -10 5 -26 -1 -42 -6 -16 -6 -26 0 -26 6 0 6 -9 0
-25 -6 -15 -6 -26 0 -30 7 -4 6 -13 0 -25 -6 -12 -7 -21 0 -25 6 -4 6 -15 0
-30 -6 -16 -6 -25 0 -25 6 0 6 -9 0 -25 -6 -15 -6 -26 0 -30 7 -4 6 -13 0 -25
-6 -12 -7 -21 0 -25 6 -4 6 -15 0 -30 -6 -16 -6 -25 0 -25 6 0 6 -9 0 -25 -6
-15 -6 -26 0 -30 7 -4 6 -13 0 -25 -6 -12 -7 -21 0 -25 6 -4 6 -15 0 -30 -6
-16 -6 -25 0 -25 6 0 6 -9 0 -25 -6 -15 -6 -26 0 -30 6 -4 7 -13 1 -23 -5 -9
-9 -21 -9 -27 0 -5 4 -18 9 -27 6 -10 5 -19 -1 -23 -6 -4 -7 -13 -1 -24 6 -10
6 -23 1 -31 -5 -8 -5 -19 0 -25 5 -6 5 -17 0 -25 -4 -7 -4 -24 0 -36 6 -14 5
-26 0 -29 -7 -4 -6 -13 0 -25 6 -12 7 -21 0 -25 -6 -4 -6 -15 0 -30 5 -14 6
-25 2 -25 -8 0 -8 -108 1 -116 3 -3 2 -17 -3 -30 -6 -15 -6 -24 0 -24 6 0 6
-9 0 -25 -6 -15 -6 -27 0 -30 6 -3 6 -15 0 -30 -6 -15 -6 -27 1 -30 6 -4 6
-13 0 -23 -5 -9 -5 -26 0 -39 5 -14 5 -23 -1 -23 -6 0 -6 -9 0 -25 6 -15 6
-27 0 -30 -6 -3 -6 -15 0 -30 6 -15 6 -25 0 -25 -5 0 -5 -12 0 -30 5 -16 6
-30 2 -30 -4 0 -7 -13 -7 -30 0 -16 3 -30 7 -30 4 0 3 -11 -2 -25 -6 -16 -6
-25 0 -25 6 0 6 -9 0 -25 -6 -15 -6 -27 0 -30 6 -3 6 -15 0 -30 -6 -15 -6 -27
1 -30 6 -4 6 -13 0 -23 -5 -9 -5 -26 0 -39 5 -14 5 -23 -1 -23 -6 0 -6 -9 -1
-23 5 -13 5 -30 1 -37 -5 -8 -4 -22 1 -32 7 -12 6 -18 -1 -18 -7 0 -8 -6 0
-19 7 -13 7 -22 0 -26 -6 -4 -7 -13 -1 -24 6 -10 6 -23 1 -31 -5 -8 -5 -19 0
-25 5 -6 5 -17 0 -25 -4 -7 -4 -24 0 -36 6 -14 5 -26 0 -29 -7 -4 -6 -13 0
-25 6 -12 7 -21 0 -25 -6 -4 -6 -15 0 -30 5 -14 6 -25 2 -25 -8 0 -8 -108 1
-116 3 -3 2 -17 -3 -30 -6 -15 -6 -24 0 -24 6 0 6 -9 0 -25 -6 -15 -6 -27 0
-30 6 -3 6 -15 0 -30 -6 -15 -6 -27 1 -30 6 -4 6 -13 0 -23 -5 -9 -5 -26 0
-39 5 -14 5 -23 -1 -23 -6 0 -6 -9 0 -25 6 -15 6 -27 0 -30 -6 -3 -6 -15 0
-30 6 -15 6 -25 0 -25 -5 0 -5 -12 0 -30 5 -16 6 -30 2 -30 -4 0 -7 -13 -7
-30 0 -16 3 -30 7 -30 4 0 3 -11 -2 -25 -6 -16 -6 -25 0 -25 6 0 6 -9 0 -25
-6 -15 -6 -27 0 -30 6 -3 6 -15 0 -30 -6 -15 -6 -27 1 -30 6 -4 6 -13 0 -23
-5 -9 -5 -26 0 -39 5 -14 5 -23 -1 -23 -6 0 -6 -9 -1 -23 5 -13 5 -30 1 -37
-5 -8 -4 -22 1 -31 5 -11 5 -27 -1 -43 -6 -16 -6 -26 0 -26 6 0 6 -9 0 -25 -6
-15 -6 -26 0 -30 7 -4 6 -13 0 -25 -6 -12 -7 -21 0 -25 6 -4 6 -15 0 -30 -6
-16 -6 -25 0 -25 6 0 6 -9 0 -25 -6 -15 -6 -26 0 -30 7 -4 6 -13 0 -25 -6 -12
-7 -21 0 -25 6 -4 6 -15 0 -30 -6 -16 -6 -25 0 -25 6 0 6 -9 0 -25 -6 -15 -6
-26 0 -30 7 -4 6 -13 0 -25 -6 -12 -7 -21 0 -25 6 -4 6 -15 0 -30 -6 -16 -6
-25 0 -25 6 0 6 -9 0 -25 -6 -15 -6 -26 0 -30 6 -4 7 -13 1 -23 -8 -17 -7 -49
3 -59 3 -3 1 -14 -4 -24 -7 -12 -7 -20 0 -24 7 -4 7 -12 0 -25 -6 -11 -6 -21
-1 -25 6 -3 6 -17 1 -35 -5 -18 -5 -32 1 -35 5 -4 5 -13 -1 -24 -5 -10 -6 -21
-3 -25 8 -8 8 -85 0 -93 -4 -3 -2 -14 4 -24 18 -35 -7 -19 -59 36 -29 30 -56
55 -62 55 -5 0 -10 4 -10 8 0 11 -724 732 -775 773 -80 63 -212 115 -311 124
-22 2 -43 4 -49 5 -5 1 -12 2 -15 1 -3 -1 -30 -4 -60 -6 -51 -4 -95 -11 -95
-15 0 -1 -8 -3 -17 -5 -9 -2 -43 -15 -75 -31 -32 -15 -61 -26 -65 -26 -5 1 -8
-3 -8 -8 0 -6 -5 -10 -11 -10 -6 0 -16 -6 -24 -13 -7 -6 -25 -21 -41 -32 -15
-11 -32 -26 -38 -33 -6 -6 -26 -29 -45 -50 -52 -57 -119 -169 -127 -214 -1 -5
-3 -10 -4 -13 -1 -3 -4 -9 -5 -15 -1 -5 -4 -11 -5 -12 -17 -17 -19 -235 -3
-292 8 -28 16 -59 18 -68 7 -30 73 -151 100 -183 45 -53 1739 -1745 1747
-1745 4 0 8 -4 8 -9 0 -6 217 -226 274 -276 20 -19 124 -85 133 -85 4 0 19 -6
33 -13 53 -27 128 -42 220 -41 107 0 150 4 165 15 6 4 13 8 18 8 4 1 8 1 10 2
1 0 9 2 18 4 46 9 153 73 219 132 22 19 1967 1965 1997 1997 17 19 94 147 99
165 2 9 13 48 23 86 32 114 21 267 -25 372 -8 17 -14 34 -14 38 0 4 -17 32
-37 63 -51 79 -156 181 -232 226 -73 42 -204 83 -262 82 -21 -1 -39 2 -39 7 0
4 -4 6 -10 2 -5 -3 -31 -7 -57 -9 -79 -6 -207 -46 -225 -71 -4 -5 -8 -6 -8 -2
0 10 -83 -48 -129 -90 -17 -15 -216 -213 -443 -440 -226 -226 -416 -410 -420
-407 -4 3 -4 13 2 23 6 12 5 22 -1 28 -8 8 -7 13 0 17 7 5 8 13 2 25 -6 10 -6
23 -1 31 5 8 5 21 -1 31 -6 11 -5 20 1 24 7 4 7 13 0 26 -7 12 -7 19 -1 19 7
0 7 9 1 25 -5 14 -6 25 -2 25 8 0 7 118 -1 127 -4 3 -2 14 3 24 7 12 7 20 0
24 -7 4 -7 12 0 25 7 13 7 21 0 25 -6 4 -7 12 -1 23 5 9 5 26 0 39 -5 14 -5
23 1 23 6 0 6 9 0 25 -6 15 -6 25 0 25 5 0 5 12 0 30 -5 17 -6 30 -2 30 4 0 7
27 7 60 0 33 -3 60 -7 60 -4 0 -3 11 2 25 6 15 6 25 0 25 -5 0 -5 12 0 30 5
18 5 30 0 30 -6 0 -6 10 0 25 6 15 6 26 -1 30 -6 4 -6 13 0 23 5 9 5 26 0 39
-5 14 -5 23 1 23 6 0 6 9 0 25 -6 15 -6 25 0 25 5 0 5 12 0 30 -5 17 -6 30 -2
30 4 0 7 27 7 60 0 33 -3 60 -7 60 -4 0 -3 11 2 25 6 15 6 25 0 25 -5 0 -5 12
0 30 5 18 5 30 0 30 -6 0 -6 10 0 25 5 14 5 27 0 30 -5 3 -5 18 0 35 5 18 5
32 -1 35 -5 4 -5 14 1 25 7 13 7 21 0 25 -6 4 -7 13 -1 23 6 11 6 24 0 34 -6
10 -5 26 1 42 6 16 6 26 0 26 -6 0 -6 9 0 25 6 15 6 26 0 30 -7 4 -6 13 0 25
6 12 7 21 0 25 -6 4 -6 15 0 30 6 16 6 25 0 25 -6 0 -6 9 0 25 6 15 6 26 0 30
-7 4 -6 13 0 25 6 12 7 21 0 25 -6 4 -6 15 0 30 6 16 6 25 0 25 -6 0 -6 9 0
25 6 15 6 26 0 30 -7 4 -6 13 0 25 6 12 7 21 0 25 -6 4 -6 15 0 30 6 16 6 25
0 25 -6 0 -6 9 0 25 6 15 6 26 0 30 -7 4 -6 13 0 25 6 12 7 21 0 25 -6 4 -6
15 0 30 6 16 6 25 0 25 -6 0 -6 9 0 25 6 15 6 26 0 30 -7 4 -6 13 0 25 6 12 7
21 0 25 -6 4 -6 15 0 30 6 16 6 25 0 25 -6 0 -6 9 0 25 6 15 6 26 0 30 -7 4
-6 13 0 25 6 12 7 21 0 25 -6 4 -6 15 0 30 6 16 6 25 0 25 -6 0 -6 9 0 25 6
15 6 26 0 30 -7 4 -6 13 0 25 6 12 7 21 0 25 -6 4 -6 15 0 30 6 16 6 25 0 25
-6 0 -6 9 0 25 6 15 6 26 0 30 -6 4 -7 13 -1 23 8 17 7 49 -3 59 -3 3 -1 14 4
24 7 12 7 20 0 24 -7 4 -7 12 0 25 7 13 7 21 0 25 -6 4 -7 12 -1 23 5 9 5 26
0 39 -5 14 -5 23 1 23 6 0 6 9 0 25 -6 15 -6 25 0 25 5 0 5 12 0 30 -5 17 -6
30 -2 30 4 0 7 27 7 60 0 33 -3 60 -7 60 -4 0 -3 11 2 25 6 15 6 25 0 25 -5 0
-5 12 0 30 5 18 5 30 0 30 -6 0 -6 10 0 25 6 15 6 26 -1 30 -6 4 -6 13 0 23 5
9 5 26 0 39 -5 14 -5 23 1 23 6 0 6 9 0 25 -6 15 -6 25 0 25 5 0 5 12 0 30 -5
17 -6 30 -2 30 4 0 7 27 7 60 0 33 -3 60 -7 60 -4 0 -3 11 2 25 6 15 6 25 0
25 -5 0 -5 12 0 30 5 18 5 30 0 30 -6 0 -6 10 0 25 5 14 5 27 0 30 -5 3 -5 18
0 35 5 18 5 32 -1 35 -5 4 -5 14 1 25 7 13 7 21 0 25 -6 4 -7 13 -1 23 6 11 6
24 0 34 -6 10 -5 26 1 42 6 16 6 26 0 26 -6 0 -6 9 0 25 6 15 6 26 0 30 -7 4
-6 13 0 25 6 12 7 21 0 25 -6 4 -6 15 0 30 6 16 6 25 0 25 -6 0 -6 9 0 25 6
15 6 26 0 30 -7 4 -6 13 0 25 6 12 7 21 0 25 -6 4 -6 15 0 30 6 16 6 25 0 25
-6 0 -6 9 0 25 6 15 6 26 0 30 -7 4 -6 13 0 25 6 12 7 21 0 25 -6 4 -6 15 0
30 6 16 6 25 0 25 -6 0 -6 9 0 25 6 15 6 26 0 30 -7 4 -6 13 0 25 6 12 7 21 0
25 -6 4 -6 15 0 30 6 16 6 25 0 25 -6 0 -6 9 0 25 6 15 6 26 0 30 -7 4 -6 13
0 25 6 12 7 21 0 25 -6 4 -6 15 0 30 6 16 6 25 0 25 -6 0 -6 9 0 25 6 15 6 26
0 30 -7 4 -6 13 0 25 6 12 7 21 0 25 -6 4 -6 15 0 30 6 16 6 25 0 25 -6 0 -6
9 0 25 6 15 6 26 0 30 -7 4 -6 13 0 25 6 12 7 21 0 25 -6 4 -6 15 0 30 6 16 6
25 0 25 -6 0 -6 9 0 25 6 15 6 26 0 30 -6 4 -7 13 -1 23 8 17 7 49 -3 59 -3 3
-1 14 4 24 7 12 7 20 0 24 -7 4 -7 12 0 25 7 13 7 21 0 25 -6 4 -7 12 -1 23 5
9 5 26 0 39 -5 14 -5 23 1 23 6 0 6 9 0 25 -6 15 -6 25 0 25 5 0 5 12 0 30 -5
17 -6 30 -2 30 4 0 7 27 7 60 0 33 -3 60 -7 60 -4 0 -3 11 2 25 6 15 6 25 0
25 -5 0 -5 12 0 30 5 18 5 30 0 30 -6 0 -6 10 0 25 6 15 6 27 0 30 -6 3 -6 15
0 29 5 13 6 27 3 30 -4 3 -8 30 -10 59 -2 47 -9 92 -13 92 -1 0 -3 8 -5 17
-17 89 -86 208 -161 281 -69 65 -162 117 -259 143 -57 15 -252 26 -305 17z"/>
</g>
</svg>
